  0
SECTION
  2
HEADER
  9
$ACADVER
  1
AC1018
  9
$ACADMAINTVER
 70
     0
  9
$DWGCODEPAGE
  3
ANSI_1252
  9
$LASTSAVEDBY
  1
buda
  9
$INSBASE
 10
0.0
 20
0.0
 30
0.0
  9
$EXTMIN
 10
0.0
 20
0.0
 30
0.0
  9
$EXTMAX
 10
594.0
 20
420.0
 30
0.0
  9
$LIMMIN
 10
0.0
 20
0.0
  9
$LIMMAX
 10
594.0
 20
420.0
  9
$ORTHOMODE
 70
     0
  9
$REGENMODE
 70
     1
  9
$FILLMODE
 70
     1
  9
$QTEXTMODE
 70
     0
  9
$MIRRTEXT
 70
     1
  9
$LTSCALE
 40
2.0
  9
$ATTMODE
 70
     1
  9
$TEXTSIZE
 40
5.0
  9
$TRACEWID
 40
1.0
  9
$TEXTSTYLE
  7
Standard
  9
$CLAYER
  8
0
  9
$CELTYPE
  6
ByLayer
  9
$CECOLOR
 62
   256
  9
$CELTSCALE
 40
1.0
  9
$DISPSILH
 70
     0
  9
$DIMSCALE
 40
1.0
  9
$DIMASZ
 40
7.0
  9
$DIMEXO
 40
2.0
  9
$DIMDLI
 40
3.75
  9
$DIMRND
 40
0.0
  9
$DIMDLE
 40
0.0
  9
$DIMEXE
 40
2.0
  9
$DIMTP
 40
0.0
  9
$DIMTM
 40
0.0
  9
$DIMTXT
 40
5.0
  9
$DIMCEN
 40
2.5
  9
$DIMTSZ
 40
0.0
  9
$DIMTOL
 70
     0
  9
$DIMLIM
 70
     0
  9
$DIMTIH
 70
     1
  9
$DIMTOH
 70
     1
  9
$DIMSE1
 70
     0
  9
$DIMSE2
 70
     0
  9
$DIMTAD
 70
     1
  9
$DIMZIN
 70
     0
  9
$DIMBLK
  1

  9
$DIMASO
 70
     1
  9
$DIMSHO
 70
     1
  9
$DIMPOST
  1

  9
$DIMAPOST
  1

  9
$DIMALT
 70
     0
  9
$DIMALTD
 70
     3
  9
$DIMALTF
 40
0.0393700787
  9
$DIMLFAC
 40
1.0
  9
$DIMTOFL
 70
     1
  9
$DIMTVP
 40
0.0
  9
$DIMTIX
 70
     0
  9
$DIMSOXD
 70
     0
  9
$DIMSAH
 70
     0
  9
$DIMBLK1
  1

  9
$DIMBLK2
  1

  9
$DIMSTYLE
  2
ISO-25
  9
$DIMCLRD
 70
     0
  9
$DIMCLRE
 70
     0
  9
$DIMCLRT
 70
     0
  9
$DIMTFAC
 40
1.0
  9
$DIMGAP
 40
3.048
  9
$DIMJUST
 70
     0
  9
$DIMSD1
 70
     0
  9
$DIMSD2
 70
     0
  9
$DIMTOLJ
 70
     0
  9
$DIMTZIN
 70
     0
  9
$DIMALTZ
 70
     0
  9
$DIMALTTZ
 70
     0
  9
$DIMUPT
 70
     0
  9
$DIMDEC
 70
     3
  9
$DIMTDEC
 70
     3
  9
$DIMALTU
 70
     2
  9
$DIMALTTD
 70
     3
  9
$DIMTXSTY
  7
Standard
  9
$DIMAUNIT
 70
     0
  9
$DIMADEC
 70
     2
  9
$DIMALTRND
 40
0.0
  9
$DIMAZIN
 70
     0
  9
$DIMDSEP
 70
    44
  9
$DIMATFIT
 70
     3
  9
$DIMFRAC
 70
     0
  9
$DIMLDRBLK
  1

  9
$DIMLUNIT
 70
     2
  9
$DIMLWD
 70
    -2
  9
$DIMLWE
 70
    -2
  9
$DIMTMOVE
 70
     0
  9
$LUNITS
 70
     2
  9
$LUPREC
 70
     2
  9
$SKETCHINC
 40
1.0
  9
$FILLETRAD
 40
0.0
  9
$AUNITS
 70
     0
  9
$AUPREC
 70
     2
  9
$MENU
  1
.
  9
$ELEVATION
 40
0.0
  9
$PELEVATION
 40
0.0
  9
$THICKNESS
 40
0.0
  9
$LIMCHECK
 70
     0
  9
$CHAMFERA
 40
0.0
  9
$CHAMFERB
 40
0.0
  9
$CHAMFERC
 40
0.0
  9
$CHAMFERD
 40
0.0
  9
$SKPOLY
 70
     0
  9
$TDCREATE
 40
2460896.48431706
  9
$TDUCREATE
 40
2460896.400983727
  9
$TDUPDATE
 40
2460896.484320035
  9
$TDUUPDATE
 40
2460896.400986702
  9
$TDINDWG
 40
0.0000000116
  9
$TDUSRTIMER
 40
0.0000000116
  9
$USRTIMER
 70
     1
  9
$ANGBASE
 50
0.0
  9
$ANGDIR
 70
     0
  9
$PDMODE
 70
     0
  9
$PDSIZE
 40
-1.0
  9
$PLINEWID
 40
0.0
  9
$SPLFRAME
 70
     0
  9
$SPLINETYPE
 70
     6
  9
$SPLINESEGS
 70
     8
  9
$HANDSEED
  5
307
  9
$SURFTAB1
 70
     6
  9
$SURFTAB2
 70
     6
  9
$SURFTYPE
 70
     6
  9
$SURFU
 70
     6
  9
$SURFV
 70
     6
  9
$UCSBASE
  2

  9
$UCSNAME
  2

  9
$UCSORG
 10
0.0
 20
0.0
 30
0.0
  9
$UCSXDIR
 10
1.0
 20
0.0
 30
0.0
  9
$UCSYDIR
 10
0.0
 20
1.0
 30
0.0
  9
$UCSORTHOREF
  2

  9
$UCSORTHOVIEW
 70
     0
  9
$UCSORGTOP
 10
0.0
 20
0.0
 30
0.0
  9
$UCSORGBOTTOM
 10
0.0
 20
0.0
 30
0.0
  9
$UCSORGLEFT
 10
0.0
 20
0.0
 30
0.0
  9
$UCSORGRIGHT
 10
0.0
 20
0.0
 30
0.0
  9
$UCSORGFRONT
 10
0.0
 20
0.0
 30
0.0
  9
$UCSORGBACK
 10
0.0
 20
0.0
 30
0.0
  9
$PUCSBASE
  2

  9
$PUCSNAME
  2

  9
$PUCSORG
 10
0.0
 20
0.0
 30
0.0
  9
$PUCSXDIR
 10
1.0
 20
0.0
 30
0.0
  9
$PUCSYDIR
 10
0.0
 20
1.0
 30
0.0
  9
$PUCSORTHOREF
  2

  9
$PUCSORTHOVIEW
 70
     0
  9
$PUCSORGTOP
 10
0.0
 20
0.0
 30
0.0
  9
$PUCSORGBOTTOM
 10
0.0
 20
0.0
 30
0.0
  9
$PUCSORGLEFT
 10
0.0
 20
0.0
 30
0.0
  9
$PUCSORGRIGHT
 10
0.0
 20
0.0
 30
0.0
  9
$PUCSORGFRONT
 10
0.0
 20
0.0
 30
0.0
  9
$PUCSORGBACK
 10
0.0
 20
0.0
 30
0.0
  9
$USERI1
 70
     0
  9
$USERI2
 70
     0
  9
$USERI3
 70
     0
  9
$USERI4
 70
     0
  9
$USERI5
 70
     0
  9
$USERR1
 40
0.0
  9
$USERR2
 40
0.0
  9
$USERR3
 40
0.0
  9
$USERR4
 40
0.0
  9
$USERR5
 40
0.0
  9
$WORLDVIEW
 70
     1
  9
$SHADEDGE
 70
     3
  9
$SHADEDIF
 70
    70
  9
$TILEMODE
 70
     1
  9
$MAXACTVP
 70
    64
  9
$PINSBASE
 10
0.0
 20
0.0
 30
0.0
  9
$PLIMCHECK
 70
     0
  9
$PEXTMIN
 10
1.0000000000E+20
 20
1.0000000000E+20
 30
1.0000000000E+20
  9
$PEXTMAX
 10
-1.0000000000E+20
 20
-1.0000000000E+20
 30
-1.0000000000E+20
  9
$PLIMMIN
 10
0.0
 20
0.0
  9
$PLIMMAX
 10
420.0
 20
297.0
  9
$UNITMODE
 70
     0
  9
$VISRETAIN
 70
     1
  9
$PLINEGEN
 70
     0
  9
$PSLTSCALE
 70
     1
  9
$TREEDEPTH
 70
  3020
  9
$CMLSTYLE
  2
Standard
  9
$CMLJUST
 70
     0
  9
$CMLSCALE
 40
20.0
  9
$PROXYGRAPHICS
 70
     1
  9
$MEASUREMENT
 70
     1
  9
$CELWEIGHT
370
    -1
  9
$ENDCAPS
280
     0
  9
$JOINSTYLE
280
     0
  9
$LWDISPLAY
290
     1
  9
$INSUNITS
 70
     4
  9
$HYPERLINKBASE
  1

  9
$STYLESHEET
  1

  9
$XEDIT
290
     1
  9
$CEPSNTYPE
380
     0
  9
$PSTYLEMODE
290
     1
  9
$FINGERPRINTGUID
  2
{80675f95-a152-4248-b589-2c4d693f31d0}
  9
$VERSIONGUID
  2
{FAEB1C32-E019-11D5-929B-00C0DF256EC4}
  9
$EXTNAMES
290
     1
  9
$PSVPSCALE
 40
0.0
  9
$OLESTARTUP
290
     0
  9
$SORTENTS
280
   127
  9
$INDEXCTL
280
     0
  9
$HIDETEXT
280
     1
  9
$XCLIPFRAME
290
     0
  9
$HALOGAP
280
     0
  9
$OBSCOLOR
 70
   257
  9
$OBSLTYPE
280
     0
  9
$INTERSECTIONDISPLAY
280
     0
  9
$INTERSECTIONCOLOR
 70
   257
  9
$DIMASSOC
280
     2
  9
$PROJECTNAME
  1

  0
ENDSEC
  0
SECTION
  2
CLASSES
  0
CLASS
  1
ACDBDICTIONARYWDFLT
  2
AcDbDictionaryWithDefault
  3
ObjectDBX Classes
 90
        0
 91
        3
280
     0
281
     0
  0
CLASS
  1
VISUALSTYLE
  2
AcDbVisualStyle
  3
ObjectDBX Classes
 90
     4095
 91
        3
280
     0
281
     0
  0
CLASS
  1
MATERIAL
  2
AcDbMaterial
  3
ObjectDBX Classes
 90
     1153
 91
        3
280
     0
281
     0
  0
CLASS
  1
SCALE
  2
AcDbScale
  3
ObjectDBX Classes
 90
     1153
 91
        3
280
     0
281
     0
  0
CLASS
  1
TABLESTYLE
  2
AcDbTableStyle
  3
ObjectDBX Classes
 90
     4095
 91
        3
280
     0
281
     0
  0
CLASS
  1
MLEADERSTYLE
  2
AcDbMLeaderStyle
  3
ACDB_MLEADERSTYLE_CLASS
 90
     4095
 91
        3
280
     0
281
     0
  0
CLASS
  1
SUN
  2
AcDbSun
  3
SCENEOE
 90
     1153
 91
        3
280
     0
281
     0
  0
CLASS
  1
DICTIONARYVAR
  2
AcDbDictionaryVar
  3
ObjectDBX Classes
 90
        0
 91
        3
280
     0
281
     0
  0
CLASS
  1
CELLSTYLEMAP
  2
AcDbCellStyleMap
  3
ObjectDBX Classes
 90
     1152
 91
        3
280
     0
281
     0
  0
ENDSEC
  0
SECTION
  2
TABLES
  0
TABLE
  2
VPORT
  5
8
330
0
100
AcDbSymbolTable
 70
     1
  0
VPORT
  5
29
330
8
100
AcDbSymbolTableRecord
100
AcDbViewportTableRecord
  2
*Active
 70
     0
 10
0.0
 20
0.0
 11
1.0
 21
1.0
 12
297.0
 22
210.0
 13
0.0
 23
0.0
 14
10.0
 24
10.0
 15
10.0
 25
10.0
 16
0.0
 26
0.0
 36
1.0
 17
0.0
 27
0.0
 37
0.0
 40
420.0
 41
1.4142857143
 42
50.0
 43
0.0
 44
0.0
 50
0.0
 51
0.0
 71
     0
 72
  2000
 73
     1
 74
     3
 75
     0
 76
     0
 77
     0
 78
     0
281
     0
 65
     1
110
0.0
120
0.0
130
0.0
111
1.0
121
0.0
131
0.0
112
0.0
122
1.0
132
0.0
 79
     0
146
0.0
  0
ENDTAB
  0
TABLE
  2
LTYPE
  5
5
330
0
100
AcDbSymbolTable
 70
     6
  0
LTYPE
  5
14
330
5
100
AcDbSymbolTableRecord
100
AcDbLinetypeTableRecord
  2
ByBlock
 70
     0
  3

 72
    65
 73
     0
 40
0.0
  0
LTYPE
  5
15
330
5
100
AcDbSymbolTableRecord
100
AcDbLinetypeTableRecord
  2
ByLayer
 70
     0
  3

 72
    65
 73
     0
 40
0.0
  0
LTYPE
  5
16
330
5
100
AcDbSymbolTableRecord
100
AcDbLinetypeTableRecord
  2
Continuous
 70
     0
  3
Solid line
 72
    65
 73
     0
 40
0.0
  0
LTYPE
  5
5E
330
5
100
AcDbSymbolTableRecord
100
AcDbLinetypeTableRecord
  2
HIDDEN
 70
     0
  3
Hidden __ __ __ __ __ __ __ __ __ __ __ __ __ __
 72
    65
 73
     2
 40
1.905
 49
1.27
 74
     0
 49
-0.635
 74
     0
  0
LTYPE
  5
5F
330
5
100
AcDbSymbolTableRecord
100
AcDbLinetypeTableRecord
  2
PHANTOM
 70
     0
  3
Phantom ______  __  __  ______  __  __  ______
 72
    65
 73
     6
 40
12.7
 49
6.35
 74
     0
 49
-1.27
 74
     0
 49
1.27
 74
     0
 49
-1.27
 74
     0
 49
1.27
 74
     0
 49
-1.27
 74
     0
  0
LTYPE
  5
60
330
5
100
AcDbSymbolTableRecord
100
AcDbLinetypeTableRecord
  2
CENTER
 70
     0
  3
Center ____ _ ____ _ ____ _ ____ _ ____ _ ____
 72
    65
 73
     4
 40
10.16
 49
6.35
 74
     0
 49
-1.27
 74
     0
 49
1.27
 74
     0
 49
-1.27
 74
     0
  0
LTYPE
  5
61
330
5
100
AcDbSymbolTableRecord
100
AcDbLinetypeTableRecord
  2
CENTERX2
 70
     0
  3
Center (2x) ________  __  ________  __  _____
 72
    65
 73
     4
 40
20.32
 49
12.7
 74
     0
 49
-2.54
 74
     0
 49
2.54
 74
     0
 49
-2.54
 74
     0
  0
LTYPE
  5
62
330
5
100
AcDbSymbolTableRecord
100
AcDbLinetypeTableRecord
  2
DOT2
 70
     0
  3
Dot (.5x) ........................................
 72
    65
 73
     2
 40
0.635
 49
0.0
 74
     0
 49
-0.635
 74
     0
  0
ENDTAB
  0
TABLE
  2
LAYER
  5
2
330
0
100
AcDbSymbolTable
 70
    10
  0
LAYER
  5
10
330
2
100
AcDbSymbolTableRecord
100
AcDbLayerTableRecord
  2
0
 70
     0
 62
     7
  6
Continuous
370
    -3
390
F
  0
LAYER
  5
63
330
2
100
AcDbSymbolTableRecord
100
AcDbLayerTableRecord
  2
FORMAT
 70
     0
 62
     7
  6
Continuous
370
    -3
390
F
  0
LAYER
  5
64
330
2
100
AcDbSymbolTableRecord
100
AcDbLayerTableRecord
  2
SLD-0
 70
     0
 62
     7
  6
Continuous
370
    -3
390
F
  0
LAYER
  5
65
330
2
100
AcDbSymbolTableRecord
100
AcDbLayerTableRecord
  2
SCHRIFTKOPF
 70
     0
 62
     7
  6
Continuous
370
    -3
390
F
  0
LAYER
  5
66
330
2
100
AcDbSymbolTableRecord
100
AcDbLayerTableRecord
  2
_LOGO
 70
     0
 62
     7
  6
Continuous
370
    -3
390
F
  0
LAYER
  5
67
330
2
100
AcDbSymbolTableRecord
100
AcDbLayerTableRecord
  2
AM_0
 70
     0
 62
     7
  6
Continuous
370
    35
390
F
  0
LAYER
  5
68
330
2
100
AcDbSymbolTableRecord
100
AcDbLayerTableRecord
  2
DEFAULT_1
 70
     0
 62
     7
  6
CENTER
370
    -3
390
F
  0
LAYER
  5
69
330
2
100
AcDbSymbolTableRecord
100
AcDbLayerTableRecord
  2
ES
 70
     0
 62
     5
  6
Continuous
370
    -3
390
F
  0
LAYER
  5
6A
330
2
100
AcDbSymbolTableRecord
100
AcDbLayerTableRecord
  2
DE
 70
     0
 62
     7
  6
Continuous
370
    -3
390
F
  0
LAYER
  5
6B
330
2
100
AcDbSymbolTableRecord
100
AcDbLayerTableRecord
  2
EN
 70
     0
 62
    30
  6
Continuous
370
    -3
390
F
  0
ENDTAB
  0
TABLE
  2
STYLE
  5
3
330
0
100
AcDbSymbolTable
 70
     5
  0
STYLE
  5
11
330
3
100
AcDbSymbolTableRecord
100
AcDbTextStyleTableRecord
  2
Standard
 70
     0
 40
0.0
 41
1.0
 50
0.0
 71
     0
 42
5.0
  3
txt
  4

  0
STYLE
  5
120
330
3
100
AcDbSymbolTableRecord
100
AcDbTextStyleTableRecord
  2
SLDTEXTSTYLE0
 70
     0
 40
0.0
 41
0.75
 50
0.0
 71
     0
 42
5.0
  3
TXT
  4

  0
STYLE
  5
147
330
3
100
AcDbSymbolTableRecord
100
AcDbTextStyleTableRecord
  2
SLDTEXTSTYLE1
 70
     0
 40
0.0
 41
0.6764705882
 50
0.0
 71
     0
 42
5.0
  3
TXT
  4

  0
STYLE
  5
16F
330
3
100
AcDbSymbolTableRecord
100
AcDbTextStyleTableRecord
  2
SLDTEXTSTYLE2
 70
     0
 40
0.0
 41
0.6666666667
 50
0.0
 71
     0
 42
5.0
  3
TXT
  4

  0
STYLE
  5
181
330
3
100
AcDbSymbolTableRecord
100
AcDbTextStyleTableRecord
  2
SLDTEXTSTYLE3
 70
     0
 40
0.0
 41
0.6785714286
 50
0.0
 71
     0
 42
5.0
  3
TXT
  4

  0
ENDTAB
  0
TABLE
  2
VIEW
  5
6
330
0
100
AcDbSymbolTable
 70
     0
  0
ENDTAB
  0
TABLE
  2
UCS
  5
7
330
0
100
AcDbSymbolTable
 70
     0
  0
ENDTAB
  0
TABLE
  2
APPID
  5
9
330
0
100
AcDbSymbolTable
 70
     2
  0
APPID
  5
12
330
9
100
AcDbSymbolTableRecord
100
AcDbRegAppTableRecord
  2
ACAD
 70
     0
  0
APPID
  5
2FF
330
9
100
AcDbSymbolTableRecord
100
AcDbRegAppTableRecord
  2
ACAD_MLEADERVER
 70
     0
  0
ENDTAB
  0
TABLE
  2
DIMSTYLE
  5
A
330
0
100
AcDbSymbolTable
 70
     7
100
AcDbDimStyleTable
  0
DIMSTYLE
105
27
330
A
100
AcDbSymbolTableRecord
100
AcDbDimStyleTableRecord
  2
ISO-25
 70
     0
 41
2.5
 42
0.625
 43
3.75
 44
1.25
 73
     0
 74
     0
 77
     1
 78
     8
140
2.5
141
2.5
143
0.0393700787
147
0.625
171
     3
172
     1
178
     0
271
     2
272
     2
274
     3
278
    44
283
     0
284
     8
340
11
  0
DIMSTYLE
105
197
102
{ACAD_REACTORS
330
196
330
1E5
330
255
330
275
102
}
330
A
100
AcDbSymbolTableRecord
100
AcDbDimStyleTableRecord
  2
SLDDIMSTYLE0
 70
     0
 41
7.0
 44
0.0
 45
0.000000001
 73
     0
 74
     0
 77
     1
 78
    12
 79
     3
140
5.0
147
1.25
173
     1
178
     0
271
     3
272
     3
276
     2
284
    12
340
120
  0
DIMSTYLE
105
1A2
102
{ACAD_REACTORS
330
1A1
330
1AE
330
1BA
330
1EF
330
1FB
330
23F
330
24B
330
25F
330
26B
102
}
330
A
100
AcDbSymbolTableRecord
100
AcDbDimStyleTableRecord
  2
SLDDIMSTYLE1
 70
     0
 41
7.0
 44
0.0
 45
0.000000001
 73
     0
 74
     0
 77
     1
 78
    12
 79
     3
140
5.0
147
1.25
172
     1
173
     1
178
     0
271
     3
272
     3
276
     2
284
    12
289
     0
340
120
  0
DIMSTYLE
105
1DD
102
{ACAD_REACTORS
330
1DC
102
}
330
A
100
AcDbSymbolTableRecord
100
AcDbDimStyleTableRecord
  2
SLDDIMSTYLE2
 70
     0
 41
7.0
 44
0.0
 45
0.000000001
 73
     0
 74
     0
 77
     1
 78
    12
 79
     3
140
5.0
141
0.0
147
1.25
173
     1
178
     0
271
     3
272
     3
276
     2
284
    12
340
120
  0
DIMSTYLE
105
208
102
{ACAD_REACTORS
330
207
102
}
330
A
100
AcDbSymbolTableRecord
100
AcDbDimStyleTableRecord
  2
SLDDIMSTYLE3
 70
     0
 41
7.0
 44
0.0
 45
0.000000001
 78
    12
 79
     3
140
5.0
141
0.0
147
1.25
172
     1
173
     1
178
     0
271
     3
272
     3
276
     2
284
    12
340
120
  0
DIMSTYLE
105
280
102
{ACAD_REACTORS
330
27F
102
}
330
A
100
AcDbSymbolTableRecord
100
AcDbDimStyleTableRecord
  2
SLDDIMSTYLE4
 70
     0
 41
7.0
 44
0.0
 45
0.000000001
 78
    12
 79
     3
140
5.0
141
0.0
147
1.25
172
     1
173
     1
178
     0
271
     6
272
     3
276
     2
284
    12
340
120
  0
DIMSTYLE
105
2EF
330
A
100
AcDbSymbolTableRecord
100
AcDbDimStyleTableRecord
  2
SLDDIMSTYLE5
 70
     0
 41
1.8
 44
0.0
 45
0.000000001
146
1.8
147
0.0
173
     1
178
     0
271
     0
272
     0
276
     2
340
11
341
2F0
343
2F0
344
2F0
  0
ENDTAB
  0
TABLE
  2
BLOCK_RECORD
  5
1
330
0
100
AcDbSymbolTable
 70
    32
  0
BLOCK_RECORD
  5
1F
330
1
100
AcDbSymbolTableRecord
100
AcDbBlockTableRecord
  2
*Model_Space
340
22
  0
BLOCK_RECORD
  5
1B
330
1
100
AcDbSymbolTableRecord
100
AcDbBlockTableRecord
  2
*Paper_Space
340
1E
  0
BLOCK_RECORD
  5
23
330
1
100
AcDbSymbolTableRecord
100
AcDbBlockTableRecord
  2
*Paper_Space0
340
26
  0
BLOCK_RECORD
  5
138
330
1
100
AcDbSymbolTableRecord
100
AcDbBlockTableRecord
  2
SW_NOTE_0
340
0
102
{BLKREFS
331
13D
102
}
  0
BLOCK_RECORD
  5
13E
330
1
100
AcDbSymbolTableRecord
100
AcDbBlockTableRecord
  2
SW_NOTE_0_1
340
0
102
{BLKREFS
331
145
102
}
  0
BLOCK_RECORD
  5
14B
330
1
100
AcDbSymbolTableRecord
100
AcDbBlockTableRecord
  2
SW_NOTE_0_2
340
0
102
{BLKREFS
331
150
102
}
  0
BLOCK_RECORD
  5
156
330
1
100
AcDbSymbolTableRecord
100
AcDbBlockTableRecord
  2
SW_NOTE_0_3
340
0
102
{BLKREFS
331
15B
102
}
  0
BLOCK_RECORD
  5
15C
330
1
100
AcDbSymbolTableRecord
100
AcDbBlockTableRecord
  2
SW_NOTE_0_4
340
0
102
{BLKREFS
331
164
102
}
  0
BLOCK_RECORD
  5
16B
330
1
100
AcDbSymbolTableRecord
100
AcDbBlockTableRecord
  2
SW_NOTE_0_5
340
0
102
{BLKREFS
331
171
102
}
  0
BLOCK_RECORD
  5
17A
330
1
100
AcDbSymbolTableRecord
100
AcDbBlockTableRecord
  2
SW_SFSYMBOL_0
340
0
102
{BLKREFS
331
183
102
}
  0
BLOCK_RECORD
  5
198
330
1
100
AcDbSymbolTableRecord
100
AcDbBlockTableRecord
  2
_D
340
0
  0
BLOCK_RECORD
  5
1A3
330
1
100
AcDbSymbolTableRecord
100
AcDbBlockTableRecord
  2
_D_1
340
0
  0
BLOCK_RECORD
  5
1AF
330
1
100
AcDbSymbolTableRecord
100
AcDbBlockTableRecord
  2
_D_2
340
0
  0
BLOCK_RECORD
  5
1BB
330
1
100
AcDbSymbolTableRecord
100
AcDbBlockTableRecord
  2
_D_3
340
0
  0
BLOCK_RECORD
  5
1DE
330
1
100
AcDbSymbolTableRecord
100
AcDbBlockTableRecord
  2
_D_4
340
0
  0
BLOCK_RECORD
  5
1E6
330
1
100
AcDbSymbolTableRecord
100
AcDbBlockTableRecord
  2
_D_5
340
0
  0
BLOCK_RECORD
  5
1F0
330
1
100
AcDbSymbolTableRecord
100
AcDbBlockTableRecord
  2
_D_6
340
0
  0
BLOCK_RECORD
  5
1FC
330
1
100
AcDbSymbolTableRecord
100
AcDbBlockTableRecord
  2
_D_7
340
0
  0
BLOCK_RECORD
  5
209
330
1
100
AcDbSymbolTableRecord
100
AcDbBlockTableRecord
  2
_D_8
340
0
  0
BLOCK_RECORD
  5
215
330
1
100
AcDbSymbolTableRecord
100
AcDbBlockTableRecord
  2
SW_CENTERMARKSYMBOL_0
340
0
102
{BLKREFS
331
220
102
}
  0
BLOCK_RECORD
  5
240
330
1
100
AcDbSymbolTableRecord
100
AcDbBlockTableRecord
  2
_D_9
340
0
  0
BLOCK_RECORD
  5
24C
330
1
100
AcDbSymbolTableRecord
100
AcDbBlockTableRecord
  2
_D_10
340
0
  0
BLOCK_RECORD
  5
256
330
1
100
AcDbSymbolTableRecord
100
AcDbBlockTableRecord
  2
_D_11
340
0
  0
BLOCK_RECORD
  5
260
330
1
100
AcDbSymbolTableRecord
100
AcDbBlockTableRecord
  2
_D_12
340
0
  0
BLOCK_RECORD
  5
26C
330
1
100
AcDbSymbolTableRecord
100
AcDbBlockTableRecord
  2
_D_13
340
0
  0
BLOCK_RECORD
  5
276
330
1
100
AcDbSymbolTableRecord
100
AcDbBlockTableRecord
  2
_D_14
340
0
  0
BLOCK_RECORD
  5
281
330
1
100
AcDbSymbolTableRecord
100
AcDbBlockTableRecord
  2
_D_15
340
0
  0
BLOCK_RECORD
  5
28D
330
1
100
AcDbSymbolTableRecord
100
AcDbBlockTableRecord
  2
SW_SYMBOL_HOLE_DEPTH
340
0
102
{BLKREFS
331
294
331
297
102
}
  0
BLOCK_RECORD
  5
299
330
1
100
AcDbSymbolTableRecord
100
AcDbBlockTableRecord
  2
SW_CENTERMARKSYMBOL_1
340
0
102
{BLKREFS
331
2A4
102
}
  0
BLOCK_RECORD
  5
2A5
330
1
100
AcDbSymbolTableRecord
100
AcDbBlockTableRecord
  2
SW_CENTERMARKSYMBOL_2
340
0
102
{BLKREFS
331
2B0
102
}
  0
BLOCK_RECORD
  5
2B1
330
1
100
AcDbSymbolTableRecord
100
AcDbBlockTableRecord
  2
SW_CENTERMARKSYMBOL_3
340
0
102
{BLKREFS
331
2BC
102
}
  0
BLOCK_RECORD
  5
2BD
330
1
100
AcDbSymbolTableRecord
100
AcDbBlockTableRecord
  2
SW_CENTERMARKSYMBOL_4
340
0
102
{BLKREFS
331
2C8
102
}
  0
BLOCK_RECORD
  5
2E9
330
1
100
AcDbSymbolTableRecord
100
AcDbBlockTableRecord
  2
SW_NOTE_0_6
340
0
102
{BLKREFS
331
2EE
102
}
  0
BLOCK_RECORD
  5
2F0
330
1
100
AcDbSymbolTableRecord
100
AcDbBlockTableRecord
  2
_Dot
340
0
  0
ENDTAB
  0
ENDSEC
  0
SECTION
  2
BLOCKS
  0
BLOCK
  5
20
330
1F
100
AcDbEntity
  8
0
100
AcDbBlockBegin
  2
*Model_Space
 70
     0
 10
0.0
 20
0.0
 30
0.0
  3
*Model_Space
  1

  0
ENDBLK
  5
21
330
1F
100
AcDbEntity
  8
0
100
AcDbBlockEnd
  0
BLOCK
  5
1C
330
1B
100
AcDbEntity
 67
     1
  8
0
100
AcDbBlockBegin
  2
*Paper_Space
 70
     0
 10
0.0
 20
0.0
 30
0.0
  3
*Paper_Space
  1

  0
ENDBLK
  5
1D
330
1B
100
AcDbEntity
 67
     1
  8
0
100
AcDbBlockEnd
  0
BLOCK
  5
24
330
23
100
AcDbEntity
  8
0
100
AcDbBlockBegin
  2
*Paper_Space0
 70
     0
 10
0.0
 20
0.0
 30
0.0
  3
*Paper_Space0
  1

  0
ENDBLK
  5
25
330
23
100
AcDbEntity
  8
0
100
AcDbBlockEnd
  0
BLOCK
  5
139
330
138
100
AcDbEntity
  8
0
100
AcDbBlockBegin
  2
SW_NOTE_0
 70
     0
 10
0.0
 20
0.0
 30
0.0
  3
SW_NOTE_0
  1

  0
MTEXT
  5
13B
330
138
100
AcDbEntity
  8
SLD-0
 62
     0
100
AcDbMText
 10
22.32421875
 20
4.0927900738
 30
0.0
 40
3.175
 41
0.0
 71
     2
 72
     1
  1
General tolerances to
  7
SLDTEXTSTYLE0
 73
     1
 44
1.0
  0
MTEXT
  5
13C
330
138
100
AcDbEntity
  8
SLD-0
 62
     0
100
AcDbMText
 10
22.0831585467
 20
-0.1405432084
 30
0.0
 40
3.175
 41
0.0
 71
     2
 72
     1
  1
ISO 2768-1mK, ISO 13920A
  7
SLDTEXTSTYLE0
 73
     1
 44
1.0
  0
ENDBLK
  5
13A
330
138
100
AcDbEntity
  8
0
100
AcDbBlockEnd
  0
BLOCK
  5
13F
330
13E
100
AcDbEntity
  8
0
100
AcDbBlockBegin
  2
SW_NOTE_0_1
 70
     0
 10
0.0
 20
0.0
 30
0.0
  3
SW_NOTE_0_1
  1

  0
MTEXT
  5
141
330
13E
100
AcDbEntity
  8
SLD-0
 62
     0
100
AcDbMText
 10
34.82578125
 20
4.0927900738
 30
0.0
 40
3.175
 41
0.0
 71
     3
 72
     1
  1
Gewerbestraﬂe 6
  7
SLDTEXTSTYLE0
 73
     1
 44
1.0
  0
MTEXT
  5
142
330
13E
100
AcDbEntity
  8
SLD-0
 62
     0
100
AcDbMText
 10
34.705251503
 20
-2.1405430706
 30
0.0
 40
3.175
 41
0.0
 71
     3
 72
     1
  1
A-4551 Ried im Traunkreis
  7
SLDTEXTSTYLE0
 73
     1
 44
1.0
  0
MTEXT
  5
143
330
13E
100
AcDbEntity
  8
SLD-0
 62
     0
100
AcDbMText
 10
34.8419517338
 20
-8.3738762149
 30
0.0
 40
3.175
 41
0.0
 71
     3
 72
     1
  1
office@gtech.at
  7
SLDTEXTSTYLE0
 73
     1
 44
1.0
  0
MTEXT
  5
144
330
13E
100
AcDbEntity
  8
SLD-0
 62
     0
100
AcDbMText
 10
34.0584945858
 20
-18.0183205483
 30
0.0
 40
3.175
 41
0.0
 71
     3
 72
     1
  1
GTech Automatisierungstechnik GmbH
  7
SLDTEXTSTYLE0
 73
     1
 44
1.0
  0
ENDBLK
  5
140
330
13E
100
AcDbEntity
  8
0
100
AcDbBlockEnd
  0
BLOCK
  5
14C
330
14B
100
AcDbEntity
  8
0
100
AcDbBlockBegin
  2
SW_NOTE_0_2
 70
     0
 10
0.0
 20
0.0
 30
0.0
  3
SW_NOTE_0_2
  1

  0
MTEXT
  5
14E
330
14B
100
AcDbEntity
  8
SLD-0
 62
     0
100
AcDbMText
 10
0.0
 20
4.0927900738
 30
0.0
 40
3.175
 41
0.0
 71
     1
 72
     1
  1
Surface treatment:
  7
SLDTEXTSTYLE0
 73
     1
 44
1.0
  0
MTEXT
  5
14F
330
14B
100
AcDbEntity
  8
SLD-0
 62
     0
100
AcDbMText
 10
0.0
 20
-0.1405432084
 30
0.0
 40
3.175
 41
0.0
 71
     1
 72
     1
  1
Gas nitriding to (Gasnitrieren auf) 700+/- 100HV,case depth about (H‰rtetiefe ca.) 0,2mm
  7
SLDTEXTSTYLE0
 73
     1
 44
1.0
  0
ENDBLK
  5
14D
330
14B
100
AcDbEntity
  8
0
100
AcDbBlockEnd
  0
BLOCK
  5
157
330
156
100
AcDbEntity
  8
0
100
AcDbBlockBegin
  2
SW_NOTE_0_3
 70
     0
 10
0.0
 20
0.0
 30
0.0
  3
SW_NOTE_0_3
  1

  0
MTEXT
  5
159
330
156
100
AcDbEntity
  8
SLD-0
 62
     0
100
AcDbMText
 10
8.4087890625
 20
6.1391851107
 30
0.0
 40
4.7625
 41
0.0
 71
     2
 72
     1
  1
Scale
  7
SLDTEXTSTYLE0
 73
     1
 44
1.0
  0
MTEXT
  5
15A
330
156
100
AcDbEntity
  8
SLD-0
 62
     0
100
AcDbMText
 10
8.351462426
 20
-0.2108145798
 30
0.0
 40
4.7625
 41
0.0
 71
     2
 72
     1
  1
1:2
  7
SLDTEXTSTYLE0
 73
     1
 44
1.0
  0
ENDBLK
  5
158
330
156
100
AcDbEntity
  8
0
100
AcDbBlockEnd
  0
BLOCK
  5
15D
330
15C
100
AcDbEntity
  8
0
100
AcDbBlockBegin
  2
SW_NOTE_0_4
 70
     0
 10
0.0
 20
0.0
 30
0.0
  3
SW_NOTE_0_4
  1

  0
MTEXT
  5
15F
330
15C
100
AcDbEntity
  8
SLD-0
 62
     0
100
AcDbMText
 10
1.2815755208
 20
3.4106583948
 30
0.0
 40
2.6458333333
 41
0.0
 71
     2
 72
     1
  1
©
  7
SLDTEXTSTYLE0
 73
     1
 44
1.0
  0
MTEXT
  5
160
330
15C
100
AcDbEntity
  8
SLD-0
 62
     0
100
AcDbMText
 10
49.6651091234
 20
3.4106583948
 30
0.0
 40
2.6458333333
 41
0.0
 71
     2
 72
     1
  1
THE INFORMATION CONTAINED IN THIS DRAWING IS THE
  7
SLDTEXTSTYLE0
 73
     1
 44
1.0
  0
MTEXT
  5
161
330
15C
100
AcDbEntity
  8
SLD-0
 62
     0
100
AcDbMText
 10
47.6626669566
 20
-0.1171193403
 30
0.0
 40
2.6458333333
 41
0.0
 71
     2
 72
     1
  1
SOLE PROPERTY OF GTECH.  ANY REPRODUCTION IN PART
  7
SLDTEXTSTYLE0
 73
     1
 44
1.0
  0
MTEXT
  5
162
330
15C
100
AcDbEntity
  8
SLD-0
 62
     0
100
AcDbMText
 10
47.9214339852
 20
-3.6448970755
 30
0.0
 40
2.6458333333
 41
0.0
 71
     2
 72
     1
  1
OR AS A WHOLE WITHOUT THE WRITTEN PERMISSION OF
  7
SLDTEXTSTYLE0
 73
     1
 44
1.0
  0
MTEXT
  5
163
330
15C
100
AcDbEntity
  8
SLD-0
 62
     0
100
AcDbMText
 10
48.2295016398
 20
-7.1726748106
 30
0.0
 40
2.6458333333
 41
0.0
 71
     2
 72
     1
  1
GTECH IS PROHIBITED.
  7
SLDTEXTSTYLE0
 73
     1
 44
1.0
  0
ENDBLK
  5
15E
330
15C
100
AcDbEntity
  8
0
100
AcDbBlockEnd
  0
BLOCK
  5
16C
330
16B
100
AcDbEntity
  8
0
100
AcDbBlockBegin
  2
SW_NOTE_0_5
 70
     0
 10
0.0
 20
0.0
 30
0.0
  3
SW_NOTE_0_5
  1

  0
MTEXT
  5
16E
330
16B
100
AcDbEntity
  8
SLD-0
 62
     0
100
AcDbMText
 10
8.5576171875
 20
6.1391851107
 30
0.0
 40
4.7625
 41
0.0
 71
     2
 72
     1
  1
Sheet
  7
SLDTEXTSTYLE0
 73
     1
 44
1.0
  0
MTEXT
  5
170
330
16B
100
AcDbEntity
  8
SLD-0
 62
     0
100
AcDbMText
 10
8.7940874726
 20
-0.2108145798
 30
0.0
 40
4.7625
 41
0.0
 71
     2
 72
     1
  1
1 of 1
  7
SLDTEXTSTYLE2
 73
     1
 44
1.0
  0
ENDBLK
  5
16D
330
16B
100
AcDbEntity
  8
0
100
AcDbBlockEnd
  0
BLOCK
  5
17B
330
17A
100
AcDbEntity
  8
0
100
AcDbBlockBegin
  2
SW_SFSYMBOL_0
 70
     0
 10
0.0
 20
0.0
 30
0.0
  3
SW_SFSYMBOL_0
  1

  0
LINE
  5
17D
330
17A
100
AcDbEntity
  8
SLD-0
 62
     0
100
AcDbLine
 10
-9.35
 20
-7.1425003492
 30
0.0
 11
-13.5635
 21
-0.0000003492
 31
0.0
  0
LINE
  5
17E
330
17A
100
AcDbEntity
  8
SLD-0
 62
     0
100
AcDbLine
 10
-5.1365
 20
-0.0000003492
 30
0.0
 11
-13.5635
 21
-0.0000003492
 31
0.0
  0
LINE
  5
17F
330
17A
100
AcDbEntity
  8
SLD-0
 62
     0
100
AcDbLine
 10
-9.35
 20
-7.1425003492
 30
0.0
 11
-0.923
 21
7.1424996508
 31
0.0
  0
LINE
  5
180
330
17A
100
AcDbEntity
  8
SLD-0
 62
     0
100
AcDbLine
 10
-0.923
 20
7.1424996508
 30
0.0
 11
21.5345576282
 21
7.1424996508
 31
0.0
  0
MTEXT
  5
182
330
17A
100
AcDbEntity
  8
SLD-0
 62
     0
100
AcDbMText
 10
0.0
 20
6.4453386989
 30
0.0
 40
5.0
 41
0.0
 71
     1
 72
     1
  1
Ra  3,2
  7
SLDTEXTSTYLE3
 73
     1
 44
1.0
  0
ENDBLK
  5
17C
330
17A
100
AcDbEntity
  8
0
100
AcDbBlockEnd
  0
BLOCK
  5
199
330
198
100
AcDbEntity
  8
0
100
AcDbBlockBegin
  2
_D
 70
     0
 10
0.0
 20
0.0
 30
0.0
  3
_D
  1

  0
SOLID
  5
19B
330
198
100
AcDbEntity
  8
SLD-0
100
AcDbTrace
 10
93.5966421826
 20
291.3086044071
 30
0.0
 11
94.4966421826
 21
298.3086044071
 31
0.0
 12
92.6966421826
 22
298.3086044071
 32
0.0
 13
92.6966421826
 23
298.3086044071
 33
0.0
  0
SOLID
  5
19C
330
198
100
AcDbEntity
  8
SLD-0
100
AcDbTrace
 10
93.5966421826
 20
350.3086044071
 30
0.0
 11
92.6966421826
 21
343.3086044071
 31
0.0
 12
94.4966421826
 22
343.3086044071
 32
0.0
 13
94.4966421826
 23
343.3086044071
 33
0.0
  0
LINE
  5
19D
330
198
100
AcDbEntity
  8
SLD-0
100
AcDbLine
 10
111.5966421826
 20
291.3086044071
 30
0.0
 11
91.5966421826
 21
291.3086044071
 31
0.0
  0
LINE
  5
19E
330
198
100
AcDbEntity
  8
SLD-0
100
AcDbLine
 10
124.0966421826
 20
350.3086044071
 30
0.0
 11
91.5966421826
 21
350.3086044071
 31
0.0
  0
LINE
  5
19F
330
198
100
AcDbEntity
  8
SLD-0
100
AcDbLine
 10
93.5966421826
 20
291.3086044071
 30
0.0
 11
93.5966421826
 21
350.3086044071
 31
0.0
  0
MTEXT
  5
1A0
330
198
100
AcDbEntity
  8
SLD-0
100
AcDbMText
 10
87.1513031345
 20
317.114159978
 30
0.0
 40
5.0
 41
0.0
 71
     1
 72
     1
  1
59
  7
SLDTEXTSTYLE0
 11
6.123233995736766E-17
 21
1.0
 31
0.0
 73
     1
 44
1.0
  0
ENDBLK
  5
19A
330
198
100
AcDbEntity
  8
0
100
AcDbBlockEnd
  0
BLOCK
  5
1A4
330
1A3
100
AcDbEntity
  8
0
100
AcDbBlockBegin
  2
_D_1
 70
     0
 10
0.0
 20
0.0
 30
0.0
  3
_D_1
  1

  0
SOLID
  5
1A6
330
1A3
100
AcDbEntity
  8
SLD-0
100
AcDbTrace
 10
113.5966421826
 20
271.3086044071
 30
0.0
 11
106.5966421826
 21
272.2086044071
 31
0.0
 12
106.5966421826
 22
270.4086044071
 32
0.0
 13
106.5966421826
 23
270.4086044071
 33
0.0
  0
SOLID
  5
1A7
330
1A3
100
AcDbEntity
  8
SLD-0
100
AcDbTrace
 10
126.0966421826
 20
271.3086044071
 30
0.0
 11
133.0966421826
 21
270.4086044071
 31
0.0
 12
133.0966421826
 22
272.2086044071
 32
0.0
 13
133.0966421826
 23
272.2086044071
 33
0.0
  0
LINE
  5
1A8
330
1A3
100
AcDbEntity
  8
SLD-0
100
AcDbLine
 10
113.5966421826
 20
289.3086044071
 30
0.0
 11
113.5966421826
 21
269.3086044071
 31
0.0
  0
LINE
  5
1A9
330
1A3
100
AcDbEntity
  8
SLD-0
100
AcDbLine
 10
126.0966421826
 20
299.3086044071
 30
0.0
 11
126.0966421826
 21
269.3086044071
 31
0.0
  0
LINE
  5
1AA
330
1A3
100
AcDbEntity
  8
SLD-0
100
AcDbLine
 10
113.5966421826
 20
271.3086044071
 30
0.0
 11
84.9716420187
 21
271.3086044071
 31
0.0
  0
LINE
  5
1AB
330
1A3
100
AcDbEntity
  8
SLD-0
100
AcDbLine
 10
113.5966421826
 20
271.3086044071
 30
0.0
 11
126.0966421826
 21
271.3086044071
 31
0.0
  0
LINE
  5
1AC
330
1A3
100
AcDbEntity
  8
SLD-0
100
AcDbLine
 10
126.0966421826
 20
271.3086044071
 30
0.0
 11
138.0966421826
 21
271.3086044071
 31
0.0
  0
MTEXT
  5
1AD
330
1A3
100
AcDbEntity
  8
SLD-0
100
AcDbMText
 10
84.9716420187
 20
277.7539434552
 30
0.0
 40
5.0
 41
0.0
 71
     1
 72
     1
  1
12,5
  7
SLDTEXTSTYLE0
 73
     1
 44
1.0
  0
ENDBLK
  5
1A5
330
1A3
100
AcDbEntity
  8
0
100
AcDbBlockEnd
  0
BLOCK
  5
1B0
330
1AF
100
AcDbEntity
  8
0
100
AcDbBlockBegin
  2
_D_2
 70
     0
 10
0.0
 20
0.0
 30
0.0
  3
_D_2
  1

  0
SOLID
  5
1B2
330
1AF
100
AcDbEntity
  8
SLD-0
100
AcDbTrace
 10
153.5966421826
 20
259.3086044071
 30
0.0
 11
160.5966421826
 21
258.4086044071
 31
0.0
 12
160.5966421826
 22
260.2086044071
 32
0.0
 13
160.5966421826
 23
260.2086044071
 33
0.0
  0
SOLID
  5
1B3
330
1AF
100
AcDbEntity
  8
SLD-0
100
AcDbTrace
 10
141.0966421826
 20
259.3086044071
 30
0.0
 11
134.0966421826
 21
260.2086044071
 31
0.0
 12
134.0966421826
 22
258.4086044071
 32
0.0
 13
134.0966421826
 23
258.4086044071
 33
0.0
  0
LINE
  5
1B4
330
1AF
100
AcDbEntity
  8
SLD-0
100
AcDbLine
 10
153.5966421826
 20
289.3086044071
 30
0.0
 11
153.5966421826
 21
257.3086044071
 31
0.0
  0
LINE
  5
1B5
330
1AF
100
AcDbEntity
  8
SLD-0
100
AcDbLine
 10
141.0966421826
 20
299.3086044071
 30
0.0
 11
141.0966421826
 21
257.3086044071
 31
0.0
  0
LINE
  5
1B6
330
1AF
100
AcDbEntity
  8
SLD-0
100
AcDbLine
 10
153.5966421826
 20
259.3086044071
 30
0.0
 11
180.0619198171
 21
259.3086044071
 31
0.0
  0
LINE
  5
1B7
330
1AF
100
AcDbEntity
  8
SLD-0
100
AcDbLine
 10
153.5966421826
 20
259.3086044071
 30
0.0
 11
141.0966421826
 21
259.3086044071
 31
0.0
  0
LINE
  5
1B8
330
1AF
100
AcDbEntity
  8
SLD-0
100
AcDbLine
 10
141.0966421826
 20
259.3086044071
 30
0.0
 11
129.0966421826
 21
259.3086044071
 31
0.0
  0
MTEXT
  5
1B9
330
1AF
100
AcDbEntity
  8
SLD-0
100
AcDbMText
 10
167.131364548
 20
265.7539434552
 30
0.0
 40
5.0
 41
0.0
 71
     1
 72
     1
  1
12,5
  7
SLDTEXTSTYLE0
 73
     1
 44
1.0
  0
ENDBLK
  5
1B1
330
1AF
100
AcDbEntity
  8
0
100
AcDbBlockEnd
  0
BLOCK
  5
1BC
330
1BB
100
AcDbEntity
  8
0
100
AcDbBlockBegin
  2
_D_3
 70
     0
 10
0.0
 20
0.0
 30
0.0
  3
_D_3
  1

  0
SOLID
  5
1BE
330
1BB
100
AcDbEntity
  8
SLD-0
100
AcDbTrace
 10
197.5966421826
 20
301.3086044071
 30
0.0
 11
198.4966421826
 21
308.3086044071
 31
0.0
 12
196.6966421826
 22
308.3086044071
 32
0.0
 13
196.6966421826
 23
308.3086044071
 33
0.0
  0
SOLID
  5
1BF
330
1BB
100
AcDbEntity
  8
SLD-0
100
AcDbTrace
 10
197.5966421826
 20
291.3086044071
 30
0.0
 11
196.6966421826
 21
284.3086044071
 31
0.0
 12
198.4966421826
 22
284.3086044071
 32
0.0
 13
198.4966421826
 23
284.3086044071
 33
0.0
  0
LINE
  5
1C0
330
1BB
100
AcDbEntity
  8
SLD-0
100
AcDbLine
 10
155.5966421826
 20
301.3086044071
 30
0.0
 11
199.5966421826
 21
301.3086044071
 31
0.0
  0
LINE
  5
1C1
330
1BB
100
AcDbEntity
  8
SLD-0
100
AcDbLine
 10
155.5966421826
 20
291.3086044071
 30
0.0
 11
199.5966421826
 21
291.3086044071
 31
0.0
  0
LINE
  5
1C2
330
1BB
100
AcDbEntity
  8
SLD-0
100
AcDbLine
 10
197.5966421826
 20
301.3086044071
 30
0.0
 11
197.5966421826
 21
313.3086044071
 31
0.0
  0
LINE
  5
1C3
330
1BB
100
AcDbEntity
  8
SLD-0
100
AcDbLine
 10
197.5966421826
 20
301.3086044071
 30
0.0
 11
197.5966421826
 21
291.3086044071
 31
0.0
  0
LINE
  5
1C4
330
1BB
100
AcDbEntity
  8
SLD-0
100
AcDbLine
 10
197.5966421826
 20
291.3086044071
 30
0.0
 11
197.5966421826
 21
270.0724935671
 31
0.0
  0
MTEXT
  5
1C5
330
1BB
100
AcDbEntity
  8
SLD-0
100
AcDbMText
 10
191.1513031345
 20
270.0724935671
 30
0.0
 40
5.0
 41
0.0
 71
     1
 72
     1
  1
10
  7
SLDTEXTSTYLE0
 11
-7.044195017643634E-15
 21
1.0
 31
0.0
 73
     1
 44
1.0
  0
ENDBLK
  5
1BD
330
1BB
100
AcDbEntity
  8
0
100
AcDbBlockEnd
  0
BLOCK
  5
1DF
330
1DE
100
AcDbEntity
  8
0
100
AcDbBlockBegin
  2
_D_4
 70
     0
 10
0.0
 20
0.0
 30
0.0
  3
_D_4
  1

  0
SOLID
  5
1E1
330
1DE
100
AcDbEntity
  8
SLD-0
100
AcDbTrace
 10
332.4148043682
 20
345.9152061249
 30
0.0
 11
328.101453003
 21
351.5013496963
 31
0.0
 12
326.8286607969
 22
350.2285574902
 32
0.0
 13
326.8286607969
 23
350.2285574902
 33
0.0
  0
LINE
  5
1E2
330
1DE
100
AcDbEntity
  8
SLD-0
100
AcDbLine
 10
332.4148043682
 20
345.9152061249
 30
0.0
 11
304.0896066126
 21
374.2404038805
 31
0.0
  0
LINE
  5
1E3
330
1DE
100
AcDbEntity
  8
SLD-0
100
AcDbLine
 10
332.4148043682
 20
345.9152061249
 30
0.0
 11
343.021406086
 21
335.3086044071
 31
0.0
  0
MTEXT
  5
1E4
330
1DE
100
AcDbEntity
  8
SLD-0
100
AcDbMText
 10
308.6381719185
 20
378.7889691864
 30
0.0
 40
5.0
 41
0.0
 71
     1
 72
     1
  1
R15
  7
SLDTEXTSTYLE0
 11
0.7071067811865426
 21
-0.7071067811865526
 31
0.0
 73
     1
 44
1.0
  0
ENDBLK
  5
1E0
330
1DE
100
AcDbEntity
  8
0
100
AcDbBlockEnd
  0
BLOCK
  5
1E7
330
1E6
100
AcDbEntity
  8
0
100
AcDbBlockBegin
  2
_D_5
 70
     0
 10
0.0
 20
0.0
 30
0.0
  3
_D_5
  1

  0
SOLID
  5
1E9
330
1E6
100
AcDbEntity
  8
SLD-0
100
AcDbTrace
 10
368.021406086
 20
259.3086044071
 30
0.0
 11
361.021406086
 21
260.2086044071
 31
0.0
 12
361.021406086
 22
258.4086044071
 32
0.0
 13
361.021406086
 23
258.4086044071
 33
0.0
  0
SOLID
  5
1EA
330
1E6
100
AcDbEntity
  8
SLD-0
100
AcDbTrace
 10
328.021406086
 20
259.3086044071
 30
0.0
 11
335.021406086
 21
258.4086044071
 31
0.0
 12
335.021406086
 22
260.2086044071
 32
0.0
 13
335.021406086
 23
260.2086044071
 33
0.0
  0
LINE
  5
1EB
330
1E6
100
AcDbEntity
  8
SLD-0
100
AcDbLine
 10
368.021406086
 20
289.3086044071
 30
0.0
 11
368.021406086
 21
257.3086044071
 31
0.0
  0
LINE
  5
1EC
330
1E6
100
AcDbEntity
  8
SLD-0
100
AcDbLine
 10
328.021406086
 20
289.3086044071
 30
0.0
 11
328.021406086
 21
257.3086044071
 31
0.0
  0
LINE
  5
1ED
330
1E6
100
AcDbEntity
  8
SLD-0
100
AcDbLine
 10
368.021406086
 20
259.3086044071
 30
0.0
 11
328.021406086
 21
259.3086044071
 31
0.0
  0
MTEXT
  5
1EE
330
1E6
100
AcDbEntity
  8
SLD-0
100
AcDbMText
 10
344.3269616569
 20
265.7539434552
 30
0.0
 40
5.0
 41
0.0
 71
     1
 72
     1
  1
40
  7
SLDTEXTSTYLE0
 73
     1
 44
1.0
  0
ENDBLK
  5
1E8
330
1E6
100
AcDbEntity
  8
0
100
AcDbBlockEnd
  0
BLOCK
  5
1F1
330
1F0
100
AcDbEntity
  8
0
100
AcDbBlockBegin
  2
_D_6
 70
     0
 10
0.0
 20
0.0
 30
0.0
  3
_D_6
  1

  0
SOLID
  5
1F3
330
1F0
100
AcDbEntity
  8
SLD-0
100
AcDbTrace
 10
328.021406086
 20
271.3086044071
 30
0.0
 11
321.021406086
 21
272.2086044071
 31
0.0
 12
321.021406086
 22
270.4086044071
 32
0.0
 13
321.021406086
 23
270.4086044071
 33
0.0
  0
SOLID
  5
1F4
330
1F0
100
AcDbEntity
  8
SLD-0
100
AcDbTrace
 10
348.021406086
 20
271.3086044071
 30
0.0
 11
355.021406086
 21
270.4086044071
 31
0.0
 12
355.021406086
 22
272.2086044071
 32
0.0
 13
355.021406086
 23
272.2086044071
 33
0.0
  0
LINE
  5
1F5
330
1F0
100
AcDbEntity
  8
SLD-0
100
AcDbLine
 10
328.021406086
 20
289.3086044071
 30
0.0
 11
328.021406086
 21
269.3086044071
 31
0.0
  0
LINE
  5
1F6
330
1F0
100
AcDbEntity
  8
SLD-0
100
AcDbLine
 10
348.021406086
 20
319.8652801691
 30
0.0
 11
348.021406086
 21
269.3086044071
 31
0.0
  0
LINE
  5
1F7
330
1F0
100
AcDbEntity
  8
SLD-0
100
AcDbLine
 10
328.021406086
 20
271.3086044071
 30
0.0
 11
316.021406086
 21
271.3086044071
 31
0.0
  0
LINE
  5
1F8
330
1F0
100
AcDbEntity
  8
SLD-0
100
AcDbLine
 10
328.021406086
 20
271.3086044071
 30
0.0
 11
348.021406086
 21
271.3086044071
 31
0.0
  0
LINE
  5
1F9
330
1F0
100
AcDbEntity
  8
SLD-0
100
AcDbLine
 10
348.021406086
 20
271.3086044071
 30
0.0
 11
360.021406086
 21
271.3086044071
 31
0.0
  0
MTEXT
  5
1FA
330
1F0
100
AcDbEntity
  8
SLD-0
100
AcDbMText
 10
334.3269616569
 20
277.7539434552
 30
0.0
 40
5.0
 41
0.0
 71
     1
 72
     1
  1
20
  7
SLDTEXTSTYLE0
 73
     1
 44
1.0
  0
ENDBLK
  5
1F2
330
1F0
100
AcDbEntity
  8
0
100
AcDbBlockEnd
  0
BLOCK
  5
1FD
330
1FC
100
AcDbEntity
  8
0
100
AcDbBlockBegin
  2
_D_7
 70
     0
 10
0.0
 20
0.0
 30
0.0
  3
_D_7
  1

  0
SOLID
  5
1FF
330
1FC
100
AcDbEntity
  8
SLD-0
100
AcDbTrace
 10
388.021406086
 20
291.3086044071
 30
0.0
 11
387.121406086
 21
284.3086044071
 31
0.0
 12
388.921406086
 22
284.3086044071
 32
0.0
 13
388.921406086
 23
284.3086044071
 33
0.0
  0
SOLID
  5
200
330
1FC
100
AcDbEntity
  8
SLD-0
100
AcDbTrace
 10
388.021406086
 20
334.8652801691
 30
0.0
 11
388.921406086
 21
341.8652801691
 31
0.0
 12
387.121406086
 22
341.8652801691
 32
0.0
 13
387.121406086
 23
341.8652801691
 33
0.0
  0
LINE
  5
201
330
1FC
100
AcDbEntity
  8
SLD-0
100
AcDbLine
 10
370.021406086
 20
291.3086044071
 30
0.0
 11
390.021406086
 21
291.3086044071
 31
0.0
  0
LINE
  5
202
330
1FC
100
AcDbEntity
  8
SLD-0
100
AcDbLine
 10
363.021406086
 20
334.8652801691
 30
0.0
 11
390.021406086
 21
334.8652801691
 31
0.0
  0
LINE
  5
203
330
1FC
100
AcDbEntity
  8
SLD-0
100
AcDbLine
 10
388.021406086
 20
291.3086044071
 30
0.0
 11
388.021406086
 21
279.3086044071
 31
0.0
  0
LINE
  5
204
330
1FC
100
AcDbEntity
  8
SLD-0
100
AcDbLine
 10
388.021406086
 20
291.3086044071
 30
0.0
 11
388.021406086
 21
334.8652801691
 31
0.0
  0
LINE
  5
205
330
1FC
100
AcDbEntity
  8
SLD-0
100
AcDbLine
 10
388.021406086
 20
334.8652801691
 30
0.0
 11
388.021406086
 21
346.8652801691
 31
0.0
  0
MTEXT
  5
206
330
1FC
100
AcDbEntity
  8
SLD-0
100
AcDbMText
 10
381.5760670379
 20
302.9272197588
 30
0.0
 40
5.0
 41
0.0
 71
     1
 72
     1
  1
43,557
  7
SLDTEXTSTYLE0
 11
6.123233995736766E-17
 21
1.0
 31
0.0
 73
     1
 44
1.0
  0
ENDBLK
  5
1FE
330
1FC
100
AcDbEntity
  8
0
100
AcDbBlockEnd
  0
BLOCK
  5
20A
330
209
100
AcDbEntity
  8
0
100
AcDbBlockBegin
  2
_D_8
 70
     0
 10
0.0
 20
0.0
 30
0.0
  3
_D_8
  1

  0
SOLID
  5
20C
330
209
100
AcDbEntity
  8
SLD-0
100
AcDbTrace
 10
341.2372278861
 20
326.8512346145
 30
0.0
 11
336.027524229
 21
322.0900385667
 31
0.0
 12
337.4013606098
 22
320.9270365895
 32
0.0
 13
337.4013606098
 23
320.9270365895
 33
0.0
  0
SOLID
  5
20D
330
209
100
AcDbEntity
  8
SLD-0
100
AcDbTrace
 10
354.805584286
 20
342.8793257237
 30
0.0
 11
360.015287943
 21
347.6405217715
 31
0.0
 12
358.6414515623
 22
348.8035237486
 32
0.0
 13
358.6414515623
 23
348.8035237486
 33
0.0
  0
LINE
  5
20E
330
209
100
AcDbEntity
  8
SLD-0
100
AcDbLine
 10
341.2372278861
 20
326.8512346145
 30
0.0
 11
333.4838813718
 21
317.6923254092
 31
0.0
  0
LINE
  5
20F
330
209
100
AcDbEntity
  8
SLD-0
100
AcDbLine
 10
354.805584286
 20
342.8793257237
 30
0.0
 11
380.4441797685
 21
373.1658049546
 31
0.0
  0
LINE
  5
210
330
209
100
AcDbEntity
  8
SLD-0
100
AcDbLine
 10
341.2372278861
 20
326.8512346145
 30
0.0
 11
354.805584286
 21
342.8793257237
 31
0.0
  0
LINE
  5
211
330
209
100
AcDbEntity
  8
SLD-0
100
AcDbLine
 10
380.4441797685
 20
373.1658049546
 30
0.0
 11
443.173689587
 21
373.1658049546
 31
0.0
  0
MTEXT
  5
212
330
209
100
AcDbEntity
  8
SLD-0
100
AcDbMText
 10
383.6191797685
 20
379.6111436535
 30
0.0
 40
5.0
 41
0.0
 71
     1
 72
     1
  1
%%c
  7
SLDTEXTSTYLE0
 73
     1
 44
1.0
  0
MTEXT
  5
213
330
209
100
AcDbEntity
  8
SLD-0
100
AcDbMText
 10
391.1598048228
 20
379.6875324773
 30
0.0
 40
5.0
 41
0.0
 71
     1
 72
     1
  1
21
  7
SLDTEXTSTYLE0
 73
     1
 44
1.0
  0
MTEXT
  5
214
330
209
100
AcDbEntity
  8
SLD-0
100
AcDbMText
 10
400.4236941468
 20
379.6875324773
 30
0.0
 40
5.0
 41
0.0
 71
     1
 72
     1
  1
Durchbohren
  7
SLDTEXTSTYLE0
 73
     1
 44
1.0
  0
ENDBLK
  5
20B
330
209
100
AcDbEntity
  8
0
100
AcDbBlockEnd
  0
BLOCK
  5
216
330
215
100
AcDbEntity
  8
0
100
AcDbBlockBegin
  2
SW_CENTERMARKSYMBOL_0
 70
     0
 10
0.0
 20
0.0
 30
0.0
  3
SW_CENTERMARKSYMBOL_0
  1

  0
LINE
  5
218
330
215
100
AcDbEntity
  8
SLD-0
 62
     0
100
AcDbLine
 10
0.0
 20
0.0
 30
0.0
 11
0.0
 21
2.5
 31
0.0
  0
LINE
  5
219
330
215
100
AcDbEntity
  8
SLD-0
 62
     0
100
AcDbLine
 10
0.0
 20
0.0
 30
0.0
 11
-2.5
 21
0.0
 31
0.0
  0
LINE
  5
21A
330
215
100
AcDbEntity
  8
SLD-0
 62
     0
100
AcDbLine
 10
0.0
 20
0.0
 30
0.0
 11
0.0
 21
-2.5
 31
0.0
  0
LINE
  5
21B
330
215
100
AcDbEntity
  8
SLD-0
 62
     0
100
AcDbLine
 10
0.0
 20
0.0
 30
0.0
 11
2.5
 21
0.0
 31
0.0
  0
LINE
  5
21C
330
215
100
AcDbEntity
  8
SLD-0
 62
     0
100
AcDbLine
 10
0.0
 20
5.0
 30
0.0
 11
0.0
 21
13.0
 31
0.0
  0
LINE
  5
21D
330
215
100
AcDbEntity
  8
SLD-0
 62
     0
100
AcDbLine
 10
-5.0
 20
0.0
 30
0.0
 11
-13.0
 21
0.0
 31
0.0
  0
LINE
  5
21E
330
215
100
AcDbEntity
  8
SLD-0
 62
     0
100
AcDbLine
 10
0.0
 20
-5.0
 30
0.0
 11
0.0
 21
-13.0
 31
0.0
  0
LINE
  5
21F
330
215
100
AcDbEntity
  8
SLD-0
 62
     0
100
AcDbLine
 10
5.0
 20
0.0
 30
0.0
 11
13.0
 21
0.0
 31
0.0
  0
ENDBLK
  5
217
330
215
100
AcDbEntity
  8
0
100
AcDbBlockEnd
  0
BLOCK
  5
241
330
240
100
AcDbEntity
  8
0
100
AcDbBlockBegin
  2
_D_9
 70
     0
 10
0.0
 20
0.0
 30
0.0
  3
_D_9
  1

  0
SOLID
  5
243
330
240
100
AcDbEntity
  8
SLD-0
100
AcDbTrace
 10
113.5966421826
 20
166.8433441761
 30
0.0
 11
106.5966421826
 21
167.7433441761
 31
0.0
 12
106.5966421826
 22
165.9433441761
 32
0.0
 13
106.5966421826
 23
165.9433441761
 33
0.0
  0
SOLID
  5
244
330
240
100
AcDbEntity
  8
SLD-0
100
AcDbTrace
 10
120.5966421826
 20
166.8433441761
 30
0.0
 11
127.5966421826
 21
165.9433441761
 31
0.0
 12
127.5966421826
 22
167.7433441761
 32
0.0
 13
127.5966421826
 23
167.7433441761
 33
0.0
  0
LINE
  5
245
330
240
100
AcDbEntity
  8
SLD-0
100
AcDbLine
 10
113.5966421826
 20
184.8433441761
 30
0.0
 11
113.5966421826
 21
164.8433441761
 31
0.0
  0
LINE
  5
246
330
240
100
AcDbEntity
  8
SLD-0
100
AcDbLine
 10
120.5966421826
 20
186.8433441761
 30
0.0
 11
120.5966421826
 21
164.8433441761
 31
0.0
  0
LINE
  5
247
330
240
100
AcDbEntity
  8
SLD-0
100
AcDbLine
 10
113.5966421826
 20
166.8433441761
 30
0.0
 11
101.5966421826
 21
166.8433441761
 31
0.0
  0
LINE
  5
248
330
240
100
AcDbEntity
  8
SLD-0
100
AcDbLine
 10
113.5966421826
 20
166.8433441761
 30
0.0
 11
120.5966421826
 21
166.8433441761
 31
0.0
  0
LINE
  5
249
330
240
100
AcDbEntity
  8
SLD-0
100
AcDbLine
 10
120.5966421826
 20
166.8433441761
 30
0.0
 11
132.5966421826
 21
166.8433441761
 31
0.0
  0
MTEXT
  5
24A
330
240
100
AcDbEntity
  8
SLD-0
100
AcDbMText
 10
115.249419968
 20
173.2886832242
 30
0.0
 40
5.0
 41
0.0
 71
     1
 72
     1
  1
7
  7
SLDTEXTSTYLE0
 73
     1
 44
1.0
  0
ENDBLK
  5
242
330
240
100
AcDbEntity
  8
0
100
AcDbBlockEnd
  0
BLOCK
  5
24D
330
24C
100
AcDbEntity
  8
0
100
AcDbBlockBegin
  2
_D_10
 70
     0
 10
0.0
 20
0.0
 30
0.0
  3
_D_10
  1

  0
SOLID
  5
24F
330
24C
100
AcDbEntity
  8
SLD-0
100
AcDbTrace
 10
113.5966421826
 20
154.8433441761
 30
0.0
 11
120.5966421826
 21
153.9433441761
 31
0.0
 12
120.5966421826
 22
155.7433441761
 32
0.0
 13
120.5966421826
 23
155.7433441761
 33
0.0
  0
SOLID
  5
250
330
24C
100
AcDbEntity
  8
SLD-0
100
AcDbTrace
 10
146.5966421826
 20
154.8433441761
 30
0.0
 11
139.5966421826
 21
155.7433441761
 31
0.0
 12
139.5966421826
 22
153.9433441761
 32
0.0
 13
139.5966421826
 23
153.9433441761
 33
0.0
  0
LINE
  5
251
330
24C
100
AcDbEntity
  8
SLD-0
100
AcDbLine
 10
113.5966421826
 20
184.8433441761
 30
0.0
 11
113.5966421826
 21
152.8433441761
 31
0.0
  0
LINE
  5
252
330
24C
100
AcDbEntity
  8
SLD-0
100
AcDbLine
 10
146.5966421826
 20
186.8433441761
 30
0.0
 11
146.5966421826
 21
152.8433441761
 31
0.0
  0
LINE
  5
253
330
24C
100
AcDbEntity
  8
SLD-0
100
AcDbLine
 10
113.5966421826
 20
154.8433441761
 30
0.0
 11
146.5966421826
 21
154.8433441761
 31
0.0
  0
MTEXT
  5
254
330
24C
100
AcDbEntity
  8
SLD-0
100
AcDbMText
 10
126.4021977535
 20
161.2886832242
 30
0.0
 40
5.0
 41
0.0
 71
     1
 72
     1
  1
33
  7
SLDTEXTSTYLE0
 73
     1
 44
1.0
  0
ENDBLK
  5
24E
330
24C
100
AcDbEntity
  8
0
100
AcDbBlockEnd
  0
BLOCK
  5
257
330
256
100
AcDbEntity
  8
0
100
AcDbBlockBegin
  2
_D_11
 70
     0
 10
0.0
 20
0.0
 30
0.0
  3
_D_11
  1

  0
SOLID
  5
259
330
256
100
AcDbEntity
  8
SLD-0
100
AcDbTrace
 10
113.5966421826
 20
142.8433441761
 30
0.0
 11
120.5966421826
 21
141.9433441761
 31
0.0
 12
120.5966421826
 22
143.7433441761
 32
0.0
 13
120.5966421826
 23
143.7433441761
 33
0.0
  0
SOLID
  5
25A
330
256
100
AcDbEntity
  8
SLD-0
100
AcDbTrace
 10
153.5966421826
 20
142.8433441761
 30
0.0
 11
146.5966421826
 21
143.7433441761
 31
0.0
 12
146.5966421826
 22
141.9433441761
 32
0.0
 13
146.5966421826
 23
141.9433441761
 33
0.0
  0
LINE
  5
25B
330
256
100
AcDbEntity
  8
SLD-0
100
AcDbLine
 10
113.5966421826
 20
184.8433441761
 30
0.0
 11
113.5966421826
 21
140.8433441761
 31
0.0
  0
LINE
  5
25C
330
256
100
AcDbEntity
  8
SLD-0
100
AcDbLine
 10
153.5966421826
 20
184.8433441761
 30
0.0
 11
153.5966421826
 21
140.8433441761
 31
0.0
  0
LINE
  5
25D
330
256
100
AcDbEntity
  8
SLD-0
100
AcDbLine
 10
113.5966421826
 20
142.8433441761
 30
0.0
 11
153.5966421826
 21
142.8433441761
 31
0.0
  0
MTEXT
  5
25E
330
256
100
AcDbEntity
  8
SLD-0
100
AcDbMText
 10
129.9021977535
 20
149.2886832242
 30
0.0
 40
5.0
 41
0.0
 71
     1
 72
     1
  1
40
  7
SLDTEXTSTYLE0
 73
     1
 44
1.0
  0
ENDBLK
  5
258
330
256
100
AcDbEntity
  8
0
100
AcDbBlockEnd
  0
BLOCK
  5
261
330
260
100
AcDbEntity
  8
0
100
AcDbBlockBegin
  2
_D_12
 70
     0
 10
0.0
 20
0.0
 30
0.0
  3
_D_12
  1

  0
SOLID
  5
263
330
260
100
AcDbEntity
  8
SLD-0
100
AcDbTrace
 10
173.5966421826
 20
186.8433441761
 30
0.0
 11
172.6966421826
 21
179.8433441761
 31
0.0
 12
174.4966421826
 22
179.8433441761
 32
0.0
 13
174.4966421826
 23
179.8433441761
 33
0.0
  0
SOLID
  5
264
330
260
100
AcDbEntity
  8
SLD-0
100
AcDbTrace
 10
173.5966421826
 20
193.8433441761
 30
0.0
 11
174.4966421826
 21
200.8433441761
 31
0.0
 12
172.6966421826
 22
200.8433441761
 32
0.0
 13
172.6966421826
 23
200.8433441761
 33
0.0
  0
LINE
  5
265
330
260
100
AcDbEntity
  8
SLD-0
100
AcDbLine
 10
155.5966421826
 20
186.8433441761
 30
0.0
 11
175.5966421826
 21
186.8433441761
 31
0.0
  0
LINE
  5
266
330
260
100
AcDbEntity
  8
SLD-0
100
AcDbLine
 10
153.5966421826
 20
193.8433441761
 30
0.0
 11
175.5966421826
 21
193.8433441761
 31
0.0
  0
LINE
  5
267
330
260
100
AcDbEntity
  8
SLD-0
100
AcDbLine
 10
173.5966421826
 20
186.8433441761
 30
0.0
 11
173.5966421826
 21
174.8433441761
 31
0.0
  0
LINE
  5
268
330
260
100
AcDbEntity
  8
SLD-0
100
AcDbLine
 10
173.5966421826
 20
186.8433441761
 30
0.0
 11
173.5966421826
 21
193.8433441761
 31
0.0
  0
LINE
  5
269
330
260
100
AcDbEntity
  8
SLD-0
100
AcDbLine
 10
173.5966421826
 20
193.8433441761
 30
0.0
 11
173.5966421826
 21
205.8433441761
 31
0.0
  0
MTEXT
  5
26A
330
260
100
AcDbEntity
  8
SLD-0
100
AcDbMText
 10
167.1513031345
 20
188.4961219615
 30
0.0
 40
5.0
 41
0.0
 71
     1
 72
     1
  1
7
  7
SLDTEXTSTYLE0
 11
6.123233995736766E-17
 21
1.0
 31
0.0
 73
     1
 44
1.0
  0
ENDBLK
  5
262
330
260
100
AcDbEntity
  8
0
100
AcDbBlockEnd
  0
BLOCK
  5
26D
330
26C
100
AcDbEntity
  8
0
100
AcDbBlockBegin
  2
_D_13
 70
     0
 10
0.0
 20
0.0
 30
0.0
  3
_D_13
  1

  0
SOLID
  5
26F
330
26C
100
AcDbEntity
  8
SLD-0
100
AcDbTrace
 10
185.5966421826
 20
186.8433441761
 30
0.0
 11
186.4966421826
 21
193.8433441761
 31
0.0
 12
184.6966421826
 22
193.8433441761
 32
0.0
 13
184.6966421826
 23
193.8433441761
 33
0.0
  0
SOLID
  5
270
330
26C
100
AcDbEntity
  8
SLD-0
100
AcDbTrace
 10
185.5966421826
 20
219.8433441761
 30
0.0
 11
184.6966421826
 21
212.8433441761
 31
0.0
 12
186.4966421826
 22
212.8433441761
 32
0.0
 13
186.4966421826
 23
212.8433441761
 33
0.0
  0
LINE
  5
271
330
26C
100
AcDbEntity
  8
SLD-0
100
AcDbLine
 10
155.5966421826
 20
186.8433441761
 30
0.0
 11
187.5966421826
 21
186.8433441761
 31
0.0
  0
LINE
  5
272
330
26C
100
AcDbEntity
  8
SLD-0
100
AcDbLine
 10
153.5966421826
 20
219.8433441761
 30
0.0
 11
187.5966421826
 21
219.8433441761
 31
0.0
  0
LINE
  5
273
330
26C
100
AcDbEntity
  8
SLD-0
100
AcDbLine
 10
185.5966421826
 20
186.8433441761
 30
0.0
 11
185.5966421826
 21
219.8433441761
 31
0.0
  0
MTEXT
  5
274
330
26C
100
AcDbEntity
  8
SLD-0
100
AcDbMText
 10
179.1513031345
 20
199.6488997469
 30
0.0
 40
5.0
 41
0.0
 71
     1
 72
     1
  1
33
  7
SLDTEXTSTYLE0
 11
6.123233995736766E-17
 21
1.0
 31
0.0
 73
     1
 44
1.0
  0
ENDBLK
  5
26E
330
26C
100
AcDbEntity
  8
0
100
AcDbBlockEnd
  0
BLOCK
  5
277
330
276
100
AcDbEntity
  8
0
100
AcDbBlockBegin
  2
_D_14
 70
     0
 10
0.0
 20
0.0
 30
0.0
  3
_D_14
  1

  0
SOLID
  5
279
330
276
100
AcDbEntity
  8
SLD-0
100
AcDbTrace
 10
197.5966421826
 20
186.8433441761
 30
0.0
 11
198.4966421826
 21
193.8433441761
 31
0.0
 12
196.6966421826
 22
193.8433441761
 32
0.0
 13
196.6966421826
 23
193.8433441761
 33
0.0
  0
SOLID
  5
27A
330
276
100
AcDbEntity
  8
SLD-0
100
AcDbTrace
 10
197.5966421826
 20
226.8433441761
 30
0.0
 11
196.6966421826
 21
219.8433441761
 31
0.0
 12
198.4966421826
 22
219.8433441761
 32
0.0
 13
198.4966421826
 23
219.8433441761
 33
0.0
  0
LINE
  5
27B
330
276
100
AcDbEntity
  8
SLD-0
100
AcDbLine
 10
155.5966421826
 20
186.8433441761
 30
0.0
 11
199.5966421826
 21
186.8433441761
 31
0.0
  0
LINE
  5
27C
330
276
100
AcDbEntity
  8
SLD-0
100
AcDbLine
 10
155.5966421826
 20
226.8433441761
 30
0.0
 11
199.5966421826
 21
226.8433441761
 31
0.0
  0
LINE
  5
27D
330
276
100
AcDbEntity
  8
SLD-0
100
AcDbLine
 10
197.5966421826
 20
186.8433441761
 30
0.0
 11
197.5966421826
 21
226.8433441761
 31
0.0
  0
MTEXT
  5
27E
330
276
100
AcDbEntity
  8
SLD-0
100
AcDbMText
 10
191.1513031345
 20
203.1488997469
 30
0.0
 40
5.0
 41
0.0
 71
     1
 72
     1
  1
40
  7
SLDTEXTSTYLE0
 11
6.123233995736766E-17
 21
1.0
 31
0.0
 73
     1
 44
1.0
  0
ENDBLK
  5
278
330
276
100
AcDbEntity
  8
0
100
AcDbBlockEnd
  0
BLOCK
  5
282
330
281
100
AcDbEntity
  8
0
100
AcDbBlockBegin
  2
_D_15
 70
     0
 10
0.0
 20
0.0
 30
0.0
  3
_D_15
  1

  0
SOLID
  5
284
330
281
100
AcDbEntity
  8
SLD-0
100
AcDbTrace
 10
122.7659793964
 20
218.6007758469
 30
0.0
 11
128.3927989966
 21
214.3406231282
 31
0.0
 12
129.2874481936
 22
215.9025459221
 32
0.0
 13
129.2874481936
 23
215.9025459221
 33
0.0
  0
SOLID
  5
285
330
281
100
AcDbEntity
  8
SLD-0
100
AcDbTrace
 10
118.4273049688
 20
221.0859125052
 30
0.0
 11
112.8004853685
 21
225.3460652239
 31
0.0
 12
111.9058361715
 22
223.78414243
 32
0.0
 13
111.9058361715
 23
223.78414243
 33
0.0
  0
LINE
  5
286
330
281
100
AcDbEntity
  8
SLD-0
100
AcDbLine
 10
122.7659793964
 20
218.6007758469
 30
0.0
 11
133.1787980228
 21
212.6364478668
 31
0.0
  0
LINE
  5
287
330
281
100
AcDbEntity
  8
SLD-0
100
AcDbLine
 10
118.4273049688
 20
221.0859125052
 30
0.0
 11
89.2290007873
 21
237.8103239109
 31
0.0
  0
LINE
  5
288
330
281
100
AcDbEntity
  8
SLD-0
100
AcDbLine
 10
122.7659793964
 20
218.6007758469
 30
0.0
 11
118.4273049688
 21
221.0859125052
 31
0.0
  0
LINE
  5
289
330
281
100
AcDbEntity
  8
SLD-0
100
AcDbLine
 10
89.2290007873
 20
237.8103239109
 30
0.0
 11
43.8477506562
 21
237.8103239109
 31
0.0
  0
MTEXT
  5
28A
330
281
100
AcDbEntity
  8
SLD-0
100
AcDbMText
 10
44.0010482146
 20
252.3459410928
 30
0.0
 40
5.0
 41
0.0
 71
     1
 72
     1
  1
4 x
  7
SLDTEXTSTYLE2
 73
     1
 44
1.0
  0
MTEXT
  5
28B
330
281
100
AcDbEntity
  8
SLD-0
100
AcDbMText
 10
54.5913258268
 20
252.269552269
 30
0.0
 40
5.0
 41
0.0
 71
     1
 72
     1
  1
%%c
  7
SLDTEXTSTYLE0
 73
     1
 44
1.0
  0
MTEXT
  5
28C
330
281
100
AcDbEntity
  8
SLD-0
100
AcDbMText
 10
64.0069504155
 20
252.3459410928
 30
0.0
 40
5.0
 41
0.0
 71
     1
 72
     1
  1
5
  7
SLDTEXTSTYLE0
 73
     1
 44
1.0
  0
INSERT
  5
294
330
281
100
AcDbEntity
  8
SLD-0
100
AcDbBlockReference
  2
SW_SYMBOL_HOLE_DEPTH
 10
69.5208402051
 20
246.5175729451
 30
0.0
 41
0.0031933594
 42
0.0031933594
 43
0.0031933594
  0
MTEXT
  5
295
330
281
100
AcDbEntity
  8
SLD-0
100
AcDbMText
 10
78.5395909919
 20
252.3459410928
 30
0.0
 40
5.0
 41
0.0
 71
     1
 72
     1
  1
17
  7
SLDTEXTSTYLE0
 73
     1
 44
1.0
  0
MTEXT
  5
296
330
281
100
AcDbEntity
  8
SLD-0
100
AcDbMText
 10
43.8477506562
 20
244.3320518992
 30
0.0
 40
5.0
 41
0.0
 71
     1
 72
     1
  1
M6 - 6H
  7
SLDTEXTSTYLE3
 73
     1
 44
1.0
  0
INSERT
  5
297
330
281
100
AcDbEntity
  8
SLD-0
100
AcDbBlockReference
  2
SW_SYMBOL_HOLE_DEPTH
 10
69.6741396262
 20
238.5036837516
 30
0.0
 41
0.0031933594
 42
0.0031933594
 43
0.0031933594
  0
MTEXT
  5
298
330
281
100
AcDbEntity
  8
SLD-0
100
AcDbMText
 10
78.6928885503
 20
244.3320518992
 30
0.0
 40
5.0
 41
0.0
 71
     1
 72
     1
  1
12
  7
SLDTEXTSTYLE0
 73
     1
 44
1.0
  0
ENDBLK
  5
283
330
281
100
AcDbEntity
  8
0
100
AcDbBlockEnd
  0
BLOCK
  5
28E
330
28D
100
AcDbEntity
  8
0
100
AcDbBlockBegin
  2
SW_SYMBOL_HOLE_DEPTH
 70
     0
 10
0.0
 20
0.0
 30
0.0
  3
SW_SYMBOL_HOLE_DEPTH
  1

  0
LINE
  5
290
330
28D
100
AcDbEntity
  8
SLD-0
 62
     0
100
AcDbLine
 10
0.0
 20
1750.0
 30
0.0
 11
1600.0
 21
1750.0
 31
0.0
  0
LINE
  5
291
330
28D
100
AcDbEntity
  8
SLD-0
 62
     0
100
AcDbLine
 10
800.0
 20
1750.0
 30
0.0
 11
800.0
 21
150.0
 31
0.0
  0
LINE
  5
292
330
28D
100
AcDbEntity
  8
SLD-0
 62
     0
100
AcDbLine
 10
200.0
 20
1110.0
 30
0.0
 11
800.0
 21
150.0
 31
0.0
  0
LINE
  5
293
330
28D
100
AcDbEntity
  8
SLD-0
 62
     0
100
AcDbLine
 10
1400.0
 20
1110.0
 30
0.0
 11
800.0
 21
150.0
 31
0.0
  0
ENDBLK
  5
28F
330
28D
100
AcDbEntity
  8
0
100
AcDbBlockEnd
  0
BLOCK
  5
29A
330
299
100
AcDbEntity
  8
0
100
AcDbBlockBegin
  2
SW_CENTERMARKSYMBOL_1
 70
     0
 10
0.0
 20
0.0
 30
0.0
  3
SW_CENTERMARKSYMBOL_1
  1

  0
LINE
  5
29C
330
299
100
AcDbEntity
  8
SLD-0
 62
     0
100
AcDbLine
 10
0.0
 20
0.0
 30
0.0
 11
0.0
 21
2.5
 31
0.0
  0
LINE
  5
29D
330
299
100
AcDbEntity
  8
SLD-0
 62
     0
100
AcDbLine
 10
0.0
 20
0.0
 30
0.0
 11
-2.5
 21
0.0
 31
0.0
  0
LINE
  5
29E
330
299
100
AcDbEntity
  8
SLD-0
 62
     0
100
AcDbLine
 10
0.0
 20
0.0
 30
0.0
 11
0.0
 21
-2.5
 31
0.0
  0
LINE
  5
29F
330
299
100
AcDbEntity
  8
SLD-0
 62
     0
100
AcDbLine
 10
0.0
 20
0.0
 30
0.0
 11
2.5
 21
0.0
 31
0.0
  0
LINE
  5
2A0
330
299
100
AcDbEntity
  8
SLD-0
 62
     0
100
AcDbLine
 10
0.0
 20
2.5
 30
0.0
 11
0.0
 21
5.0
 31
0.0
  0
LINE
  5
2A1
330
299
100
AcDbEntity
  8
SLD-0
 62
     0
100
AcDbLine
 10
-2.5
 20
0.0
 30
0.0
 11
-5.3580272823
 21
0.0
 31
0.0
  0
LINE
  5
2A2
330
299
100
AcDbEntity
  8
SLD-0
 62
     0
100
AcDbLine
 10
0.0
 20
-2.5
 30
0.0
 11
0.0
 21
-5.0
 31
0.0
  0
LINE
  5
2A3
330
299
100
AcDbEntity
  8
SLD-0
 62
     0
100
AcDbLine
 10
2.5
 20
0.0
 30
0.0
 11
5.0
 21
0.0
 31
0.0
  0
ENDBLK
  5
29B
330
299
100
AcDbEntity
  8
0
100
AcDbBlockEnd
  0
BLOCK
  5
2A6
330
2A5
100
AcDbEntity
  8
0
100
AcDbBlockBegin
  2
SW_CENTERMARKSYMBOL_2
 70
     0
 10
0.0
 20
0.0
 30
0.0
  3
SW_CENTERMARKSYMBOL_2
  1

  0
LINE
  5
2A8
330
2A5
100
AcDbEntity
  8
SLD-0
 62
     0
100
AcDbLine
 10
0.0
 20
0.0
 30
0.0
 11
0.0
 21
2.5
 31
0.0
  0
LINE
  5
2A9
330
2A5
100
AcDbEntity
  8
SLD-0
 62
     0
100
AcDbLine
 10
0.0
 20
0.0
 30
0.0
 11
-2.5
 21
0.0
 31
0.0
  0
LINE
  5
2AA
330
2A5
100
AcDbEntity
  8
SLD-0
 62
     0
100
AcDbLine
 10
0.0
 20
0.0
 30
0.0
 11
0.0
 21
-2.5
 31
0.0
  0
LINE
  5
2AB
330
2A5
100
AcDbEntity
  8
SLD-0
 62
     0
100
AcDbLine
 10
0.0
 20
0.0
 30
0.0
 11
2.5
 21
0.0
 31
0.0
  0
LINE
  5
2AC
330
2A5
100
AcDbEntity
  8
SLD-0
 62
     0
100
AcDbLine
 10
0.0
 20
2.5
 30
0.0
 11
0.0
 21
5.0
 31
0.0
  0
LINE
  5
2AD
330
2A5
100
AcDbEntity
  8
SLD-0
 62
     0
100
AcDbLine
 10
-2.5
 20
0.0
 30
0.0
 11
-5.0
 21
0.0
 31
0.0
  0
LINE
  5
2AE
330
2A5
100
AcDbEntity
  8
SLD-0
 62
     0
100
AcDbLine
 10
0.0
 20
-2.5
 30
0.0
 11
0.0
 21
-5.0
 31
0.0
  0
LINE
  5
2AF
330
2A5
100
AcDbEntity
  8
SLD-0
 62
     0
100
AcDbLine
 10
2.5
 20
0.0
 30
0.0
 11
5.0
 21
0.0
 31
0.0
  0
ENDBLK
  5
2A7
330
2A5
100
AcDbEntity
  8
0
100
AcDbBlockEnd
  0
BLOCK
  5
2B2
330
2B1
100
AcDbEntity
  8
0
100
AcDbBlockBegin
  2
SW_CENTERMARKSYMBOL_3
 70
     0
 10
0.0
 20
0.0
 30
0.0
  3
SW_CENTERMARKSYMBOL_3
  1

  0
LINE
  5
2B4
330
2B1
100
AcDbEntity
  8
SLD-0
 62
     0
100
AcDbLine
 10
0.0
 20
0.0
 30
0.0
 11
0.0
 21
2.5
 31
0.0
  0
LINE
  5
2B5
330
2B1
100
AcDbEntity
  8
SLD-0
 62
     0
100
AcDbLine
 10
0.0
 20
0.0
 30
0.0
 11
-2.5
 21
0.0
 31
0.0
  0
LINE
  5
2B6
330
2B1
100
AcDbEntity
  8
SLD-0
 62
     0
100
AcDbLine
 10
0.0
 20
0.0
 30
0.0
 11
0.0
 21
-2.5
 31
0.0
  0
LINE
  5
2B7
330
2B1
100
AcDbEntity
  8
SLD-0
 62
     0
100
AcDbLine
 10
0.0
 20
0.0
 30
0.0
 11
2.5
 21
0.0
 31
0.0
  0
LINE
  5
2B8
330
2B1
100
AcDbEntity
  8
SLD-0
 62
     0
100
AcDbLine
 10
0.0
 20
2.5
 30
0.0
 11
0.0
 21
5.0
 31
0.0
  0
LINE
  5
2B9
330
2B1
100
AcDbEntity
  8
SLD-0
 62
     0
100
AcDbLine
 10
-2.5
 20
0.0
 30
0.0
 11
-5.0
 21
0.0
 31
0.0
  0
LINE
  5
2BA
330
2B1
100
AcDbEntity
  8
SLD-0
 62
     0
100
AcDbLine
 10
0.0
 20
-2.5
 30
0.0
 11
0.0
 21
-5.0
 31
0.0
  0
LINE
  5
2BB
330
2B1
100
AcDbEntity
  8
SLD-0
 62
     0
100
AcDbLine
 10
2.5
 20
0.0
 30
0.0
 11
5.0
 21
0.0
 31
0.0
  0
ENDBLK
  5
2B3
330
2B1
100
AcDbEntity
  8
0
100
AcDbBlockEnd
  0
BLOCK
  5
2BE
330
2BD
100
AcDbEntity
  8
0
100
AcDbBlockBegin
  2
SW_CENTERMARKSYMBOL_4
 70
     0
 10
0.0
 20
0.0
 30
0.0
  3
SW_CENTERMARKSYMBOL_4
  1

  0
LINE
  5
2C0
330
2BD
100
AcDbEntity
  8
SLD-0
 62
     0
100
AcDbLine
 10
0.0
 20
0.0
 30
0.0
 11
0.0
 21
2.5
 31
0.0
  0
LINE
  5
2C1
330
2BD
100
AcDbEntity
  8
SLD-0
 62
     0
100
AcDbLine
 10
0.0
 20
0.0
 30
0.0
 11
-2.5
 21
0.0
 31
0.0
  0
LINE
  5
2C2
330
2BD
100
AcDbEntity
  8
SLD-0
 62
     0
100
AcDbLine
 10
0.0
 20
0.0
 30
0.0
 11
0.0
 21
-2.5
 31
0.0
  0
LINE
  5
2C3
330
2BD
100
AcDbEntity
  8
SLD-0
 62
     0
100
AcDbLine
 10
0.0
 20
0.0
 30
0.0
 11
2.5
 21
0.0
 31
0.0
  0
LINE
  5
2C4
330
2BD
100
AcDbEntity
  8
SLD-0
 62
     0
100
AcDbLine
 10
0.0
 20
2.5
 30
0.0
 11
0.0
 21
5.0
 31
0.0
  0
LINE
  5
2C5
330
2BD
100
AcDbEntity
  8
SLD-0
 62
     0
100
AcDbLine
 10
-2.5
 20
0.0
 30
0.0
 11
-5.0
 21
0.0
 31
0.0
  0
LINE
  5
2C6
330
2BD
100
AcDbEntity
  8
SLD-0
 62
     0
100
AcDbLine
 10
0.0
 20
-2.5
 30
0.0
 11
0.0
 21
-5.0
 31
0.0
  0
LINE
  5
2C7
330
2BD
100
AcDbEntity
  8
SLD-0
 62
     0
100
AcDbLine
 10
2.5
 20
0.0
 30
0.0
 11
5.0
 21
0.0
 31
0.0
  0
ENDBLK
  5
2BF
330
2BD
100
AcDbEntity
  8
0
100
AcDbBlockEnd
  0
BLOCK
  5
2EA
330
2E9
100
AcDbEntity
  8
0
100
AcDbBlockBegin
  2
SW_NOTE_0_6
 70
     0
 10
0.0
 20
0.0
 30
0.0
  3
SW_NOTE_0_6
  1

  0
MTEXT
  5
2EC
330
2E9
100
AcDbEntity
  8
0
  6
Continuous
 62
     0
370
     0
100
AcDbMText
 10
-96.818524744
 20
9.2034862493
 30
0.0
 40
5.0
 41
0.0
 71
     1
 72
     1
  1
engrave part number
  7
SLDTEXTSTYLE0
 73
     1
 44
1.0
  0
MTEXT
  5
2ED
330
2E9
100
AcDbEntity
  8
0
  6
Continuous
 62
     0
370
     0
100
AcDbMText
 10
-96.818524744
 20
2.2034860333
 30
0.0
 40
5.0
 41
0.0
 71
     1
 72
     1
  1
(Bauteilnummer eingravieren)
  7
SLDTEXTSTYLE0
 73
     1
 44
1.0
  0
ENDBLK
  5
2EB
330
2E9
100
AcDbEntity
  8
0
100
AcDbBlockEnd
  0
BLOCK
  5
2F1
330
2F0
100
AcDbEntity
  8
0
100
AcDbBlockBegin
  2
_Dot
 70
     0
 10
0.0
 20
0.0
 30
0.0
  3
_Dot
  1

  0
LWPOLYLINE
  5
2F3
330
2F0
100
AcDbEntity
  8
0
  6
ByBlock
 62
     0
100
AcDbPolyline
 90
        2
 70
     1
 43
0.5
 10
-0.25
 20
0.0
 42
1.0
 10
0.25
 20
0.0
 42
1.0
  0
LINE
  5
2F4
330
2F0
100
AcDbEntity
  8
0
  6
ByBlock
 62
     0
370
    -2
100
AcDbLine
 10
-0.5
 20
0.0
 30
0.0
 11
-1.0
 21
0.0
 31
0.0
  0
ENDBLK
  5
2F2
330
2F0
100
AcDbEntity
  8
0
100
AcDbBlockEnd
  0
ENDSEC
  0
SECTION
  2
ENTITIES
  0
HATCH
  5
6C
330
1F
100
AcDbEntity
  8
0
  6
Continuous
 62
     7
100
AcDbHatch
 10
0.0
 20
0.0
 30
0.0
210
0.0
220
0.0
230
1.0
  2
SOLID
 70
     1
 71
     0
 91
        1
 92
        0
 93
        2
 72
     1
 10
54.99999999999996
 20
399.9999999999998
 11
58.99999999999997
 21
399.9999999999998
 72
     2
 10
56.99999999999996
 20
399.9999999999998
 40
2.000000000000002
 50
0.0
 51
180.0
 73
     1
 97
        0
 75
     0
 76
     1
 98
        1
 10
0.0
 20
0.0
  0
HATCH
  5
6D
330
1F
100
AcDbEntity
  8
0
  6
Continuous
 62
     7
100
AcDbHatch
 10
0.0
 20
0.0
 30
0.0
210
0.0
220
0.0
230
1.0
  2
SOLID
 70
     1
 71
     0
 91
        1
 92
        0
 93
        2
 72
     1
 10
214.9999999999999
 20
399.9999999999993
 11
218.9999999999999
 21
399.9999999999993
 72
     2
 10
216.9999999999999
 20
399.9999999999993
 40
2.000000000000002
 50
0.0
 51
180.0
 73
     1
 97
        0
 75
     0
 76
     1
 98
        1
 10
0.0
 20
0.0
  0
HATCH
  5
6E
330
1F
100
AcDbEntity
  8
0
  6
Continuous
 62
     7
100
AcDbHatch
 10
0.0
 20
0.0
 30
0.0
210
0.0
220
0.0
230
1.0
  2
SOLID
 70
     1
 71
     0
 91
        1
 92
        0
 93
        2
 72
     1
 10
375.0
 20
399.9999999999987
 11
379.0
 21
399.9999999999987
 72
     2
 10
377.0
 20
399.9999999999987
 40
2.000000000000002
 50
0.0
 51
180.0
 73
     1
 97
        0
 75
     0
 76
     1
 98
        1
 10
0.0
 20
0.0
  0
HATCH
  5
6F
330
1F
100
AcDbEntity
  8
0
  6
Continuous
 62
     7
100
AcDbHatch
 10
0.0
 20
0.0
 30
0.0
210
0.0
220
0.0
230
1.0
  2
SOLID
 70
     1
 71
     0
 91
        1
 92
        0
 93
        2
 72
     1
 10
535.0
 20
399.9999999999982
 11
539.0
 21
399.9999999999982
 72
     2
 10
537.0
 20
399.9999999999982
 40
2.000000000000002
 50
0.0
 51
180.0
 73
     1
 97
        0
 75
     0
 76
     1
 98
        1
 10
0.0
 20
0.0
  0
HATCH
  5
70
330
1F
100
AcDbEntity
  8
0
  6
Continuous
 62
     7
100
AcDbHatch
 10
0.0
 20
0.0
 30
0.0
210
0.0
220
0.0
230
1.0
  2
SOLID
 70
     1
 71
     0
 91
        3
 92
        0
 93
       14
 72
     4
 94
        3
 73
     1
 74
     0
 95
        8
 96
        4
 40
0.0
 40
0.0
 40
0.0
 40
0.0
 40
1.0
 40
1.0
 40
1.0
 40
1.0
 10
230.3706070174025
 20
48.27541412344431
 42
1.0
 10
232.5928942174025
 20
46.63865732344428
 42
1.0
 10
234.2577574174025
 20
44.46929012344429
 42
1.0
 10
234.8471294174025
 20
41.28589732344427
 42
1.0
 72
     4
 94
        3
 73
     1
 74
     0
 95
        8
 96
        4
 40
0.0
 40
0.0
 40
0.0
 40
0.0
 40
1.0
 40
1.0
 40
1.0
 40
1.0
 10
234.8471294174025
 20
41.28589732344427
 42
1.0
 10
235.5343054174025
 20
37.57804772344429
 42
1.0
 10
234.1735166174026
 20
34.4821885234443
 42
1.0
 10
232.5653758174025
 20
32.47753972344429
 42
1.0
 72
     4
 94
        3
 73
     1
 74
     0
 95
        8
 96
        4
 40
0.0
 40
0.0
 40
0.0
 40
0.0
 40
1.0
 40
1.0
 40
1.0
 40
1.0
 10
232.5653758174025
 20
32.47753972344429
 42
1.0
 10
230.8854206174025
 20
30.38485948344428
 42
1.0
 10
228.3815990174025
 20
28.81020724344428
 42
1.0
 10
225.0815862174025
 20
28.4904136434443
 42
1.0
 72
     4
 94
        3
 73
     1
 74
     0
 95
        8
 96
        4
 40
0.0
 40
0.0
 40
0.0
 40
0.0
 40
1.0
 40
1.0
 40
1.0
 40
1.0
 10
225.0815862174025
 20
28.4904136434443
 42
1.0
 10
223.1887358174025
 20
28.3062128434443
 42
1.0
 10
221.5136022174025
 20
28.65408932344431
 42
1.0
 10
220.1442286174025
 20
29.19049820344429
 42
1.0
 72
     4
 94
        3
 73
     1
 74
     0
 95
        8
 96
        4
 40
0.0
 40
0.0
 40
0.0
 40
0.0
 40
1.0
 40
1.0
 40
1.0
 40
1.0
 10
220.1442286174025
 20
29.19049820344429
 42
1.0
 10
218.7467486174025
 20
29.7393256434443
 42
1.0
 10
217.6231590174025
 20
30.4621070034443
 42
1.0
 10
216.6108464574025
 20
31.38205652344427
 42
1.0
 72
     4
 94
        3
 73
     1
 74
     0
 95
        8
 96
        4
 40
0.0
 40
0.0
 40
0.0
 40
0.0
 40
1.0
 40
1.0
 40
1.0
 40
1.0
 10
216.6108464574025
 20
31.38205652344427
 42
1.0
 10
216.9117338974025
 20
31.75857252344429
 42
1.0
 10
217.2396262174025
 20
32.07401492344429
 42
1.0
 10
217.5983062174025
 20
32.47753972344429
 42
1.0
 72
     4
 94
        3
 73
     1
 74
     0
 95
        8
 96
        4
 40
0.0
 40
0.0
 40
0.0
 40
0.0
 40
1.0
 40
1.0
 40
1.0
 40
1.0
 10
217.5983062174025
 20
32.47753972344429
 42
1.0
 10
217.6620454174025
 20
32.54939332344429
 42
1.0
 10
217.9262142174025
 20
32.8000381234443
 42
1.0
 10
217.9278214174025
 20
32.82814452344428
 42
1.0
 72
     4
 94
        3
 73
     1
 74
     0
 95
        8
 96
        4
 40
0.0
 40
0.0
 40
0.0
 40
0.0
 40
1.0
 40
1.0
 40
1.0
 40
1.0
 10
217.9278214174025
 20
32.82814452344428
 42
1.0
 10
217.9305262174025
 20
32.90160532344429
 42
1.0
 10
217.4594990174025
 20
33.31108852344429
 42
1.0
 10
217.4005814174025
 20
33.37588612344429
 42
1.0
 72
     4
 94
        3
 73
     1
 74
     0
 95
        8
 96
        4
 40
0.0
 40
0.0
 40
0.0
 40
0.0
 40
1.0
 40
1.0
 40
1.0
 40
1.0
 10
217.4005814174025
 20
33.37588612344429
 42
1.0
 10
216.2905118974025
 20
34.6221325234443
 42
1.0
 10
215.3851486974025
 20
36.40635972344429
 42
1.0
 10
215.2063535774025
 20
38.54715012344427
 42
1.0
 72
     4
 94
        3
 73
     1
 74
     0
 95
        8
 96
        4
 40
0.0
 40
0.0
 40
0.0
 40
0.0
 40
1.0
 40
1.0
 40
1.0
 40
1.0
 10
215.2063535774025
 20
38.54715012344427
 42
1.0
 10
214.9800049374025
 20
41.26100532344427
 42
1.0
 10
215.9042703774025
 20
43.3526389234443
 42
1.0
 10
217.1596856574025
 20
44.92357892344427
 42
1.0
 72
     4
 94
        3
 73
     1
 74
     0
 95
        8
 96
        4
 40
0.0
 40
0.0
 40
0.0
 40
0.0
 40
1.0
 40
1.0
 40
1.0
 40
1.0
 10
217.1596856574025
 20
44.92357892344427
 42
1.0
 10
218.3816006174025
 20
46.45237892344429
 42
1.0
 10
220.1383094174025
 20
47.65311412344429
 42
1.0
 10
222.4043830174025
 20
48.10089572344427
 42
1.0
 72
     4
 94
        3
 73
     1
 74
     0
 95
        8
 96
        4
 40
0.0
 40
0.0
 40
0.0
 40
0.0
 40
1.0
 40
1.0
 40
1.0
 40
1.0
 10
222.4043830174025
 20
48.10089572344427
 42
1.0
 10
224.9989526174025
 20
48.61312212344431
 42
1.0
 10
227.4865846174025
 20
47.90701252344427
 42
1.0
 10
229.1416086174025
 20
46.7635093234443
 42
1.0
 72
     4
 94
        3
 73
     1
 74
     0
 95
        8
 96
        4
 40
0.0
 40
0.0
 40
0.0
 40
0.0
 40
1.0
 40
1.0
 40
1.0
 40
1.0
 10
229.1416086174025
 20
46.7635093234443
 42
1.0
 10
229.5808054174025
 20
47.2382605234443
 42
1.0
 10
229.9183958174025
 20
47.81355972344429
 42
1.0
 10
230.3490078174025
 20
48.29756212344429
 42
1.0
 72
     4
 94
        3
 73
     1
 74
     0
 95
        8
 96
        4
 40
0.0
 40
0.0
 40
0.0
 40
0.0
 40
1.0
 40
1.0
 40
1.0
 40
1.0
 10
230.3490078174025
 20
48.29756212344429
 42
1.0
 10
230.3668438174025
 20
48.30199172344428
 42
1.0
 10
230.3689214174025
 20
48.28952612344427
 42
1.0
 10
230.3706070174025
 20
48.27541412344431
 42
1.0
 97
        0
 92
        0
 93
       21
 72
     4
 94
        3
 73
     1
 74
     0
 95
        8
 96
        4
 40
0.0
 40
0.0
 40
0.0
 40
0.0
 40
1.0
 40
1.0
 40
1.0
 40
1.0
 10
221.4606822174025
 20
31.16273252344427
 42
1.0
 10
222.5075574174025
 20
30.82133972344429
 42
1.0
 10
223.6214254174025
 20
30.64199580344427
 42
1.0
 10
224.8406630174025
 20
30.74678916344427
 42
1.0
 72
     4
 94
        3
 73
     1
 74
     0
 95
        8
 96
        4
 40
0.0
 40
0.0
 40
0.0
 40
0.0
 40
1.0
 40
1.0
 40
1.0
 40
1.0
 10
224.8406630174025
 20
30.74678916344427
 42
1.0
 10
228.2126078174025
 20
31.03795892344428
 42
1.0
 10
230.5326598174025
 20
32.99940932344429
 42
1.0
 10
231.7750646174025
 20
35.34760692344428
 42
1.0
 72
     4
 94
        3
 73
     1
 74
     0
 95
        8
 96
        4
 40
0.0
 40
0.0
 40
0.0
 40
0.0
 40
1.0
 40
1.0
 40
1.0
 40
1.0
 10
231.7750646174025
 20
35.34760692344428
 42
1.0
 10
232.6571822174025
 20
37.01623332344427
 42
1.0
 10
233.0423222174025
 20
39.47140772344428
 42
1.0
 10
232.3893286174025
 20
41.70243652344428
 42
1.0
 72
     4
 94
        3
 73
     1
 74
     0
 95
        8
 96
        4
 40
0.0
 40
0.0
 40
0.0
 40
0.0
 40
1.0
 40
1.0
 40
1.0
 40
1.0
 10
232.3893286174025
 20
41.70243652344428
 42
1.0
 10
231.8123830174025
 20
43.67192292344431
 42
1.0
 10
230.7157630174025
 20
45.08884612344431
 42
1.0
 10
229.2075822174025
 20
46.21576772344428
 42
1.0
 72
     4
 94
        3
 73
     1
 74
     0
 95
        8
 96
        4
 40
0.0
 40
0.0
 40
0.0
 40
0.0
 40
1.0
 40
1.0
 40
1.0
 40
1.0
 10
229.2075822174025
 20
46.21576772344428
 42
1.0
 10
227.8025758174025
 20
44.23699092344428
 42
1.0
 10
226.2354382174025
 20
42.24480772344429
 42
1.0
 10
224.8406630174025
 20
40.2779085234443
 42
1.0
 72
     4
 94
        3
 73
     1
 74
     0
 95
        8
 96
        4
 40
0.0
 40
0.0
 40
0.0
 40
0.0
 40
1.0
 40
1.0
 40
1.0
 40
1.0
 10
224.8406630174025
 20
40.2779085234443
 42
1.0
 10
224.8066374174025
 20
40.23145652344427
 42
1.0
 10
224.7218086174025
 20
40.17689012344429
 42
1.0
 10
224.7526198174025
 20
40.10342932344428
 42
1.0
 72
     4
 94
        3
 73
     1
 74
     0
 95
        8
 96
        4
 40
0.0
 40
0.0
 40
0.0
 40
0.0
 40
1.0
 40
1.0
 40
1.0
 40
1.0
 10
224.7526198174025
 20
40.10342932344428
 42
1.0
 10
226.9630686174025
 20
40.05050932344427
 42
1.0
 10
229.3220854174025
 20
40.15583972344427
 42
1.0
 10
231.5551526174025
 20
40.0807325234443
 42
1.0
 72
     4
 94
        3
 73
     1
 74
     0
 95
        8
 96
        4
 40
0.0
 40
0.0
 40
0.0
 40
0.0
 40
1.0
 40
1.0
 40
1.0
 40
1.0
 10
231.5551526174025
 20
40.08073252344431
 42
1.0
 10
231.5887862174025
 20
38.02316372344432
 42
1.0
 10
231.0690726174025
 20
36.4344661234443
 42
1.0
 10
230.1949518174025
 20
35.17312772344429
 42
1.0
 72
     4
 94
        3
 73
     1
 74
     0
 95
        8
 96
        4
 40
0.0
 40
0.0
 40
0.0
 40
0.0
 40
1.0
 40
1.0
 40
1.0
 40
1.0
 10
230.1949518174025
 20
35.17312772344429
 42
1.0
 10
229.3436454174025
 20
33.94471732344427
 42
1.0
 10
228.1596094174025
 20
32.94213812344428
 42
1.0
 10
226.7054070174025
 20
32.39059412344429
 42
1.0
 72
     4
 94
        3
 73
     1
 74
     0
 95
        8
 96
        4
 40
0.0
 40
0.0
 40
0.0
 40
0.0
 40
1.0
 40
1.0
 40
1.0
 40
1.0
 10
226.7054070174025
 20
32.39059412344429
 42
1.0
 10
225.0621430174025
 20
31.7666869234443
 42
1.0
 10
222.9256646174024
 20
31.84285252344431
 42
1.0
 10
221.4169350174025
 20
32.45543092344426
 42
1.0
 72
     4
 94
        3
 73
     1
 74
     0
 95
        8
 96
        4
 40
0.0
 40
0.0
 40
0.0
 40
0.0
 40
1.0
 40
1.0
 40
1.0
 40
1.0
 10
221.4169350174025
 20
32.45543092344426
 42
1.0
 10
219.9611254174025
 20
33.0469197234443
 42
1.0
 10
218.7656822174025
 20
34.0560061234443
 42
1.0
 10
217.9715686174025
 20
35.30436932344431
 42
1.0
 72
     4
 94
        3
 73
     1
 74
     0
 95
        8
 96
        4
 40
0.0
 40
0.0
 40
0.0
 40
0.0
 40
1.0
 40
1.0
 40
1.0
 40
1.0
 10
217.9715686174025
 20
35.30436932344431
 42
1.0
 10
217.1461734174025
 20
36.60192852344428
 42
1.0
 10
216.5773500574025
 20
38.38239252344432
 42
1.0
 10
216.8523106174025
 20
40.32220452344428
 42
1.0
 72
     4
 94
        3
 73
     1
 74
     0
 95
        8
 96
        4
 40
0.0
 40
0.0
 40
0.0
 40
0.0
 40
1.0
 40
1.0
 40
1.0
 40
1.0
 10
216.8523106174025
 20
40.32220452344428
 42
1.0
 10
217.1045782974025
 20
42.1011005234443
 42
1.0
 10
217.8732550174025
 20
43.44554292344429
 42
1.0
 10
218.9369078174025
 20
44.50649092344426
 42
1.0
 72
     4
 94
        3
 73
     1
 74
     0
 95
        8
 96
        4
 40
0.0
 40
0.0
 40
0.0
 40
0.0
 40
1.0
 40
1.0
 40
1.0
 40
1.0
 10
218.9369078174025
 20
44.50649092344426
 42
1.0
 10
219.9589302174025
 20
45.5274941234443
 42
1.0
 10
221.3332038174025
 20
46.33136852344431
 42
1.0
 10
223.1287990174025
 20
46.5884421234443
 42
1.0
 72
     4
 94
        3
 73
     1
 74
     0
 95
        8
 96
        4
 40
0.0
 40
0.0
 40
0.0
 40
0.0
 40
1.0
 40
1.0
 40
1.0
 40
1.0
 10
223.1287990174025
 20
46.5884421234443
 42
1.0
 10
225.0172982174025
 20
46.86017652344428
 42
1.0
 10
226.9479374174025
 20
46.42415492344431
 42
1.0
 10
228.1979470174025
 20
45.53662772344428
 42
1.0
 72
     4
 94
        3
 73
     1
 74
     0
 95
        8
 96
        4
 40
0.0
 40
0.0
 40
0.0
 40
0.0
 40
1.0
 40
1.0
 40
1.0
 40
1.0
 10
228.1979470174025
 20
45.53662772344428
 42
1.0
 10
228.4734054174025
 20
45.80240372344428
 42
1.0
 10
228.6970022174025
 20
46.11894372344431
 42
1.0
 10
228.9001758174025
 20
46.4577493234443
 42
1.0
 72
     4
 94
        3
 73
     1
 74
     0
 95
        8
 96
        4
 40
0.0
 40
0.0
 40
0.0
 40
0.0
 40
1.0
 40
1.0
 40
1.0
 40
1.0
 10
228.9001758174025
 20
46.4577493234443
 42
1.0
 10
227.5334678174025
 20
47.25237252344431
 42
1.0
 10
226.0215238174025
 20
47.98584372344429
 42
1.0
 10
223.8088798174025
 20
47.8815717234443
 42
1.0
 72
     4
 94
        3
 73
     1
 74
     0
 95
        8
 96
        4
 40
0.0
 40
0.0
 40
0.0
 40
0.0
 40
1.0
 40
1.0
 40
1.0
 40
1.0
 10
223.8088798174025
 20
47.8815717234443
 42
1.0
 10
221.4504118174025
 20
47.76985172344426
 42
1.0
 10
219.6218494174025
 20
46.78714692344431
 42
1.0
 10
218.3227222174025
 20
45.60201332344431
 42
1.0
 72
     4
 94
        3
 73
     1
 74
     0
 95
        8
 96
        4
 40
0.0
 40
0.0
 40
0.0
 40
0.0
 40
1.0
 40
1.0
 40
1.0
 40
1.0
 10
218.3227222174025
 20
45.60201332344431
 42
1.0
 10
216.9868254174025
 20
44.38493172344428
 42
1.0
 10
215.9863865374025
 20
42.7055645234443
 42
1.0
 10
215.6676748574025
 20
40.56261812344429
 42
1.0
 72
     4
 94
        3
 73
     1
 74
     0
 95
        8
 96
        4
 40
0.0
 40
0.0
 40
0.0
 40
0.0
 40
1.0
 40
1.0
 40
1.0
 40
1.0
 10
215.6676748574025
 20
40.56261812344429
 42
1.0
 10
215.2971015774025
 20
38.0750253234443
 42
1.0
 10
216.0241949374025
 20
35.95908772344429
 42
1.0
 10
217.0716228574025
 20
34.47140852344431
 42
1.0
 72
     4
 94
        3
 73
     1
 74
     0
 95
        8
 96
        4
 40
0.0
 40
0.0
 40
0.0
 40
0.0
 40
1.0
 40
1.0
 40
1.0
 40
1.0
 10
217.0716228574025
 20
34.47140852344431
 42
1.0
 10
218.1633742174025
 20
32.92104852344428
 42
1.0
 10
219.5581102174025
 20
31.78503252344429
 42
1.0
 10
221.4606822174025
 20
31.16273252344427
 42
1.0
 97
        0
 92
        0
 93
        9
 72
     4
 94
        3
 73
     1
 74
     0
 95
        8
 96
        4
 40
0.0
 40
0.0
 40
0.0
 40
0.0
 40
1.0
 40
1.0
 40
1.0
 40
1.0
 10
219.2880222174025
 20
38.63464452344427
 42
1.0
 10
219.4263198174025
 20
37.73092772344426
 42
1.0
 10
219.8358030174025
 20
36.91791972344429
 42
1.0
 10
220.3414046174024
 20
36.31290692344429
 42
1.0
 72
     4
 94
        3
 73
     1
 74
     0
 95
        8
 96
        4
 40
0.0
 40
0.0
 40
0.0
 40
0.0
 40
1.0
 40
1.0
 40
1.0
 40
1.0
 10
220.3414046174024
 20
36.31290692344429
 42
1.0
 10
221.3877702174025
 20
35.05913412344429
 42
1.0
 10
223.1190774174025
 20
34.20508372344429
 42
1.0
 10
225.1696294174025
 20
34.62534692344431
 42
1.0
 72
     4
 94
        3
 73
     1
 74
     0
 95
        8
 96
        4
 40
0.0
 40
0.0
 40
0.0
 40
0.0
 40
1.0
 40
1.0
 40
1.0
 40
1.0
 10
225.1696294174025
 20
34.62534692344431
 42
1.0
 10
226.9749462174025
 20
34.99594372344429
 42
1.0
 10
228.1277006174025
 20
36.13466452344431
 42
1.0
 10
228.7904942174025
 20
37.75793652344426
 42
1.0
 72
     4
 94
        3
 73
     1
 74
     0
 95
        8
 96
        4
 40
0.0
 40
0.0
 40
0.0
 40
0.0
 40
1.0
 40
1.0
 40
1.0
 40
1.0
 10
228.7904942174025
 20
37.75793652344426
 42
1.0
 10
227.2088918174025
 20
37.73037892344426
 42
1.0
 10
225.5947534174025
 20
37.73578852344426
 42
1.0
 10
223.9844566174025
 20
37.7368469234443
 42
1.0
 72
     1
 10
223.9844566174025
 20
37.7368469234443
 11
223.9844566174025
 21
39.94894212344428
 72
     4
 94
        3
 73
     1
 74
     0
 95
        8
 96
        4
 40
0.0
 40
0.0
 40
0.0
 40
0.0
 40
1.0
 40
1.0
 40
1.0
 40
1.0
 10
223.9844566174025
 20
39.94894212344428
 42
1.0
 10
224.8892710174025
 20
41.20761492344431
 42
1.0
 10
225.8724070174025
 20
42.38847572344427
 42
1.0
 10
226.7713022174025
 20
43.65298932344429
 42
1.0
 72
     4
 94
        3
 73
     1
 74
     0
 95
        8
 96
        4
 40
0.0
 40
0.0
 40
0.0
 40
0.0
 40
1.0
 40
1.0
 40
1.0
 40
1.0
 10
226.7713022174025
 20
43.65298932344429
 42
1.0
 10
225.9588430174025
 20
44.04142212344429
 42
1.0
 10
224.9691998174025
 20
44.29700612344427
 42
1.0
 10
223.7208366174025
 20
44.20073092344428
 42
1.0
 72
     4
 94
        3
 73
     1
 74
     0
 95
        8
 96
        4
 40
0.0
 40
0.0
 40
0.0
 40
0.0
 40
1.0
 40
1.0
 40
1.0
 40
1.0
 10
223.7208366174025
 20
44.20073092344428
 42
1.0
 10
221.8096406174025
 20
44.0516925234443
 42
1.0
 10
220.4197262174025
 20
42.85836612344428
 42
1.0
 10
219.7272190174025
 20
41.46206212344429
 42
1.0
 72
     4
 94
        3
 73
     1
 74
     0
 95
        8
 96
        4
 40
0.0
 40
0.0
 40
0.0
 40
0.0
 40
1.0
 40
1.0
 40
1.0
 40
1.0
 10
219.7272190174025
 20
41.46206212344429
 42
1.0
 10
219.3420398174025
 20
40.68515732344429
 42
1.0
 10
219.1329862174025
 20
39.65129652344427
 42
1.0
 10
219.2880222174025
 20
38.63464452344427
 42
1.0
 97
        0
 75
     0
 76
     1
 98
        1
 10
0.0
 20
0.0
  0
HATCH
  5
71
330
1F
100
AcDbEntity
  8
0
  6
Continuous
 62
     7
100
AcDbHatch
 10
0.0
 20
0.0
 30
0.0
210
0.0
220
0.0
230
1.0
  2
SOLID
 70
     1
 71
     0
 91
        1
 92
        0
 93
        6
 72
     1
 10
425.2052913753039
 20
23.70223575669065
 11
428.2543077834844
 21
23.70223575669065
 72
     1
 10
428.2543077834844
 20
23.70223575669065
 11
428.2543077834844
 21
20.60889206173159
 72
     1
 10
428.2543077834844
 20
20.60889206173159
 11
428.6052913753039
 21
20.60889206173159
 72
     1
 10
428.6052913753039
 20
20.60889206173159
 11
428.6052913753039
 21
24.00889206173155
 72
     1
 10
428.6052913753039
 20
24.00889206173155
 11
425.2052913753039
 21
24.00889206173155
 72
     1
 10
425.2052913753039
 20
24.00889206173155
 11
425.2052913753039
 21
23.70223575669065
 97
        0
 75
     0
 76
     1
 98
        1
 10
0.0
 20
0.0
  0
HATCH
  5
72
330
1F
100
AcDbEntity
  8
0
  6
Continuous
 62
     7
100
AcDbHatch
 10
0.0
 20
0.0
 30
0.0
210
0.0
220
0.0
230
1.0
  2
SOLID
 70
     1
 71
     0
 91
        1
 92
        0
 93
        3
 72
     1
 10
428.6052913753039
 20
24.00889206173155
 11
430.2924199303846
 21
26.54866764838211
 72
     1
 10
430.2924199303846
 20
26.54866764838211
 11
431.1449870858215
 21
25.69742449575267
 72
     1
 10
431.1449870858215
 20
25.69742449575267
 11
428.6052913753039
 21
24.00889206173155
 97
        0
 75
     0
 76
     1
 98
        1
 10
0.0
 20
0.0
  0
HATCH
  5
73
330
1F
100
AcDbEntity
  8
0
  6
Continuous
 62
     7
100
AcDbHatch
 10
0.0
 20
0.0
 30
0.0
210
0.0
220
0.0
230
1.0
  2
SOLID
 70
     1
 71
     0
 91
        1
 92
        0
 93
        3
 72
     1
 10
454.1579315854488
 20
21.51203182374566
 11
455.9224558729002
 21
24.05796415731785
 72
     1
 10
455.9224558729002
 20
24.05796415731785
 11
456.7081536174664
 21
23.27192067463794
 72
     1
 10
456.7081536174664
 20
23.27192067463794
 11
454.1579315854488
 21
21.51203182374566
 97
        0
 75
     0
 76
     1
 98
        1
 10
0.0
 20
0.0
  0
HATCH
  5
74
330
1F
100
AcDbEntity
  8
0
  6
Continuous
 62
     7
100
AcDbHatch
 10
0.0
 20
0.0
 30
0.0
210
0.0
220
0.0
230
1.0
  2
SOLID
 70
     1
 71
     0
 91
        1
 92
        0
 93
        6
 72
     1
 10
454.1579315854488
 20
21.51203182374566
 11
454.1579315854488
 21
24.80537551870475
 72
     1
 10
454.1579315854488
 20
24.80537551870475
 11
453.8069479936292
 21
24.80537551870475
 72
     1
 10
453.8069479936292
 20
24.80537551870475
 11
453.8069479936292
 21
21.20537551870476
 72
     1
 10
453.8069479936292
 20
21.20537551870476
 11
457.4069479936292
 21
21.20537551870476
 72
     1
 10
457.4069479936292
 20
21.20537551870476
 11
457.4069479936292
 21
21.51203182374566
 72
     1
 10
457.4069479936292
 20
21.51203182374566
 11
454.1579315854488
 21
21.51203182374566
 97
        0
 75
     0
 76
     1
 98
        1
 10
0.0
 20
0.0
  0
LINE
  5
75
330
1F
100
AcDbEntity
  8
0
  6
Continuous
 62
     7
370
    18
100
AcDbLine
 10
584.0
 20
210.0
 30
0.0
 11
574.0
 21
210.0
 31
0.0
  0
LINE
  5
76
330
1F
100
AcDbEntity
  8
SLD-0
100
AcDbLine
 10
204.0138959873
 20
20.0
 30
0.0
 11
574.0
 21
20.0
 31
0.0
  0
LINE
  5
77
330
1F
100
AcDbEntity
  8
SLD-0
100
AcDbLine
 10
396.9212807574
 20
52.5
 30
0.0
 11
366.2827411496
 21
52.5
 31
0.0
  0
LINE
  5
78
330
1F
100
AcDbEntity
  8
0
  6
Continuous
 62
     7
370
    18
100
AcDbLine
 10
20.0
 20
20.0
 30
0.0
 11
204.0138959873
 21
20.0
 31
0.0
  0
LINE
  5
79
330
1F
100
AcDbEntity
  8
SLD-0
 62
     7
100
AcDbLine
 10
204.1931689225
 20
101.5
 30
0.0
 11
574.0
 21
101.5
 31
0.0
  0
LINE
  5
7A
330
1F
100
AcDbEntity
  8
0
  6
Continuous
 62
     7
370
    18
100
AcDbLine
 10
574.0
 20
400.0
 30
0.0
 11
574.0
 21
133.5000001063
 31
0.0
  0
LINE
  5
7B
330
1F
100
AcDbEntity
  8
SLD-0
100
AcDbLine
 10
366.2827411496
 20
52.5
 30
0.0
 11
335.6442015419
 21
52.5
 31
0.0
  0
LINE
  5
7C
330
1F
100
AcDbEntity
  8
SLD-0
 62
     7
100
AcDbLine
 10
396.9212807574
 20
52.5
 30
0.0
 11
574.0069479936
 21
52.5
 31
0.0
  0
LINE
  5
7D
330
1F
100
AcDbEntity
  8
SLD-0
100
AcDbLine
 10
259.4044672674
 20
65.5
 30
0.0
 11
259.4044672674
 21
52.5
 31
0.0
  0
LINE
  5
7E
330
1F
100
AcDbEntity
  8
SLD-0
100
AcDbLine
 10
335.6442015419
 20
52.5
 30
0.0
 11
305.0056619342
 21
52.5
 31
0.0
  0
LINE
  5
7F
330
1F
100
AcDbEntity
  8
SLD-0
100
AcDbLine
 10
305.0056619342
 20
46.0
 30
0.0
 11
305.0056619342
 21
52.5
 31
0.0
  0
LINE
  5
80
330
1F
100
AcDbEntity
  8
SLD-0
100
AcDbLine
 10
204.0138959873
 20
101.5
 30
0.0
 11
204.0138959873
 21
20.0
 31
0.0
  0
LINE
  5
81
330
1F
100
AcDbEntity
  8
SLD-0
100
AcDbLine
 10
305.0056619342
 20
46.0
 30
0.0
 11
305.0056619342
 21
33.0
 31
0.0
  0
LINE
  5
82
330
1F
100
AcDbEntity
  8
SLD-0
100
AcDbLine
 10
305.0056619342
 20
87.1
 30
0.0
 11
305.0056619342
 21
101.5
 31
0.0
  0
LINE
  5
83
330
1F
100
AcDbEntity
  8
SLD-0
100
AcDbLine
 10
501.3288870443
 20
33.0
 30
0.0
 11
501.3288870443
 21
20.0
 31
0.0
  0
LINE
  5
84
330
1F
100
AcDbEntity
  8
SLD-0
100
AcDbLine
 10
305.0056619342
 20
33.0
 30
0.0
 11
305.0056619342
 21
20.0
 31
0.0
  0
LINE
  5
85
330
1F
100
AcDbEntity
  8
SLD-0
100
AcDbLine
 10
204.0138959873
 20
101.5
 30
0.0
 11
204.0138959873
 21
133.5000001063
 31
0.0
  0
LINE
  5
86
330
1F
100
AcDbEntity
  8
SLD-0
100
AcDbLine
 10
335.6442015419
 20
52.5
 30
0.0
 11
335.6442015419
 21
46.0
 31
0.0
  0
LINE
  5
87
330
1F
100
AcDbEntity
  8
SLD-0
100
AcDbLine
 10
396.9212807574
 20
46.0
 30
0.0
 11
396.9212807574
 21
52.5
 31
0.0
  0
LINE
  5
88
330
1F
100
AcDbEntity
  8
SLD-0
100
AcDbLine
 10
204.0138959873
 20
133.5000001063
 30
0.0
 11
223.2138959873
 21
133.5000001063
 31
0.0
  0
LINE
  5
89
330
1F
100
AcDbEntity
  8
SLD-0
100
AcDbLine
 10
501.3288870443
 20
33.0
 30
0.0
 11
501.3288870443
 21
52.5
 31
0.0
  0
LINE
  5
8A
330
1F
100
AcDbEntity
  8
SLD-0
100
AcDbLine
 10
204.0138959873
 20
20.0
 30
0.0
 11
574.0
 21
20.0
 31
0.0
  0
LINE
  5
8B
330
1F
100
AcDbEntity
  8
SLD-0
100
AcDbLine
 10
546.3723072232
 20
101.5
 30
0.0
 11
546.3723072232
 21
74.2439171129
 31
0.0
  0
LINE
  5
8C
330
1F
100
AcDbEntity
  8
SLD-0
 62
     7
100
AcDbLine
 10
396.9212807574
 20
33.0
 30
0.0
 11
574.0069479936
 21
33.0
 31
0.0
  0
LINE
  5
8D
330
1F
100
AcDbEntity
  8
0
  6
Continuous
 62
     7
370
    18
100
AcDbLine
 10
10.0
 20
10.0
 30
0.0
 11
584.0
 21
10.0
 31
0.0
  0
LINE
  5
8E
330
1F
100
AcDbEntity
  8
SLD-0
100
AcDbLine
 10
511.2938433777
 20
40.3380880005
 30
0.0
 11
540.3726203094
 21
40.3380880005
 31
0.0
  0
LINE
  5
8F
330
1F
100
AcDbEntity
  8
0
  6
Continuous
 62
     7
370
    18
100
AcDbLine
 10
297.0
 20
20.0
 30
0.0
 11
297.0
 21
10.0
 31
0.0
  0
LINE
  5
90
330
1F
100
AcDbEntity
  8
0
  6
Continuous
 62
     7
370
    18
100
AcDbLine
 10
397.0
 20
20.0
 30
0.0
 11
397.0
 21
10.0
 31
0.0
  0
LINE
  5
91
330
1F
100
AcDbEntity
  8
0
  6
Continuous
 62
     7
370
    18
100
AcDbLine
 10
497.0
 20
20.0
 30
0.0
 11
497.0
 21
10.0
 31
0.0
  0
LINE
  5
92
330
1F
100
AcDbEntity
  8
0
  6
Continuous
 62
     7
370
    18
100
AcDbLine
 10
574.0
 20
110.0
 30
0.0
 11
584.0
 21
110.0
 31
0.0
  0
LINE
  5
93
330
1F
100
AcDbEntity
  8
SLD-0
100
AcDbLine
 10
511.2938433777
 20
40.3380880005
 30
0.0
 11
507.2142253553
 21
40.3380880005
 31
0.0
  0
LINE
  5
94
330
1F
100
AcDbEntity
  8
SLD-0
100
AcDbLine
 10
533.1398532057
 20
40.3380880006
 30
0.0
 11
533.1398532057
 21
47.4011161994
 31
0.0
  0
LINE
  5
95
330
1F
100
AcDbEntity
  8
SLD-0
100
AcDbLine
 10
533.1398532057
 20
40.3380880006
 30
0.0
 11
533.1398532057
 21
33.7592049633
 31
0.0
  0
LINE
  5
96
330
1F
100
AcDbEntity
  8
SLD-0
  6
Continuous
 62
     5
420
      255
100
AcDbLine
 10
511.2938433777
 20
43.1770568898
 30
0.0
 11
523.1311836257
 21
45.3285690774
 31
0.0
  0
LINE
  5
97
330
1F
100
AcDbEntity
  8
SLD-0
  6
Continuous
 62
     5
420
      255
100
AcDbLine
 10
523.1311836257
 20
35.3476069234
 30
0.0
 11
523.1311836257
 21
45.3285690774
 31
0.0
  0
LINE
  5
98
330
1F
100
AcDbEntity
  8
0
  6
Continuous
 62
     7
370
    18
100
AcDbLine
 10
574.0
 20
400.0
 30
0.0
 11
20.0
 21
400.0
 31
0.0
  0
LINE
  5
99
330
1F
100
AcDbEntity
  8
0
  6
Continuous
 62
     7
370
    18
100
AcDbLine
 10
584.0
 20
410.0
 30
0.0
 11
10.0
 21
410.0
 31
0.0
  0
LINE
  5
9A
330
1F
100
AcDbEntity
  8
0
  6
Continuous
 62
     7
370
    18
100
AcDbLine
 10
20.0
 20
400.0
 30
0.0
 11
20.0
 21
20.0
 31
0.0
  0
LINE
  5
9B
330
1F
100
AcDbEntity
  8
0
  6
Continuous
 62
     7
370
    18
100
AcDbLine
 10
10.0
 20
410.0
 30
0.0
 11
10.0
 21
10.0
 31
0.0
  0
LINE
  5
9C
330
1F
100
AcDbEntity
  8
0
  6
Continuous
 62
     7
370
    18
100
AcDbLine
 10
20.0
 20
110.0
 30
0.0
 11
10.0
 21
110.0
 31
0.0
  0
LINE
  5
9D
330
1F
100
AcDbEntity
  8
0
  6
Continuous
 62
     7
370
    18
100
AcDbLine
 10
10.0
 20
210.0
 30
0.0
 11
20.0
 21
210.0
 31
0.0
  0
LINE
  5
9E
330
1F
100
AcDbEntity
  8
SLD-0
  6
Continuous
 62
     5
420
      255
100
AcDbLine
 10
511.2938433777
 20
37.4991191112
 30
0.0
 11
511.2938433777
 21
43.1770568898
 31
0.0
  0
LINE
  5
9F
330
1F
100
AcDbEntity
  8
SLD-0
  6
Continuous
 62
     5
420
      255
100
AcDbLine
 10
523.1311836257
 20
35.3476069234
 30
0.0
 11
511.2938433777
 21
37.4991191112
 31
0.0
  0
LINE
  5
A0
330
1F
100
AcDbEntity
  8
0
  6
Continuous
 62
     7
370
    18
100
AcDbLine
 10
97.0
 20
10.0
 30
0.0
 11
97.0
 21
20.0
 31
0.0
  0
LINE
  5
A1
330
1F
100
AcDbEntity
  8
0
  6
Continuous
 62
     7
370
    18
100
AcDbLine
 10
197.0
 20
20.0
 30
0.0
 11
197.0
 21
10.0
 31
0.0
  0
LINE
  5
A2
330
1F
100
AcDbEntity
  8
0
  6
Continuous
 62
     7
370
    18
100
AcDbLine
 10
20.0
 20
310.0
 30
0.0
 11
10.0
 21
310.0
 31
0.0
  0
LINE
  5
A3
330
1F
100
AcDbEntity
  8
0
  6
Continuous
 62
     7
370
    18
100
AcDbLine
 10
97.0
 20
400.0
 30
0.0
 11
97.0
 21
410.0
 31
0.0
  0
LINE
  5
A4
330
1F
100
AcDbEntity
  8
0
  6
Continuous
 62
     7
370
    18
100
AcDbLine
 10
197.0
 20
410.0
 30
0.0
 11
197.0
 21
400.0
 31
0.0
  0
LINE
  5
A5
330
1F
100
AcDbEntity
  8
0
  6
Continuous
 62
     7
370
    18
100
AcDbLine
 10
297.0
 20
410.0
 30
0.0
 11
297.0
 21
400.0
 31
0.0
  0
LINE
  5
A6
330
1F
100
AcDbEntity
  8
0
  6
Continuous
 62
     7
370
    18
100
AcDbLine
 10
584.0
 20
10.0
 30
0.0
 11
584.0
 21
410.0
 31
0.0
  0
LINE
  5
A7
330
1F
100
AcDbEntity
  8
SLD-0
100
AcDbLine
 10
366.2827411496
 20
52.5
 30
0.0
 11
366.2827411496
 21
20.0
 31
0.0
  0
LINE
  5
A8
330
1F
100
AcDbEntity
  8
0
  6
Continuous
 62
     7
370
    18
100
AcDbLine
 10
397.0
 20
410.0
 30
0.0
 11
397.0
 21
400.0
 31
0.0
  0
LINE
  5
A9
330
1F
100
AcDbEntity
  8
0
  6
Continuous
 62
     7
370
    18
100
AcDbLine
 10
497.0
 20
400.0
 30
0.0
 11
497.0
 21
410.0
 31
0.0
  0
LINE
  5
AA
330
1F
100
AcDbEntity
  8
0
  6
Continuous
 62
     7
370
    18
100
AcDbLine
 10
574.0
 20
310.0
 30
0.0
 11
584.0
 21
310.0
 31
0.0
  0
LINE
  5
AB
330
1F
100
AcDbEntity
  8
SLD-0
100
AcDbLine
 10
305.0056619342
 20
46.0
 30
0.0
 11
335.6442015419
 21
46.0
 31
0.0
  0
LINE
  5
AC
330
1F
100
AcDbEntity
  8
SLD-0
100
AcDbLine
 10
305.0056619342
 20
33.0
 30
0.0
 11
335.6442015419
 21
33.0
 31
0.0
  0
LINE
  5
AD
330
1F
100
AcDbEntity
  8
SLD-0
100
AcDbLine
 10
219.0
 20
400.0
 30
0.0
 11
215.0
 21
400.0
 31
0.0
  0
LINE
  5
AE
330
1F
100
AcDbEntity
  8
SLD-0
100
AcDbLine
 10
335.6442015419
 20
46.0
 30
0.0
 11
396.9212807574
 21
46.0
 31
0.0
  0
LINE
  5
AF
330
1F
100
AcDbEntity
  8
SLD-0
100
AcDbLine
 10
335.6442015419
 20
33.0
 30
0.0
 11
396.9212807574
 21
33.0
 31
0.0
  0
LINE
  5
B0
330
1F
100
AcDbEntity
  8
SLD-0
100
AcDbLine
 10
305.0056619342
 20
52.5
 30
0.0
 11
204.0069479936
 21
52.5
 31
0.0
  0
LINE
  5
B1
330
1F
100
AcDbEntity
  8
SLD-0
100
AcDbLine
 10
396.9212807574
 20
46.0
 30
0.0
 11
396.9212807574
 21
33.0
 31
0.0
  0
LINE
  5
B2
330
1F
100
AcDbEntity
  8
SLD-0
100
AcDbLine
 10
59.0
 20
400.0
 30
0.0
 11
55.0
 21
400.0
 31
0.0
  0
LINE
  5
B3
330
1F
100
AcDbEntity
  8
SLD-0
100
AcDbLine
 10
379.0
 20
400.0
 30
0.0
 11
375.0
 21
400.0
 31
0.0
  0
LINE
  5
B4
330
1F
100
AcDbEntity
  8
SLD-0
100
AcDbLine
 10
539.0
 20
400.0
 30
0.0
 11
535.0
 21
400.0
 31
0.0
  0
LINE
  5
B5
330
1F
100
AcDbEntity
  8
SLD-0
100
AcDbLine
 10
223.2138959873
 20
125.5
 30
0.0
 11
204.0138959873
 21
125.5
 31
0.0
  0
LINE
  5
B6
330
1F
100
AcDbEntity
  8
SLD-0
 62
     7
100
AcDbLine
 10
204.0138959873
 20
109.5000001063
 30
0.0
 11
517.4001583411
 21
109.5000001063
 31
0.0
  0
LINE
  5
B7
330
1F
100
AcDbEntity
  8
SLD-0
 62
     7
100
AcDbLine
 10
223.2138959873
 20
108.5
 30
0.0
 11
223.2138959873
 21
101.5
 31
0.0
  0
LINE
  5
B8
330
1F
100
AcDbEntity
  8
SLD-0
 62
     7
100
AcDbLine
 10
546.3663072232
 20
109.5000001063
 30
0.0
 11
546.3723072232
 21
101.5
 31
0.0
  0
LINE
  5
B9
330
1F
100
AcDbEntity
  8
SLD-0
 62
     7
100
AcDbLine
 10
517.4001583411
 20
109.5000001063
 30
0.0
 11
517.4001583411
 21
101.5
 31
0.0
  0
LINE
  5
BA
330
1F
100
AcDbEntity
  8
SLD-0
100
AcDbLine
 10
223.2138959873
 20
117.5
 30
0.0
 11
204.0138959873
 21
117.5
 31
0.0
  0
LINE
  5
BB
330
1F
100
AcDbEntity
  8
SLD-0
100
AcDbLine
 10
574.0
 20
133.5000001063
 30
0.0
 11
574.0
 21
101.5
 31
0.0
  0
LINE
  5
BC
330
1F
100
AcDbEntity
  8
SLD-0
100
AcDbLine
 10
517.4001583411
 20
109.5000001063
 30
0.0
 11
546.3663072232
 21
109.5000001063
 31
0.0
  0
LINE
  5
BD
330
1F
100
AcDbEntity
  8
SLD-0
 62
     7
100
AcDbLine
 10
223.2138959873
 20
117.5
 30
0.0
 11
517.4001583411
 21
117.5
 31
0.0
  0
LINE
  5
BE
330
1F
100
AcDbEntity
  8
SLD-0
 62
     7
100
AcDbLine
 10
223.2138959873
 20
125.5
 30
0.0
 11
517.4001583411
 21
125.5
 31
0.0
  0
LINE
  5
BF
330
1F
100
AcDbEntity
  8
SLD-0
 62
     7
100
AcDbLine
 10
223.2138959873
 20
133.5000001063
 30
0.0
 11
517.4001583411
 21
133.5000001063
 31
0.0
  0
LINE
  5
C0
330
1F
100
AcDbEntity
  8
SLD-0
 62
     7
100
AcDbLine
 10
223.2138959873
 20
108.5
 30
0.0
 11
223.2138959873
 21
133.5000001063
 31
0.0
  0
LINE
  5
C1
330
1F
100
AcDbEntity
  8
SLD-0
 62
     7
100
AcDbLine
 10
517.4001583411
 20
109.5000001063
 30
0.0
 11
517.4001583411
 21
133.5000001063
 31
0.0
  0
LINE
  5
C2
330
1F
100
AcDbEntity
  8
SLD-0
 62
     7
100
AcDbLine
 10
546.3663072232
 20
109.5000001063
 30
0.0
 11
546.3663072232
 21
133.5000001063
 31
0.0
  0
LINE
  5
C3
330
1F
100
AcDbEntity
  8
SLD-0
100
AcDbLine
 10
396.9212807574
 20
33.0
 30
0.0
 11
396.9212807574
 21
20.0
 31
0.0
  0
LINE
  5
C4
330
1F
100
AcDbEntity
  8
SLD-0
100
AcDbLine
 10
396.9212807574
 20
52.5
 30
0.0
 11
396.9212807574
 21
74.2439171129
 31
0.0
  0
LINE
  5
C5
330
1F
100
AcDbEntity
  8
SLD-0
100
AcDbLine
 10
396.9212807574
 20
74.2439171129
 30
0.0
 11
396.9212807574
 21
87.1
 31
0.0
  0
LINE
  5
C6
330
1F
100
AcDbEntity
  8
SLD-0
100
AcDbLine
 10
574.0069479936
 20
74.2439171129
 30
0.0
 11
396.9212807574
 21
74.2439171129
 31
0.0
  0
LINE
  5
C7
330
1F
100
AcDbEntity
  8
SLD-0
100
AcDbLine
 10
396.9212807574
 20
65.5
 30
0.0
 11
204.0138959873
 21
65.5
 31
0.0
  0
LINE
  5
C8
330
1F
100
AcDbEntity
  8
SLD-0
100
AcDbLine
 10
396.9212807574
 20
87.1
 30
0.0
 11
204.0138959873
 21
87.1
 31
0.0
  0
LINE
  5
C9
330
1F
100
AcDbEntity
  8
SLD-0
100
AcDbLine
 10
396.9212807574
 20
87.1
 30
0.0
 11
396.9212807574
 21
101.5
 31
0.0
  0
LINE
  5
CA
330
1F
100
AcDbEntity
  8
SLD-0
100
AcDbLine
 10
574.0
 20
20.0
 30
0.0
 11
574.0
 21
133.5000001063
 31
0.0
  0
LINE
  5
CB
330
1F
100
AcDbEntity
  8
SLD-0
100
AcDbLine
 10
335.6442015419
 20
52.5
 30
0.0
 11
335.6442015419
 21
65.5
 31
0.0
  0
LINE
  5
CC
330
1F
100
AcDbEntity
  8
SLD-0
100
AcDbLine
 10
546.3723072232
 20
20.0
 30
0.0
 11
546.3723072232
 21
52.5
 31
0.0
  0
LINE
  5
CD
330
1F
100
AcDbEntity
  8
SLD-0
 62
   166
420
     8062
100
AcDbLine
 10
223.9844566174
 20
37.7368469234
 30
0.0
 11
223.9844566174
 21
39.9489421234
 31
0.0
  0
LINE
  5
CE
330
1F
100
AcDbEntity
  8
SLD-0
100
AcDbLine
 10
573.994
 20
109.5000001063
 30
0.0
 11
546.3663072232
 21
109.5000001063
 31
0.0
  0
LINE
  5
CF
330
1F
100
AcDbEntity
  8
SLD-0
100
AcDbLine
 10
468.4001583411
 20
101.5
 30
0.0
 11
468.4001583411
 21
133.5000002127
 31
0.0
  0
LINE
  5
D0
330
1F
100
AcDbEntity
  8
SLD-0
100
AcDbLine
 10
517.4001583411
 20
133.5000001063
 30
0.0
 11
546.3663072232
 21
133.5000001063
 31
0.0
  0
LINE
  5
D1
330
1F
100
AcDbEntity
  8
SLD-0
100
AcDbLine
 10
574.0
 20
133.5000001063
 30
0.0
 11
546.3663072232
 21
133.5000001063
 31
0.0
  0
LINE
  5
D2
330
1F
100
AcDbEntity
  8
SLD-0
100
AcDbLine
 10
517.4001583411
 20
125.5
 30
0.0
 11
574.0
 21
125.5
 31
0.0
  0
LINE
  5
D3
330
1F
100
AcDbEntity
  8
SLD-0
100
AcDbLine
 10
517.4001583411
 20
117.5
 30
0.0
 11
574.0
 21
117.5
 31
0.0
  0
LINE
  5
D4
330
1F
100
AcDbEntity
  8
SLD-0
100
AcDbLine
 10
425.2052913753
 20
24.0088920617
 30
0.0
 11
428.6052913753
 21
24.0088920617
 31
0.0
  0
LINE
  5
D5
330
1F
100
AcDbEntity
  8
SLD-0
100
AcDbLine
 10
428.6052913753
 20
24.0088920617
 30
0.0
 11
428.6052913753
 21
20.6088920617
 31
0.0
  0
LINE
  5
D6
330
1F
100
AcDbEntity
  8
SLD-0
100
AcDbLine
 10
428.6052913753
 20
24.0088920617
 30
0.0
 11
431.4911400712
 21
26.8992293362
 31
0.0
  0
LINE
  5
D7
330
1F
100
AcDbEntity
  8
SLD-0
100
AcDbLine
 10
431.4911400712
 20
26.8992293362
 30
0.0
 11
445.0600640968
 21
26.8992293362
 31
0.0
  0
LINE
  5
D8
330
1F
100
AcDbEntity
  8
SLD-0
100
AcDbLine
 10
428.6052913753
 20
24.0088920617
 30
0.0
 11
430.2924199304
 21
26.5486676484
 31
0.0
  0
LINE
  5
D9
330
1F
100
AcDbEntity
  8
SLD-0
100
AcDbLine
 10
430.2924199304
 20
26.5486676484
 30
0.0
 11
431.1449870858
 21
25.6974244958
 31
0.0
  0
LINE
  5
DA
330
1F
100
AcDbEntity
  8
SLD-0
100
AcDbLine
 10
431.1449870858
 20
25.6974244958
 30
0.0
 11
428.6052913753
 21
24.0088920617
 31
0.0
  0
LINE
  5
DB
330
1F
100
AcDbEntity
  8
SLD-0
100
AcDbLine
 10
432.3033539137
 20
32.1247061293
 30
0.0
 11
432.3033539137
 21
27.2247061293
 31
0.0
  0
LINE
  5
DC
330
1F
100
AcDbEntity
  8
SLD-0
100
AcDbLine
 10
432.3033539137
 20
27.2247061293
 30
0.0
 11
437.2033539137
 21
27.2247061293
 31
0.0
  0
LINE
  5
DD
330
1F
100
AcDbEntity
  8
SLD-0
100
AcDbLine
 10
425.2052913753
 20
24.0088920617
 30
0.0
 11
425.2052913753
 21
23.7022357567
 31
0.0
  0
LINE
  5
DE
330
1F
100
AcDbEntity
  8
SLD-0
100
AcDbLine
 10
425.2052913753
 20
23.7022357567
 30
0.0
 11
428.2543077835
 21
23.7022357567
 31
0.0
  0
LINE
  5
DF
330
1F
100
AcDbEntity
  8
SLD-0
100
AcDbLine
 10
428.2543077835
 20
23.7022357567
 30
0.0
 11
428.2543077835
 21
20.6088920617
 31
0.0
  0
LINE
  5
E0
330
1F
100
AcDbEntity
  8
SLD-0
100
AcDbLine
 10
428.2543077835
 20
20.6088920617
 30
0.0
 11
428.6052913753
 21
20.6088920617
 31
0.0
  0
LINE
  5
E1
330
1F
100
AcDbEntity
  8
SLD-0
100
AcDbLine
 10
457.4069479936
 20
21.2053755187
 30
0.0
 11
453.8069479936
 21
21.2053755187
 31
0.0
  0
LINE
  5
E2
330
1F
100
AcDbEntity
  8
SLD-0
100
AcDbLine
 10
453.8069479936
 20
21.2053755187
 30
0.0
 11
453.8069479936
 21
24.8053755187
 31
0.0
  0
LINE
  5
E3
330
1F
100
AcDbEntity
  8
SLD-0
100
AcDbLine
 10
454.1579315854
 20
21.5120318237
 30
0.0
 11
457.0858528272
 21
24.4386652309
 31
0.0
  0
LINE
  5
E4
330
1F
100
AcDbEntity
  8
SLD-0
100
AcDbLine
 10
457.0858528272
 20
24.4386652309
 30
0.0
 11
470.6547768528
 21
24.4386652309
 31
0.0
  0
LINE
  5
E5
330
1F
100
AcDbEntity
  8
SLD-0
100
AcDbLine
 10
454.1579315854
 20
21.5120318237
 30
0.0
 11
455.9224558729
 21
24.0579641573
 31
0.0
  0
LINE
  5
E6
330
1F
100
AcDbEntity
  8
SLD-0
100
AcDbLine
 10
455.9224558729
 20
24.0579641573
 30
0.0
 11
456.7081536175
 21
23.2719206746
 31
0.0
  0
LINE
  5
E7
330
1F
100
AcDbEntity
  8
SLD-0
100
AcDbLine
 10
456.7081536175
 20
23.2719206746
 30
0.0
 11
454.1579315854
 21
21.5120318237
 31
0.0
  0
LINE
  5
E8
330
1F
100
AcDbEntity
  8
SLD-0
100
AcDbLine
 10
457.5061583411
 20
29.7053755187
 30
0.0
 11
457.5061583411
 21
24.8053755187
 31
0.0
  0
LINE
  5
E9
330
1F
100
AcDbEntity
  8
SLD-0
100
AcDbLine
 10
457.5061583411
 20
24.8053755187
 30
0.0
 11
462.4061583411
 21
24.8053755187
 31
0.0
  0
LINE
  5
EA
330
1F
100
AcDbEntity
  8
SLD-0
100
AcDbLine
 10
457.4069479936
 20
21.2053755187
 30
0.0
 11
457.4069479936
 21
21.5120318237
 31
0.0
  0
LINE
  5
EB
330
1F
100
AcDbEntity
  8
SLD-0
100
AcDbLine
 10
457.4069479936
 20
21.5120318237
 30
0.0
 11
454.1579315854
 21
21.5120318237
 31
0.0
  0
LINE
  5
EC
330
1F
100
AcDbEntity
  8
SLD-0
100
AcDbLine
 10
454.1579315854
 20
21.5120318237
 30
0.0
 11
454.1579315854
 21
24.8053755187
 31
0.0
  0
LINE
  5
ED
330
1F
100
AcDbEntity
  8
SLD-0
100
AcDbLine
 10
454.1579315854
 20
24.8053755187
 30
0.0
 11
453.8069479936
 21
24.8053755187
 31
0.0
  0
LINE
  5
EE
330
1F
100
AcDbEntity
  8
SLD-0
100
AcDbLine
 10
335.6442015419
 20
20.0
 30
0.0
 11
335.6442015419
 21
46.0
 31
0.0
  0
CIRCLE
  5
EF
330
1F
100
AcDbEntity
  8
SLD-0
  6
Continuous
 62
     5
420
      255
100
AcDbCircle
 10
533.1398532057
 20
40.3380880006
 30
0.0
 40
2.848487949599522
  0
CIRCLE
  5
F0
330
1F
100
AcDbEntity
  8
SLD-0
  6
Continuous
 62
     5
420
      255
100
AcDbCircle
 10
533.1398532057
 20
40.3380880006
 30
0.0
 40
4.990481078200074
  0
ARC
  5
F1
330
1F
100
AcDbEntity
  8
SLD-0
100
AcDbCircle
 10
217.0
 20
400.0
 30
0.0
 40
2.0
100
AcDbArc
 50
0.0
 51
180.0
  0
ARC
  5
F2
330
1F
100
AcDbEntity
  8
SLD-0
100
AcDbCircle
 10
57.0
 20
400.0
 30
0.0
 40
2.000000000000004
100
AcDbArc
 50
0.0
 51
180.0
  0
ARC
  5
F3
330
1F
100
AcDbEntity
  8
SLD-0
100
AcDbCircle
 10
377.0
 20
400.0
 30
0.0
 40
2.0
100
AcDbArc
 50
0.0
 51
180.0
  0
ARC
  5
F4
330
1F
100
AcDbEntity
  8
SLD-0
100
AcDbCircle
 10
537.0
 20
400.0
 30
0.0
 40
2.0
100
AcDbArc
 50
0.0
 51
180.0
  0
SPLINE
  5
F5
330
1F
100
AcDbEntity
  8
SLD-0
 62
   166
420
     8062
100
AcDbSpline
210
0.0
220
0.0
230
1.0
 70
     8
 71
     3
 72
     8
 73
     4
 74
     0
 42
0.00000001
 43
0.00000001
 40
0.0
 40
0.0
 40
0.0
 40
0.0
 40
1.0
 40
1.0
 40
1.0
 40
1.0
 10
234.8471294174025
 20
41.28589732344427
 30
0.0
 10
235.5343054174025
 20
37.57804772344429
 30
0.0
 10
234.1735166174026
 20
34.4821885234443
 30
0.0
 10
232.5653758174025
 20
32.47753972344429
 30
0.0
  0
SPLINE
  5
F6
330
1F
100
AcDbEntity
  8
SLD-0
 62
   166
420
     8062
100
AcDbSpline
210
0.0
220
0.0
230
1.0
 70
     8
 71
     3
 72
     8
 73
     4
 74
     0
 42
0.00000001
 43
0.00000001
 40
0.0
 40
0.0
 40
0.0
 40
0.0
 40
1.0
 40
1.0
 40
1.0
 40
1.0
 10
232.5653758174025
 20
32.47753972344429
 30
0.0
 10
230.8854206174025
 20
30.38485948344428
 30
0.0
 10
228.3815990174025
 20
28.81020724344428
 30
0.0
 10
225.0815862174025
 20
28.4904136434443
 30
0.0
  0
SPLINE
  5
F7
330
1F
100
AcDbEntity
  8
SLD-0
 62
   166
420
     8062
100
AcDbSpline
210
0.0
220
0.0
230
1.0
 70
     8
 71
     3
 72
     8
 73
     4
 74
     0
 42
0.00000001
 43
0.00000001
 40
0.0
 40
0.0
 40
0.0
 40
0.0
 40
1.0
 40
1.0
 40
1.0
 40
1.0
 10
225.0815862174025
 20
28.4904136434443
 30
0.0
 10
223.1887358174025
 20
28.3062128434443
 30
0.0
 10
221.5136022174025
 20
28.65408932344431
 30
0.0
 10
220.1442286174025
 20
29.19049820344429
 30
0.0
  0
SPLINE
  5
F8
330
1F
100
AcDbEntity
  8
SLD-0
 62
   166
420
     8062
100
AcDbSpline
210
0.0
220
0.0
230
1.0
 70
     8
 71
     3
 72
     8
 73
     4
 74
     0
 42
0.00000001
 43
0.00000001
 40
0.0
 40
0.0
 40
0.0
 40
0.0
 40
1.0
 40
1.0
 40
1.0
 40
1.0
 10
220.1442286174025
 20
29.19049820344429
 30
0.0
 10
218.7467486174025
 20
29.7393256434443
 30
0.0
 10
217.6231590174025
 20
30.4621070034443
 30
0.0
 10
216.6108464574025
 20
31.38205652344427
 30
0.0
  0
SPLINE
  5
F9
330
1F
100
AcDbEntity
  8
SLD-0
 62
   166
420
     8062
100
AcDbSpline
210
0.0
220
0.0
230
1.0
 70
     8
 71
     3
 72
     8
 73
     4
 74
     0
 42
0.00000001
 43
0.00000001
 40
0.0
 40
0.0
 40
0.0
 40
0.0
 40
1.0
 40
1.0
 40
1.0
 40
1.0
 10
216.6108464574025
 20
31.38205652344427
 30
0.0
 10
216.9117338974025
 20
31.75857252344429
 30
0.0
 10
217.2396262174025
 20
32.07401492344429
 30
0.0
 10
217.5983062174025
 20
32.47753972344429
 30
0.0
  0
SPLINE
  5
FA
330
1F
100
AcDbEntity
  8
SLD-0
 62
   166
420
     8062
100
AcDbSpline
210
0.0
220
0.0
230
1.0
 70
     8
 71
     3
 72
     8
 73
     4
 74
     0
 42
0.00000001
 43
0.00000001
 40
0.0
 40
0.0
 40
0.0
 40
0.0
 40
1.0
 40
1.0
 40
1.0
 40
1.0
 10
217.5983062174025
 20
32.47753972344429
 30
0.0
 10
217.6620454174025
 20
32.54939332344429
 30
0.0
 10
217.9262142174025
 20
32.8000381234443
 30
0.0
 10
217.9278214174025
 20
32.82814452344428
 30
0.0
  0
SPLINE
  5
FB
330
1F
100
AcDbEntity
  8
SLD-0
 62
   166
420
     8062
100
AcDbSpline
210
0.0
220
0.0
230
1.0
 70
     8
 71
     3
 72
     8
 73
     4
 74
     0
 42
0.00000001
 43
0.00000001
 40
0.0
 40
0.0
 40
0.0
 40
0.0
 40
1.0
 40
1.0
 40
1.0
 40
1.0
 10
217.9278214174025
 20
32.82814452344428
 30
0.0
 10
217.9305262174025
 20
32.90160532344429
 30
0.0
 10
217.4594990174025
 20
33.31108852344429
 30
0.0
 10
217.4005814174025
 20
33.37588612344429
 30
0.0
  0
SPLINE
  5
FC
330
1F
100
AcDbEntity
  8
SLD-0
 62
   166
420
     8062
100
AcDbSpline
210
0.0
220
0.0
230
1.0
 70
     8
 71
     3
 72
     8
 73
     4
 74
     0
 42
0.00000001
 43
0.00000001
 40
0.0
 40
0.0
 40
0.0
 40
0.0
 40
1.0
 40
1.0
 40
1.0
 40
1.0
 10
217.4005814174025
 20
33.37588612344429
 30
0.0
 10
216.2905118974025
 20
34.6221325234443
 30
0.0
 10
215.3851486974025
 20
36.40635972344429
 30
0.0
 10
215.2063535774025
 20
38.54715012344427
 30
0.0
  0
SPLINE
  5
FD
330
1F
100
AcDbEntity
  8
SLD-0
 62
   166
420
     8062
100
AcDbSpline
210
0.0
220
0.0
230
1.0
 70
     8
 71
     3
 72
     8
 73
     4
 74
     0
 42
0.00000001
 43
0.00000001
 40
0.0
 40
0.0
 40
0.0
 40
0.0
 40
1.0
 40
1.0
 40
1.0
 40
1.0
 10
215.2063535774025
 20
38.54715012344427
 30
0.0
 10
214.9800049374025
 20
41.26100532344427
 30
0.0
 10
215.9042703774025
 20
43.3526389234443
 30
0.0
 10
217.1596856574025
 20
44.92357892344427
 30
0.0
  0
SPLINE
  5
FE
330
1F
100
AcDbEntity
  8
SLD-0
 62
   166
420
     8062
100
AcDbSpline
210
0.0
220
0.0
230
1.0
 70
     8
 71
     3
 72
     8
 73
     4
 74
     0
 42
0.00000001
 43
0.00000001
 40
0.0
 40
0.0
 40
0.0
 40
0.0
 40
1.0
 40
1.0
 40
1.0
 40
1.0
 10
217.1596856574025
 20
44.92357892344427
 30
0.0
 10
218.3816006174025
 20
46.45237892344429
 30
0.0
 10
220.1383094174025
 20
47.65311412344429
 30
0.0
 10
222.4043830174025
 20
48.10089572344427
 30
0.0
  0
SPLINE
  5
FF
330
1F
100
AcDbEntity
  8
SLD-0
 62
   166
420
     8062
100
AcDbSpline
210
0.0
220
0.0
230
1.0
 70
     8
 71
     3
 72
     8
 73
     4
 74
     0
 42
0.00000001
 43
0.00000001
 40
0.0
 40
0.0
 40
0.0
 40
0.0
 40
1.0
 40
1.0
 40
1.0
 40
1.0
 10
222.4043830174025
 20
48.10089572344427
 30
0.0
 10
224.9989526174025
 20
48.61312212344431
 30
0.0
 10
227.4865846174025
 20
47.90701252344427
 30
0.0
 10
229.1416086174025
 20
46.7635093234443
 30
0.0
  0
SPLINE
  5
100
330
1F
100
AcDbEntity
  8
SLD-0
 62
   166
420
     8062
100
AcDbSpline
210
0.0
220
0.0
230
1.0
 70
     8
 71
     3
 72
     8
 73
     4
 74
     0
 42
0.00000001
 43
0.00000001
 40
0.0
 40
0.0
 40
0.0
 40
0.0
 40
1.0
 40
1.0
 40
1.0
 40
1.0
 10
229.1416086174025
 20
46.7635093234443
 30
0.0
 10
229.5808054174025
 20
47.2382605234443
 30
0.0
 10
229.9183958174025
 20
47.81355972344429
 30
0.0
 10
230.3490078174025
 20
48.29756212344429
 30
0.0
  0
SPLINE
  5
101
330
1F
100
AcDbEntity
  8
SLD-0
 62
   166
420
     8062
100
AcDbSpline
210
0.0
220
0.0
230
1.0
 70
     8
 71
     3
 72
     8
 73
     4
 74
     0
 42
0.00000001
 43
0.00000001
 40
0.0
 40
0.0
 40
0.0
 40
0.0
 40
1.0
 40
1.0
 40
1.0
 40
1.0
 10
230.3490078174025
 20
48.29756212344429
 30
0.0
 10
230.3668438174025
 20
48.30199172344428
 30
0.0
 10
230.3689214174025
 20
48.28952612344427
 30
0.0
 10
230.3706070174025
 20
48.27541412344431
 30
0.0
  0
SPLINE
  5
102
330
1F
100
AcDbEntity
  8
SLD-0
 62
   166
420
     8062
100
AcDbSpline
210
0.0
220
0.0
230
1.0
 70
     8
 71
     3
 72
     8
 73
     4
 74
     0
 42
0.00000001
 43
0.00000001
 40
0.0
 40
0.0
 40
0.0
 40
0.0
 40
1.0
 40
1.0
 40
1.0
 40
1.0
 10
230.3706070174025
 20
48.27541412344431
 30
0.0
 10
232.5928942174025
 20
46.63865732344428
 30
0.0
 10
234.2577574174025
 20
44.46929012344429
 30
0.0
 10
234.8471294174025
 20
41.28589732344427
 30
0.0
  0
SPLINE
  5
103
330
1F
100
AcDbEntity
  8
SLD-0
 62
   166
420
     8062
100
AcDbSpline
210
0.0
220
0.0
230
1.0
 70
     8
 71
     3
 72
     8
 73
     4
 74
     0
 42
0.00000001
 43
0.00000001
 40
0.0
 40
0.0
 40
0.0
 40
0.0
 40
1.0
 40
1.0
 40
1.0
 40
1.0
 10
231.7750646174025
 20
35.34760692344428
 30
0.0
 10
232.6571822174025
 20
37.01623332344427
 30
0.0
 10
233.0423222174025
 20
39.47140772344428
 30
0.0
 10
232.3893286174025
 20
41.70243652344428
 30
0.0
  0
SPLINE
  5
104
330
1F
100
AcDbEntity
  8
SLD-0
 62
   166
420
     8062
100
AcDbSpline
210
0.0
220
0.0
230
1.0
 70
     8
 71
     3
 72
     8
 73
     4
 74
     0
 42
0.00000001
 43
0.00000001
 40
0.0
 40
0.0
 40
0.0
 40
0.0
 40
1.0
 40
1.0
 40
1.0
 40
1.0
 10
232.3893286174025
 20
41.70243652344428
 30
0.0
 10
231.8123830174025
 20
43.67192292344431
 30
0.0
 10
230.7157630174025
 20
45.08884612344431
 30
0.0
 10
229.2075822174025
 20
46.21576772344428
 30
0.0
  0
SPLINE
  5
105
330
1F
100
AcDbEntity
  8
SLD-0
 62
   166
420
     8062
100
AcDbSpline
210
0.0
220
0.0
230
1.0
 70
     8
 71
     3
 72
     8
 73
     4
 74
     0
 42
0.00000001
 43
0.00000001
 40
0.0
 40
0.0
 40
0.0
 40
0.0
 40
1.0
 40
1.0
 40
1.0
 40
1.0
 10
229.2075822174025
 20
46.21576772344428
 30
0.0
 10
227.8025758174025
 20
44.23699092344428
 30
0.0
 10
226.2354382174025
 20
42.24480772344429
 30
0.0
 10
224.8406630174025
 20
40.2779085234443
 30
0.0
  0
SPLINE
  5
106
330
1F
100
AcDbEntity
  8
SLD-0
 62
   166
420
     8062
100
AcDbSpline
210
0.0
220
0.0
230
1.0
 70
     8
 71
     3
 72
     8
 73
     4
 74
     0
 42
0.00000001
 43
0.00000001
 40
0.0
 40
0.0
 40
0.0
 40
0.0
 40
1.0
 40
1.0
 40
1.0
 40
1.0
 10
224.8406630174025
 20
40.2779085234443
 30
0.0
 10
224.8066374174025
 20
40.23145652344427
 30
0.0
 10
224.7218086174025
 20
40.17689012344429
 30
0.0
 10
224.7526198174025
 20
40.10342932344428
 30
0.0
  0
SPLINE
  5
107
330
1F
100
AcDbEntity
  8
SLD-0
 62
   166
420
     8062
100
AcDbSpline
210
0.0
220
0.0
230
1.0
 70
     8
 71
     3
 72
     8
 73
     4
 74
     0
 42
0.00000001
 43
0.00000001
 40
0.0
 40
0.0
 40
0.0
 40
0.0
 40
1.0
 40
1.0
 40
1.0
 40
1.0
 10
224.7526198174025
 20
40.10342932344428
 30
0.0
 10
226.9630686174025
 20
40.05050932344427
 30
0.0
 10
229.3220854174025
 20
40.15583972344427
 30
0.0
 10
231.5551526174025
 20
40.0807325234443
 30
0.0
  0
SPLINE
  5
108
330
1F
100
AcDbEntity
  8
SLD-0
 62
   166
420
     8062
100
AcDbSpline
210
0.0
220
0.0
230
1.0
 70
     8
 71
     3
 72
     8
 73
     4
 74
     0
 42
0.00000001
 43
0.00000001
 40
0.0
 40
0.0
 40
0.0
 40
0.0
 40
1.0
 40
1.0
 40
1.0
 40
1.0
 10
231.5551526174025
 20
40.0807325234443
 30
0.0
 10
231.5887862174025
 20
38.02316372344432
 30
0.0
 10
231.0690726174025
 20
36.4344661234443
 30
0.0
 10
230.1949518174025
 20
35.17312772344429
 30
0.0
  0
SPLINE
  5
109
330
1F
100
AcDbEntity
  8
SLD-0
 62
   166
420
     8062
100
AcDbSpline
210
0.0
220
0.0
230
1.0
 70
     8
 71
     3
 72
     8
 73
     4
 74
     0
 42
0.00000001
 43
0.00000001
 40
0.0
 40
0.0
 40
0.0
 40
0.0
 40
1.0
 40
1.0
 40
1.0
 40
1.0
 10
230.1949518174025
 20
35.17312772344429
 30
0.0
 10
229.3436454174025
 20
33.94471732344427
 30
0.0
 10
228.1596094174025
 20
32.94213812344428
 30
0.0
 10
226.7054070174025
 20
32.39059412344429
 30
0.0
  0
SPLINE
  5
10A
330
1F
100
AcDbEntity
  8
SLD-0
 62
   166
420
     8062
100
AcDbSpline
210
0.0
220
0.0
230
1.0
 70
     8
 71
     3
 72
     8
 73
     4
 74
     0
 42
0.00000001
 43
0.00000001
 40
0.0
 40
0.0
 40
0.0
 40
0.0
 40
1.0
 40
1.0
 40
1.0
 40
1.0
 10
226.7054070174025
 20
32.39059412344429
 30
0.0
 10
225.0621430174025
 20
31.7666869234443
 30
0.0
 10
222.9256646174024
 20
31.84285252344431
 30
0.0
 10
221.4169350174025
 20
32.45543092344426
 30
0.0
  0
SPLINE
  5
10B
330
1F
100
AcDbEntity
  8
SLD-0
 62
   166
420
     8062
100
AcDbSpline
210
0.0
220
0.0
230
1.0
 70
     8
 71
     3
 72
     8
 73
     4
 74
     0
 42
0.00000001
 43
0.00000001
 40
0.0
 40
0.0
 40
0.0
 40
0.0
 40
1.0
 40
1.0
 40
1.0
 40
1.0
 10
221.4169350174025
 20
32.45543092344426
 30
0.0
 10
219.9611254174025
 20
33.0469197234443
 30
0.0
 10
218.7656822174025
 20
34.0560061234443
 30
0.0
 10
217.9715686174025
 20
35.30436932344431
 30
0.0
  0
SPLINE
  5
10C
330
1F
100
AcDbEntity
  8
SLD-0
 62
   166
420
     8062
100
AcDbSpline
210
0.0
220
0.0
230
1.0
 70
     8
 71
     3
 72
     8
 73
     4
 74
     0
 42
0.00000001
 43
0.00000001
 40
0.0
 40
0.0
 40
0.0
 40
0.0
 40
1.0
 40
1.0
 40
1.0
 40
1.0
 10
217.9715686174025
 20
35.30436932344431
 30
0.0
 10
217.1461734174025
 20
36.60192852344428
 30
0.0
 10
216.5773500574025
 20
38.38239252344432
 30
0.0
 10
216.8523106174025
 20
40.32220452344428
 30
0.0
  0
SPLINE
  5
10D
330
1F
100
AcDbEntity
  8
SLD-0
 62
   166
420
     8062
100
AcDbSpline
210
0.0
220
0.0
230
1.0
 70
     8
 71
     3
 72
     8
 73
     4
 74
     0
 42
0.00000001
 43
0.00000001
 40
0.0
 40
0.0
 40
0.0
 40
0.0
 40
1.0
 40
1.0
 40
1.0
 40
1.0
 10
216.8523106174025
 20
40.32220452344428
 30
0.0
 10
217.1045782974025
 20
42.1011005234443
 30
0.0
 10
217.8732550174025
 20
43.44554292344429
 30
0.0
 10
218.9369078174025
 20
44.50649092344426
 30
0.0
  0
SPLINE
  5
10E
330
1F
100
AcDbEntity
  8
SLD-0
 62
   166
420
     8062
100
AcDbSpline
210
0.0
220
0.0
230
1.0
 70
     8
 71
     3
 72
     8
 73
     4
 74
     0
 42
0.00000001
 43
0.00000001
 40
0.0
 40
0.0
 40
0.0
 40
0.0
 40
1.0
 40
1.0
 40
1.0
 40
1.0
 10
218.9369078174025
 20
44.50649092344426
 30
0.0
 10
219.9589302174025
 20
45.5274941234443
 30
0.0
 10
221.3332038174025
 20
46.33136852344431
 30
0.0
 10
223.1287990174025
 20
46.5884421234443
 30
0.0
  0
SPLINE
  5
10F
330
1F
100
AcDbEntity
  8
SLD-0
 62
   166
420
     8062
100
AcDbSpline
210
0.0
220
0.0
230
1.0
 70
     8
 71
     3
 72
     8
 73
     4
 74
     0
 42
0.00000001
 43
0.00000001
 40
0.0
 40
0.0
 40
0.0
 40
0.0
 40
1.0
 40
1.0
 40
1.0
 40
1.0
 10
223.1287990174025
 20
46.5884421234443
 30
0.0
 10
225.0172982174025
 20
46.86017652344428
 30
0.0
 10
226.9479374174025
 20
46.42415492344431
 30
0.0
 10
228.1979470174025
 20
45.53662772344428
 30
0.0
  0
SPLINE
  5
110
330
1F
100
AcDbEntity
  8
SLD-0
 62
   166
420
     8062
100
AcDbSpline
210
0.0
220
0.0
230
1.0
 70
     8
 71
     3
 72
     8
 73
     4
 74
     0
 42
0.00000001
 43
0.00000001
 40
0.0
 40
0.0
 40
0.0
 40
0.0
 40
1.0
 40
1.0
 40
1.0
 40
1.0
 10
228.1979470174025
 20
45.53662772344428
 30
0.0
 10
228.4734054174025
 20
45.80240372344428
 30
0.0
 10
228.6970022174025
 20
46.11894372344431
 30
0.0
 10
228.9001758174025
 20
46.4577493234443
 30
0.0
  0
SPLINE
  5
111
330
1F
100
AcDbEntity
  8
SLD-0
 62
   166
420
     8062
100
AcDbSpline
210
0.0
220
0.0
230
1.0
 70
     8
 71
     3
 72
     8
 73
     4
 74
     0
 42
0.00000001
 43
0.00000001
 40
0.0
 40
0.0
 40
0.0
 40
0.0
 40
1.0
 40
1.0
 40
1.0
 40
1.0
 10
228.9001758174025
 20
46.4577493234443
 30
0.0
 10
227.5334678174025
 20
47.25237252344431
 30
0.0
 10
226.0215238174025
 20
47.98584372344429
 30
0.0
 10
223.8088798174025
 20
47.8815717234443
 30
0.0
  0
SPLINE
  5
112
330
1F
100
AcDbEntity
  8
SLD-0
 62
   166
420
     8062
100
AcDbSpline
210
0.0
220
0.0
230
1.0
 70
     8
 71
     3
 72
     8
 73
     4
 74
     0
 42
0.00000001
 43
0.00000001
 40
0.0
 40
0.0
 40
0.0
 40
0.0
 40
1.0
 40
1.0
 40
1.0
 40
1.0
 10
223.8088798174025
 20
47.8815717234443
 30
0.0
 10
221.4504118174025
 20
47.76985172344426
 30
0.0
 10
219.6218494174025
 20
46.78714692344431
 30
0.0
 10
218.3227222174025
 20
45.60201332344431
 30
0.0
  0
SPLINE
  5
113
330
1F
100
AcDbEntity
  8
SLD-0
 62
   166
420
     8062
100
AcDbSpline
210
0.0
220
0.0
230
1.0
 70
     8
 71
     3
 72
     8
 73
     4
 74
     0
 42
0.00000001
 43
0.00000001
 40
0.0
 40
0.0
 40
0.0
 40
0.0
 40
1.0
 40
1.0
 40
1.0
 40
1.0
 10
218.3227222174025
 20
45.60201332344431
 30
0.0
 10
216.9868254174025
 20
44.38493172344428
 30
0.0
 10
215.9863865374025
 20
42.7055645234443
 30
0.0
 10
215.6676748574025
 20
40.56261812344429
 30
0.0
  0
SPLINE
  5
114
330
1F
100
AcDbEntity
  8
SLD-0
 62
   166
420
     8062
100
AcDbSpline
210
0.0
220
0.0
230
1.0
 70
     8
 71
     3
 72
     8
 73
     4
 74
     0
 42
0.00000001
 43
0.00000001
 40
0.0
 40
0.0
 40
0.0
 40
0.0
 40
1.0
 40
1.0
 40
1.0
 40
1.0
 10
215.6676748574025
 20
40.56261812344429
 30
0.0
 10
215.2971015774025
 20
38.0750253234443
 30
0.0
 10
216.0241949374025
 20
35.95908772344429
 30
0.0
 10
217.0716228574025
 20
34.47140852344431
 30
0.0
  0
SPLINE
  5
115
330
1F
100
AcDbEntity
  8
SLD-0
 62
   166
420
     8062
100
AcDbSpline
210
0.0
220
0.0
230
1.0
 70
     8
 71
     3
 72
     8
 73
     4
 74
     0
 42
0.00000001
 43
0.00000001
 40
0.0
 40
0.0
 40
0.0
 40
0.0
 40
1.0
 40
1.0
 40
1.0
 40
1.0
 10
217.0716228574025
 20
34.47140852344431
 30
0.0
 10
218.1633742174025
 20
32.92104852344428
 30
0.0
 10
219.5581102174025
 20
31.78503252344429
 30
0.0
 10
221.4606822174025
 20
31.16273252344427
 30
0.0
  0
SPLINE
  5
116
330
1F
100
AcDbEntity
  8
SLD-0
 62
   166
420
     8062
100
AcDbSpline
210
0.0
220
0.0
230
1.0
 70
     8
 71
     3
 72
     8
 73
     4
 74
     0
 42
0.00000001
 43
0.00000001
 40
0.0
 40
0.0
 40
0.0
 40
0.0
 40
1.0
 40
1.0
 40
1.0
 40
1.0
 10
221.4606822174025
 20
31.16273252344427
 30
0.0
 10
222.5075574174025
 20
30.82133972344429
 30
0.0
 10
223.6214254174025
 20
30.64199580344427
 30
0.0
 10
224.8406630174025
 20
30.74678916344427
 30
0.0
  0
SPLINE
  5
117
330
1F
100
AcDbEntity
  8
SLD-0
 62
   166
420
     8062
100
AcDbSpline
210
0.0
220
0.0
230
1.0
 70
     8
 71
     3
 72
     8
 73
     4
 74
     0
 42
0.00000001
 43
0.00000001
 40
0.0
 40
0.0
 40
0.0
 40
0.0
 40
1.0
 40
1.0
 40
1.0
 40
1.0
 10
224.8406630174025
 20
30.74678916344427
 30
0.0
 10
228.2126078174025
 20
31.03795892344428
 30
0.0
 10
230.5326598174025
 20
32.99940932344429
 30
0.0
 10
231.7750646174025
 20
35.34760692344428
 30
0.0
  0
SPLINE
  5
118
330
1F
100
AcDbEntity
  8
SLD-0
 62
   166
420
     8062
100
AcDbSpline
210
0.0
220
0.0
230
1.0
 70
     8
 71
     3
 72
     8
 73
     4
 74
     0
 42
0.00000001
 43
0.00000001
 40
0.0
 40
0.0
 40
0.0
 40
0.0
 40
1.0
 40
1.0
 40
1.0
 40
1.0
 10
225.1696294174025
 20
34.62534692344431
 30
0.0
 10
226.9749462174025
 20
34.99594372344429
 30
0.0
 10
228.1277006174025
 20
36.13466452344431
 30
0.0
 10
228.7904942174025
 20
37.75793652344426
 30
0.0
  0
SPLINE
  5
119
330
1F
100
AcDbEntity
  8
SLD-0
 62
   166
420
     8062
100
AcDbSpline
210
0.0
220
0.0
230
1.0
 70
     8
 71
     3
 72
     8
 73
     4
 74
     0
 42
0.00000001
 43
0.00000001
 40
0.0
 40
0.0
 40
0.0
 40
0.0
 40
1.0
 40
1.0
 40
1.0
 40
1.0
 10
228.7904942174025
 20
37.75793652344426
 30
0.0
 10
227.2088918174025
 20
37.73037892344426
 30
0.0
 10
225.5947534174025
 20
37.73578852344426
 30
0.0
 10
223.9844566174025
 20
37.7368469234443
 30
0.0
  0
SPLINE
  5
11A
330
1F
100
AcDbEntity
  8
SLD-0
 62
   166
420
     8062
100
AcDbSpline
210
0.0
220
0.0
230
1.0
 70
     8
 71
     3
 72
     8
 73
     4
 74
     0
 42
0.00000001
 43
0.00000001
 40
0.0
 40
0.0
 40
0.0
 40
0.0
 40
1.0
 40
1.0
 40
1.0
 40
1.0
 10
223.9844566174025
 20
39.94894212344428
 30
0.0
 10
224.8892710174025
 20
41.20761492344431
 30
0.0
 10
225.8724070174025
 20
42.38847572344427
 30
0.0
 10
226.7713022174025
 20
43.65298932344429
 30
0.0
  0
SPLINE
  5
11B
330
1F
100
AcDbEntity
  8
SLD-0
 62
   166
420
     8062
100
AcDbSpline
210
0.0
220
0.0
230
1.0
 70
     8
 71
     3
 72
     8
 73
     4
 74
     0
 42
0.00000001
 43
0.00000001
 40
0.0
 40
0.0
 40
0.0
 40
0.0
 40
1.0
 40
1.0
 40
1.0
 40
1.0
 10
226.7713022174025
 20
43.65298932344429
 30
0.0
 10
225.9588430174025
 20
44.04142212344429
 30
0.0
 10
224.9691998174025
 20
44.29700612344427
 30
0.0
 10
223.7208366174025
 20
44.20073092344428
 30
0.0
  0
SPLINE
  5
11C
330
1F
100
AcDbEntity
  8
SLD-0
 62
   166
420
     8062
100
AcDbSpline
210
0.0
220
0.0
230
1.0
 70
     8
 71
     3
 72
     8
 73
     4
 74
     0
 42
0.00000001
 43
0.00000001
 40
0.0
 40
0.0
 40
0.0
 40
0.0
 40
1.0
 40
1.0
 40
1.0
 40
1.0
 10
223.7208366174025
 20
44.20073092344428
 30
0.0
 10
221.8096406174025
 20
44.0516925234443
 30
0.0
 10
220.4197262174025
 20
42.85836612344428
 30
0.0
 10
219.7272190174025
 20
41.46206212344429
 30
0.0
  0
SPLINE
  5
11D
330
1F
100
AcDbEntity
  8
SLD-0
 62
   166
420
     8062
100
AcDbSpline
210
0.0
220
0.0
230
1.0
 70
     8
 71
     3
 72
     8
 73
     4
 74
     0
 42
0.00000001
 43
0.00000001
 40
0.0
 40
0.0
 40
0.0
 40
0.0
 40
1.0
 40
1.0
 40
1.0
 40
1.0
 10
219.7272190174025
 20
41.46206212344429
 30
0.0
 10
219.3420398174025
 20
40.68515732344429
 30
0.0
 10
219.1329862174025
 20
39.65129652344427
 30
0.0
 10
219.2880222174025
 20
38.63464452344427
 30
0.0
  0
SPLINE
  5
11E
330
1F
100
AcDbEntity
  8
SLD-0
 62
   166
420
     8062
100
AcDbSpline
210
0.0
220
0.0
230
1.0
 70
     8
 71
     3
 72
     8
 73
     4
 74
     0
 42
0.00000001
 43
0.00000001
 40
0.0
 40
0.0
 40
0.0
 40
0.0
 40
1.0
 40
1.0
 40
1.0
 40
1.0
 10
219.2880222174025
 20
38.63464452344427
 30
0.0
 10
219.4263198174025
 20
37.73092772344426
 30
0.0
 10
219.8358030174025
 20
36.91791972344429
 30
0.0
 10
220.3414046174024
 20
36.31290692344429
 30
0.0
  0
SPLINE
  5
11F
330
1F
100
AcDbEntity
  8
SLD-0
 62
   166
420
     8062
100
AcDbSpline
210
0.0
220
0.0
230
1.0
 70
     8
 71
     3
 72
     8
 73
     4
 74
     0
 42
0.00000001
 43
0.00000001
 40
0.0
 40
0.0
 40
0.0
 40
0.0
 40
1.0
 40
1.0
 40
1.0
 40
1.0
 10
220.3414046174024
 20
36.31290692344429
 30
0.0
 10
221.3877702174025
 20
35.05913412344429
 30
0.0
 10
223.1190774174025
 20
34.20508372344429
 30
0.0
 10
225.1696294174025
 20
34.62534692344431
 30
0.0
  0
MTEXT
  5
121
330
1F
100
AcDbEntity
  8
0
  6
Continuous
 62
     7
370
     0
100
AcDbMText
 10
13.3497201528
 20
267.7553731005
 30
0.0
 40
3.7041666667
 41
0.0
 71
     2
 72
     1
  1
B
  7
SLDTEXTSTYLE0
 73
     1
 44
1.0
  0
MTEXT
  5
122
330
1F
100
AcDbEntity
  8
0
  6
Continuous
 62
     7
370
     0
100
AcDbMText
 10
13.3333333333
 20
162.3360328071
 30
0.0
 40
3.7041666667
 41
0.0
 71
     1
 72
     1
  1
C
  7
SLDTEXTSTYLE0
 73
     1
 44
1.0
  0
MTEXT
  5
123
330
1F
100
AcDbEntity
  8
0
  6
Continuous
 62
     7
370
     0
100
AcDbMText
 10
13.3333333333
 20
62.3360328071
 30
0.0
 40
3.7041666667
 41
0.0
 71
     1
 72
     1
  1
D
  7
SLDTEXTSTYLE0
 73
     1
 44
1.0
  0
MTEXT
  5
124
330
1F
100
AcDbEntity
  8
0
  6
Continuous
 62
     7
370
     0
100
AcDbMText
 10
46.1666746667
 20
17.3360328071
 30
0.0
 40
3.7041666667
 41
0.0
 71
     1
 72
     1
  1
1
  7
SLDTEXTSTYLE0
 73
     1
 44
1.0
  0
MTEXT
  5
125
330
1F
100
AcDbEntity
  8
0
  6
Continuous
 62
     7
370
     0
100
AcDbMText
 10
145.3333413333
 20
17.3360328071
 30
0.0
 40
3.7041666667
 41
0.0
 71
     1
 72
     1
  1
2
  7
SLDTEXTSTYLE0
 73
     1
 44
1.0
  0
MTEXT
  5
126
330
1F
100
AcDbEntity
  8
0
  6
Continuous
 62
     7
370
     0
100
AcDbMText
 10
13.3333333333
 20
362.3360328071
 30
0.0
 40
3.7041666667
 41
0.0
 71
     1
 72
     1
  1
A
  7
SLDTEXTSTYLE0
 73
     1
 44
1.0
  0
MTEXT
  5
127
330
1F
100
AcDbEntity
  8
0
  6
Continuous
 62
     7
370
     0
100
AcDbMText
 10
245.3333413333
 20
407.3360328071
 30
0.0
 40
3.7041666667
 41
0.0
 71
     1
 72
     1
  1
3
  7
SLDTEXTSTYLE0
 73
     1
 44
1.0
  0
MTEXT
  5
128
330
1F
100
AcDbEntity
  8
0
  6
Continuous
 62
     7
370
     0
100
AcDbMText
 10
145.3333413333
 20
407.3360328071
 30
0.0
 40
3.7041666667
 41
0.0
 71
     1
 72
     1
  1
2
  7
SLDTEXTSTYLE0
 73
     1
 44
1.0
  0
MTEXT
  5
129
330
1F
100
AcDbEntity
  8
0
  6
Continuous
 62
     7
370
     0
100
AcDbMText
 10
46.1666746667
 20
407.3360328071
 30
0.0
 40
3.7041666667
 41
0.0
 71
     1
 72
     1
  1
1
  7
SLDTEXTSTYLE0
 73
     1
 44
1.0
  0
MTEXT
  5
12A
330
1F
100
AcDbEntity
  8
0
  6
Continuous
 62
     7
370
     0
100
AcDbMText
 10
345.3333413333
 20
407.3360328071
 30
0.0
 40
3.7041666667
 41
0.0
 71
     1
 72
     1
  1
4
  7
SLDTEXTSTYLE0
 73
     1
 44
1.0
  0
MTEXT
  5
12B
330
1F
100
AcDbEntity
  8
0
  6
Continuous
 62
     7
370
     0
100
AcDbMText
 10
577.3333493333
 20
262.3360328071
 30
0.0
 40
3.7041666667
 41
0.0
 71
     1
 72
     1
  1
B
  7
SLDTEXTSTYLE0
 73
     1
 44
1.0
  0
MTEXT
  5
12C
330
1F
100
AcDbEntity
  8
0
  6
Continuous
 62
     7
370
     0
100
AcDbMText
 10
577.3333493333
 20
362.3360328071
 30
0.0
 40
3.7041666667
 41
0.0
 71
     1
 72
     1
  1
A
  7
SLDTEXTSTYLE0
 73
     1
 44
1.0
  0
MTEXT
  5
12D
330
1F
100
AcDbEntity
  8
0
  6
Continuous
 62
     7
370
     0
100
AcDbMText
 10
445.3333413333
 20
407.3360328071
 30
0.0
 40
3.7041666667
 41
0.0
 71
     1
 72
     1
  1
5
  7
SLDTEXTSTYLE0
 73
     1
 44
1.0
  0
MTEXT
  5
12E
330
1F
100
AcDbEntity
  8
0
  6
Continuous
 62
     7
370
     0
100
AcDbMText
 10
545.3333413333
 20
407.3360328071
 30
0.0
 40
3.7041666667
 41
0.0
 71
     1
 72
     1
  1
6
  7
SLDTEXTSTYLE0
 73
     1
 44
1.0
  0
MTEXT
  5
12F
330
1F
100
AcDbEntity
  8
0
  6
Continuous
 62
     7
370
     0
100
AcDbMText
 10
577.3853041316
 20
164.2992441028
 30
0.0
 40
3.7041666667
 41
0.0
 71
     1
 72
     1
  1
C
  7
SLDTEXTSTYLE0
 73
     1
 44
1.0
  0
MTEXT
  5
130
330
1F
100
AcDbEntity
  8
SLD-0
 62
     7
100
AcDbMText
 10
345.647378874
 20
17.3360328071
 30
0.0
 40
3.7041666667
 41
0.0
 71
     1
 72
     1
  1
4
  7
SLDTEXTSTYLE0
 73
     1
 44
1.0
  0
MTEXT
  5
131
330
1F
100
AcDbEntity
  8
SLD-0
 62
     7
100
AcDbMText
 10
247.0
 20
17.3360328071
 30
0.0
 40
3.7041666667
 41
0.0
 71
     1
 72
     1
  1
3
  7
SLDTEXTSTYLE0
 73
     1
 44
1.0
  0
MTEXT
  5
132
330
1F
100
AcDbEntity
  8
SLD-0
 62
     7
100
AcDbMText
 10
445.6542385304
 20
17.3360328071
 30
0.0
 40
3.7041666667
 41
0.0
 71
     1
 72
     1
  1
5
  7
SLDTEXTSTYLE0
 73
     1
 44
1.0
  0
MTEXT
  5
133
330
1F
100
AcDbEntity
  8
SLD-0
 62
     7
100
AcDbMText
 10
543.215479932
 20
17.3360328071
 30
0.0
 40
3.7041666667
 41
0.0
 71
     1
 72
     1
  1
6
  7
SLDTEXTSTYLE0
 73
     1
 44
1.0
  0
MTEXT
  5
134
330
1F
100
AcDbEntity
  8
SLD-0
 62
     7
100
AcDbMText
 10
577.0568857335
 20
60.9844560721
 30
0.0
 40
3.7041666667
 41
0.0
 71
     1
 72
     1
  1
D
  7
SLDTEXTSTYLE0
 73
     1
 44
1.0
  0
MTEXT
  5
135
330
1F
100
AcDbEntity
  8
SLD-0
100
AcDbMText
 10
492.9223061877
 20
107.3594569294
 30
0.0
 40
3.175
 41
0.0
 71
     2
 72
     1
  1
Zone
  7
SLDTEXTSTYLE0
 73
     1
 44
1.0
  0
MTEXT
  5
136
330
1F
100
AcDbEntity
  8
SLD-0
100
AcDbMText
 10
458.1461784816
 20
29.9087012197
 30
0.0
 40
4.6
 41
0.0
 71
     1
 72
     1
  1
+0,5
  7
SLDTEXTSTYLE0
 73
     1
 44
1.0
  0
MTEXT
  5
137
330
1F
100
AcDbEntity
  8
SLD-0
100
AcDbMText
 10
432.4653779494
 20
32.4403545079
 30
0.0
 40
4.6
 41
0.0
 71
     1
 72
     1
  1
-0,5
  7
SLDTEXTSTYLE0
 73
     1
 44
1.0
  0
INSERT
  5
13D
330
1F
100
AcDbEntity
  8
SLD-0
100
AcDbBlockReference
  2
SW_NOTE_0
 10
275.0141709187
 20
58.8134135738
 30
0.0
  0
INSERT
  5
145
330
1F
100
AcDbEntity
  8
SLD-0
100
AcDbBlockReference
  2
SW_NOTE_0_1
 10
258.8292064331
 20
44.2744539311
 30
0.0
  0
MTEXT
  5
146
330
1F
100
AcDbEntity
  8
SLD-0
100
AcDbMText
 10
205.2497903395
 20
93.3049283826
 30
0.0
 40
3.175
 41
0.0
 71
     1
 72
     1
  1
Nitriding Steel (Nitrierf‰higer Stahl)
  7
SLDTEXTSTYLE0
 73
     1
 44
1.0
  0
MTEXT
  5
148
330
1F
100
AcDbEntity
  8
SLD-0
100
AcDbMText
 10
306.6304445788
 20
93.2985943282
 30
0.0
 40
3.175
 41
0.0
 71
     1
 72
     1
  1
40 x 40 x 59 [mm]
  7
SLDTEXTSTYLE1
 73
     1
 44
1.0
  0
MTEXT
  5
149
330
1F
100
AcDbEntity
  8
SLD-0
100
AcDbMText
 10
306.6304445788
 20
99.4594569294
 30
0.0
 40
3.175
 41
0.0
 71
     1
 72
     1
  1
Overall dimensions:
  7
SLDTEXTSTYLE0
 73
     1
 44
1.0
  0
MTEXT
  5
14A
330
1F
100
AcDbEntity
  8
SLD-0
100
AcDbMText
 10
205.25
 20
99.4594569294
 30
0.0
 40
3.175
 41
0.0
 71
     1
 72
     1
  1
Material:
  7
SLDTEXTSTYLE0
 73
     1
 44
1.0
  0
INSERT
  5
150
330
1F
100
AcDbEntity
  8
SLD-0
100
AcDbBlockReference
  2
SW_NOTE_0_2
 10
205.2497903395
 20
82.5842327994
 30
0.0
  0
MTEXT
  5
151
330
1F
100
AcDbEntity
  8
SLD-0
100
AcDbMText
 10
205.25
 20
60.9321471862
 30
0.0
 40
3.175
 41
0.0
 71
     1
 72
     1
  1
Weight: ca. 0.30 kg
  7
SLDTEXTSTYLE0
 73
     1
 44
1.0
  0
MTEXT
  5
152
330
1F
100
AcDbEntity
  8
SLD-0
100
AcDbMText
 10
344.8911731459
 20
61.5239559179
 30
0.0
 40
4.2333333333
 41
0.0
 71
     1
 72
     1
  1
GN: --
  7
SLDTEXTSTYLE0
 73
     1
 44
1.0
  0
MTEXT
  5
153
330
1F
100
AcDbEntity
  8
SLD-0
 62
     7
100
AcDbMText
 10
472.2722818713
 20
91.4370309297
 30
0.0
 40
6.8791666667
 41
0.0
 71
     2
 72
     1
  1
20170055_S020_10_003
  7
SLDTEXTSTYLE0
 73
     1
 44
1.0
  0
MTEXT
  5
154
330
1F
100
AcDbEntity
  8
SLD-0
100
AcDbMText
 10
485.2997329239
 20
66.8704650666
 30
0.0
 40
4.7
 41
0.0
 71
     2
 72
     1
  1
Mitnehmer
  7
SLDTEXTSTYLE0
 73
     1
 44
1.0
  0
MTEXT
  5
155
330
1F
100
AcDbEntity
  8
SLD-0
 62
     7
100
AcDbMText
 10
398.8854698448
 20
72.7400088422
 30
0.0
 40
3.175
 41
0.0
 71
     1
 72
     1
  1
Description:
  7
SLDTEXTSTYLE0
 73
     1
 44
1.0
  0
INSERT
  5
15B
330
1F
100
AcDbEntity
  8
SLD-0
100
AcDbBlockReference
  2
SW_NOTE_0_3
 10
515.3436460555
 20
26.1092047573
 30
0.0
  0
INSERT
  5
164
330
1F
100
AcDbEntity
  8
SLD-0
 62
     3
420
    65280
100
AcDbBlockReference
  2
SW_NOTE_0_4
 10
401.2405859945
 20
46.1973452293
 30
0.0
  0
MTEXT
  5
165
330
1F
100
AcDbEntity
  8
SLD-0
 62
     3
420
    65280
100
AcDbMText
 10
523.7614593266
 20
51.3323304456
 30
0.0
 40
3.000000082
 41
0.0
 71
     2
 72
     1
  1
ISO METHODE
  7
SLDTEXTSTYLE0
 73
     1
 44
1.0
  0
MTEXT
  5
166
330
1F
100
AcDbEntity
  8
SLD-0
 62
     7
100
AcDbMText
 10
320.224667193
 20
41.4594567916
 30
0.0
 40
3.175
 41
0.0
 71
     2
 72
     1
  1
DRAWN:
  7
SLDTEXTSTYLE0
 73
     1
 44
1.0
  0
MTEXT
  5
167
330
1F
100
AcDbEntity
  8
SLD-0
 62
     7
100
AcDbMText
 10
320.4300869212
 20
28.4594567916
 30
0.0
 40
3.175
 41
0.0
 71
     2
 72
     1
  1
CHECKED:
  7
SLDTEXTSTYLE0
 73
     1
 44
1.0
  0
MTEXT
  5
168
330
1F
100
AcDbEntity
  8
SLD-0
 62
     7
100
AcDbMText
 10
350.7596238866
 20
51.0094567916
 30
0.0
 40
3.175
 41
0.0
 71
     2
 72
     1
  1
NAME
  7
SLDTEXTSTYLE0
 73
     1
 44
1.0
  0
MTEXT
  5
169
330
1F
100
AcDbEntity
  8
SLD-0
 62
     7
100
AcDbMText
 10
381.5220946252
 20
51.0094567916
 30
0.0
 40
3.175
 41
0.0
 71
     2
 72
     1
  1
DATE
  7
SLDTEXTSTYLE0
 73
     1
 44
1.0
  0
MTEXT
  5
16A
330
1F
100
AcDbEntity
  8
SLD-0
 62
     7
100
AcDbMText
 10
398.8854698448
 20
100.2770114582
 30
0.0
 40
3.175
 41
0.0
 71
     1
 72
     1
  1
Drawing number:
  7
SLDTEXTSTYLE0
 73
     1
 44
1.0
  0
INSERT
  5
171
330
1F
100
AcDbEntity
  8
SLD-0
 62
     7
100
AcDbBlockReference
  2
SW_NOTE_0_5
 10
551.7316848855
 20
42.4654952205
 30
0.0
  0
MTEXT
  5
172
330
1F
100
AcDbEntity
  8
SLD-0
 62
     7
100
AcDbMText
 10
556.0411316924
 20
29.3416946917
 30
0.0
 40
4.7625
 41
0.0
 71
     1
 72
     1
  1
A4
  7
SLDTEXTSTYLE0
 73
     1
 44
1.0
  0
MTEXT
  5
173
330
1F
100
AcDbEntity
  8
SLD-0
100
AcDbMText
 10
560.4303129655
 20
99.6022227656
 30
0.0
 40
3.175
 41
0.0
 71
     2
 72
     1
  1
Revision
  7
SLDTEXTSTYLE0
 73
     1
 44
1.0
  0
MTEXT
  5
174
330
1F
100
AcDbEntity
  8
SLD-0
 62
     7
100
AcDbMText
 10
381.491962041
 20
41.4594567916
 30
0.0
 40
3.175
 41
0.0
 71
     2
 72
     1
  1
08.08.2025
  7
SLDTEXTSTYLE0
 73
     1
 44
1.0
  0
MTEXT
  5
175
330
1F
100
AcDbEntity
  8
SLD-0
 62
     7
100
AcDbMText
 10
350.879053317
 20
41.4594567916
 30
0.0
 40
3.175
 41
0.0
 71
     2
 72
     1
  1
buda
  7
SLDTEXTSTYLE0
 73
     1
 44
1.0
  0
MTEXT
  5
176
330
1F
100
AcDbEntity
  8
SLD-0
100
AcDbMText
 10
560.314190149
 20
107.3594569294
 30
0.0
 40
3.175
 41
0.0
 71
     2
 72
     1
  1
Approved
  7
SLDTEXTSTYLE0
 73
     1
 44
1.0
  0
MTEXT
  5
177
330
1F
100
AcDbEntity
  8
SLD-0
100
AcDbMText
 10
531.6671400538
 20
107.3594569294
 30
0.0
 40
3.175
 41
0.0
 71
     2
 72
     1
  1
Date
  7
SLDTEXTSTYLE0
 73
     1
 44
1.0
  0
MTEXT
  5
178
330
1F
100
AcDbEntity
  8
SLD-0
100
AcDbMText
 10
250.2883362744
 20
107.3594569294
 30
0.0
 40
3.175
 41
0.0
 71
     2
 72
     1
  1
Description of changes
  7
SLDTEXTSTYLE0
 73
     1
 44
1.0
  0
MTEXT
  5
179
330
1F
100
AcDbEntity
  8
SLD-0
 62
     7
100
AcDbMText
 10
213.7174629655
 20
107.3594569294
 30
0.0
 40
3.175
 41
0.0
 71
     2
 72
     1
  1
Revision
  7
SLDTEXTSTYLE0
 73
     1
 44
1.0
  0
INSERT
  5
183
330
1F
100
AcDbEntity
  8
SLD-0
100
AcDbBlockReference
  2
SW_SFSYMBOL_0
 10
223.35
 20
147.1425003492
 30
0.0
  0
LINE
  5
184
330
1F
100
AcDbEntity
  8
0
  6
Continuous
 62
     7
370
    25
100
AcDbLine
 10
113.5966421826
 20
301.3086044071
 30
0.0
 11
113.5966421826
 21
291.3086044071
 31
0.0
  0
LINE
  5
185
330
1F
100
AcDbEntity
  8
0
  6
Continuous
 62
     7
370
    25
100
AcDbLine
 10
126.0966421826
 20
301.3086044071
 30
0.0
 11
113.5966421826
 21
301.3086044071
 31
0.0
  0
LINE
  5
186
330
1F
100
AcDbEntity
  8
0
  6
Continuous
 62
     7
370
    25
100
AcDbLine
 10
141.0966421826
 20
301.3086044071
 30
0.0
 11
141.0966421826
 21
335.3086044071
 31
0.0
  0
LINE
  5
187
330
1F
100
AcDbEntity
  8
0
  6
Continuous
 62
     7
370
    25
100
AcDbLine
 10
153.5966421826
 20
291.3086044071
 30
0.0
 11
113.5966421826
 21
291.3086044071
 31
0.0
  0
LINE
  5
188
330
1F
100
AcDbEntity
  8
0
  6
Continuous
 62
     7
370
    25
100
AcDbLine
 10
153.5966421826
 20
301.3086044071
 30
0.0
 11
141.0966421826
 21
301.3086044071
 31
0.0
  0
LINE
  5
189
330
1F
100
AcDbEntity
  8
0
  6
Continuous
 62
     7
370
    25
100
AcDbLine
 10
153.5966421826
 20
301.3086044071
 30
0.0
 11
153.5966421826
 21
291.3086044071
 31
0.0
  0
LINE
  5
18A
330
1F
100
AcDbEntity
  8
0
  6
Continuous
 62
     7
370
    25
100
AcDbLine
 10
126.0966421826
 20
301.3086044071
 30
0.0
 11
126.0966421826
 21
335.3086044071
 31
0.0
  0
LINE
  5
18B
330
1F
100
AcDbEntity
  8
0
  6
Continuous
 62
     7
370
    25
100
AcDbLine
 10
126.0966421826
 20
350.3086044071
 30
0.0
 11
141.0966421826
 21
350.3086044071
 31
0.0
  0
LINE
  5
18C
330
1F
100
AcDbEntity
  8
0
  6
Continuous
 62
     7
370
    25
100
AcDbLine
 10
141.0966421826
 20
350.3086044071
 30
0.0
 11
141.0966421826
 21
335.3086044071
 31
0.0
  0
LINE
  5
18D
330
1F
100
AcDbEntity
  8
0
  6
Continuous
 62
     7
370
    25
100
AcDbLine
 10
126.0966421826
 20
335.3086044071
 30
0.0
 11
126.0966421826
 21
350.3086044071
 31
0.0
  0
LINE
  5
18E
330
1F
100
AcDbEntity
  8
0
  6
Continuous
 62
     8
370
    18
100
AcDbLine
 10
141.0966421826
 20
335.3086044071
 30
0.0
 11
126.0966421826
 21
335.3086044071
 31
0.0
  0
LINE
  5
18F
330
1F
100
AcDbEntity
  8
0
  6
HIDDEN
 62
     7
370
    18
100
AcDbLine
 10
123.0966421826
 20
291.3086044071
 30
0.0
 11
123.0966421826
 21
301.3086044071
 31
0.0
  0
LINE
  5
190
330
1F
100
AcDbEntity
  8
0
  6
HIDDEN
 62
     7
370
    18
100
AcDbLine
 10
118.0966421826
 20
301.3086044071
 30
0.0
 11
118.0966421826
 21
291.3086044071
 31
0.0
  0
LINE
  5
191
330
1F
100
AcDbEntity
  8
0
  6
HIDDEN
 62
     7
370
    18
100
AcDbLine
 10
149.0966421826
 20
291.3086044071
 30
0.0
 11
149.0966421826
 21
301.3086044071
 31
0.0
  0
LINE
  5
192
330
1F
100
AcDbEntity
  8
0
  6
HIDDEN
 62
     7
370
    18
100
AcDbLine
 10
144.0966421826
 20
301.3086044071
 30
0.0
 11
144.0966421826
 21
291.3086044071
 31
0.0
  0
LINE
  5
193
330
1F
100
AcDbEntity
  8
0
  6
HIDDEN
 62
     7
370
    18
100
AcDbLine
 10
141.0966421826
 20
345.3652801691
 30
0.0
 11
126.0966421826
 21
345.3652801691
 31
0.0
  0
LINE
  5
194
330
1F
100
AcDbEntity
  8
0
  6
HIDDEN
 62
     7
370
    18
100
AcDbLine
 10
126.0966421826
 20
324.3652801691
 30
0.0
 11
141.0966421826
 21
324.3652801691
 31
0.0
  0
LINE
  5
195
330
1F
100
AcDbEntity
  8
0
  6
HIDDEN
 62
     7
370
    18
100
AcDbLine
 10
126.0966421826
 20
335.3086044071
 30
0.0
 11
141.0966421826
 21
335.3086044071
 31
0.0
  0
DIMENSION
  5
196
330
1F
100
AcDbEntity
  8
SLD-0
100
AcDbDimension
  2
_D
 10
93.5966421826
 20
350.3086044071
 30
0.0
 11
93.5966421826
 21
320.8086044071
 31
0.0
 70
   160
  1
<>
 71
     2
 42
-1.0
  3
SLDDIMSTYLE0
100
AcDbAlignedDimension
 13
113.5966421826
 23
291.3086044071
 33
0.0
 14
126.0966421826
 24
350.3086044071
 34
0.0
 50
90.0
100
AcDbRotatedDimension
  0
DIMENSION
  5
1A1
330
1F
100
AcDbEntity
  8
SLD-0
100
AcDbDimension
  2
_D_1
 10
126.0966421826
 20
271.3086044071
 30
0.0
 11
91.4369196532
 21
271.3086044071
 31
0.0
 70
   160
  1
<>
 71
     2
 42
-1.0
  3
SLDDIMSTYLE1
100
AcDbAlignedDimension
 13
113.5966421826
 23
291.3086044071
 33
0.0
 14
126.0966421826
 24
301.3086044071
 34
0.0
100
AcDbRotatedDimension
  0
DIMENSION
  5
1AE
330
1F
100
AcDbEntity
  8
SLD-0
100
AcDbDimension
  2
_D_2
 10
141.0966421826
 20
259.3086044071
 30
0.0
 11
173.5966421826
 21
259.3086044071
 31
0.0
 70
   160
  1
<>
 71
     2
 42
-1.0
  3
SLDDIMSTYLE1
100
AcDbAlignedDimension
 13
153.5966421826
 23
291.3086044071
 33
0.0
 14
141.0966421826
 24
301.3086044071
 34
0.0
100
AcDbRotatedDimension
  0
DIMENSION
  5
1BA
330
1F
100
AcDbEntity
  8
SLD-0
100
AcDbDimension
  2
_D_3
 10
197.5966421826
 20
291.3086044071
 30
0.0
 11
197.5966421826
 21
273.7669379963
 31
0.0
 70
   160
  1
<>
 71
     2
 42
-1.0
  3
SLDDIMSTYLE1
100
AcDbAlignedDimension
 13
153.5966421826
 23
301.3086044071
 33
0.0
 14
153.5966421826
 24
291.3086044071
 34
0.0
 50
90.0
100
AcDbRotatedDimension
  0
LINE
  5
1C6
330
1F
100
AcDbEntity
  8
0
  6
HIDDEN
 62
     7
370
    18
100
AcDbLine
 10
143.5966421826
 20
291.3086044071
 30
0.0
 11
143.5966421826
 21
301.3086044071
 31
0.0
  0
LINE
  5
1C7
330
1F
100
AcDbEntity
  8
0
  6
HIDDEN
 62
     7
370
    18
100
AcDbLine
 10
149.5966421826
 20
291.3086044071
 30
0.0
 11
149.5966421826
 21
301.3086044071
 31
0.0
  0
LINE
  5
1C8
330
1F
100
AcDbEntity
  8
0
  6
HIDDEN
 62
     7
370
    18
100
AcDbLine
 10
143.5966421826
 20
291.3086044071
 30
0.0
 11
143.5966421826
 21
301.3086044071
 31
0.0
  0
LINE
  5
1C9
330
1F
100
AcDbEntity
  8
0
  6
HIDDEN
 62
     7
370
    18
100
AcDbLine
 10
149.5966421826
 20
291.3086044071
 30
0.0
 11
149.5966421826
 21
301.3086044071
 31
0.0
  0
LINE
  5
1CA
330
1F
100
AcDbEntity
  8
0
  6
HIDDEN
 62
     7
370
    18
100
AcDbLine
 10
117.5966421826
 20
291.3086044071
 30
0.0
 11
117.5966421826
 21
301.3086044071
 31
0.0
  0
LINE
  5
1CB
330
1F
100
AcDbEntity
  8
0
  6
HIDDEN
 62
     7
370
    18
100
AcDbLine
 10
123.5966421826
 20
291.3086044071
 30
0.0
 11
123.5966421826
 21
301.3086044071
 31
0.0
  0
LINE
  5
1CC
330
1F
100
AcDbEntity
  8
0
  6
HIDDEN
 62
     7
370
    18
100
AcDbLine
 10
117.5966421826
 20
291.3086044071
 30
0.0
 11
117.5966421826
 21
301.3086044071
 31
0.0
  0
LINE
  5
1CD
330
1F
100
AcDbEntity
  8
0
  6
HIDDEN
 62
     7
370
    18
100
AcDbLine
 10
123.5966421826
 20
291.3086044071
 30
0.0
 11
123.5966421826
 21
301.3086044071
 31
0.0
  0
LINE
  5
1CE
330
1F
100
AcDbEntity
  8
0
  6
Continuous
 62
     7
370
    25
100
AcDbLine
 10
328.021406086
 20
301.3086044071
 30
0.0
 11
328.021406086
 21
291.3086044071
 31
0.0
  0
LINE
  5
1CF
330
1F
100
AcDbEntity
  8
0
  6
Continuous
 62
     7
370
    25
100
AcDbLine
 10
368.021406086
 20
301.3086044071
 30
0.0
 11
328.021406086
 21
301.3086044071
 31
0.0
  0
LINE
  5
1D0
330
1F
100
AcDbEntity
  8
0
  6
Continuous
 62
     7
370
    25
100
AcDbLine
 10
368.021406086
 20
301.3086044071
 30
0.0
 11
368.021406086
 21
291.3086044071
 31
0.0
  0
LINE
  5
1D1
330
1F
100
AcDbEntity
  8
0
  6
Continuous
 62
     7
370
    25
100
AcDbLine
 10
368.021406086
 20
291.3086044071
 30
0.0
 11
328.021406086
 21
291.3086044071
 31
0.0
  0
ARC
  5
1D2
330
1F
100
AcDbEntity
  8
0
  6
Continuous
 62
     7
370
    25
100
AcDbCircle
 10
343.021406086
 20
335.3086044071
 30
0.0
 40
14.99999999999994
100
AcDbArc
 50
90.0
 51
180.0
  0
LINE
  5
1D3
330
1F
100
AcDbEntity
  8
0
  6
Continuous
 62
     7
370
    25
100
AcDbLine
 10
353.021406086
 20
350.3086044071
 30
0.0
 11
343.021406086
 21
350.3086044071
 31
0.0
  0
CIRCLE
  5
1D4
330
1F
100
AcDbEntity
  8
0
  6
Continuous
 62
     7
370
    25
100
AcDbCircle
 10
348.021406086
 20
334.8652801691
 30
0.0
 40
10.50000000000006
  0
ARC
  5
1D5
330
1F
100
AcDbEntity
  8
0
  6
Continuous
 62
     7
370
    25
100
AcDbCircle
 10
353.021406086
 20
335.3086044071
 30
0.0
 40
15.0
100
AcDbArc
 50
0.0
 51
90.0
  0
LINE
  5
1D6
330
1F
100
AcDbEntity
  8
0
  6
Continuous
 62
     7
370
    25
100
AcDbLine
 10
328.021406086
 20
335.3086044071
 30
0.0
 11
328.021406086
 21
301.3086044071
 31
0.0
  0
LINE
  5
1D7
330
1F
100
AcDbEntity
  8
0
  6
Continuous
 62
     7
370
    25
100
AcDbLine
 10
368.021406086
 20
301.3086044071
 30
0.0
 11
368.021406086
 21
335.3086044071
 31
0.0
  0
LINE
  5
1D8
330
1F
100
AcDbEntity
  8
0
  6
HIDDEN
 62
     7
370
    18
100
AcDbLine
 10
363.521406086
 20
291.3086044071
 30
0.0
 11
363.521406086
 21
301.3086044071
 31
0.0
  0
LINE
  5
1D9
330
1F
100
AcDbEntity
  8
0
  6
HIDDEN
 62
     7
370
    18
100
AcDbLine
 10
358.521406086
 20
301.3086044071
 30
0.0
 11
358.521406086
 21
291.3086044071
 31
0.0
  0
LINE
  5
1DA
330
1F
100
AcDbEntity
  8
0
  6
HIDDEN
 62
     7
370
    18
100
AcDbLine
 10
337.521406086
 20
291.3086044071
 30
0.0
 11
337.521406086
 21
301.3086044071
 31
0.0
  0
LINE
  5
1DB
330
1F
100
AcDbEntity
  8
0
  6
HIDDEN
 62
     7
370
    18
100
AcDbLine
 10
332.521406086
 20
301.3086044071
 30
0.0
 11
332.521406086
 21
291.3086044071
 31
0.0
  0
DIMENSION
  5
1DC
330
1F
100
AcDbEntity
  8
SLD-0
100
AcDbDimension
  2
_D_4
 10
343.021406086
 20
335.3086044071
 30
0.0
 11
308.021426086
 21
370.3086244071
 31
0.0
 70
   164
  1
<>
 71
     1
 42
-1.0
  3
SLDDIMSTYLE2
100
AcDbRadialDimension
 15
332.4148043682
 25
345.9152061249
 35
0.0
 40
0.0
  0
DIMENSION
  5
1E5
330
1F
100
AcDbEntity
  8
SLD-0
100
AcDbDimension
  2
_D_5
 10
328.021406086
 20
259.3086044071
 30
0.0
 11
348.021406086
 21
259.3086044071
 31
0.0
 70
   160
  1
<>
 71
     2
 42
-1.0
  3
SLDDIMSTYLE0
100
AcDbAlignedDimension
 13
368.021406086
 23
291.3086044071
 33
0.0
 14
328.021406086
 24
291.3086044071
 34
0.0
100
AcDbRotatedDimension
  0
DIMENSION
  5
1EF
330
1F
100
AcDbEntity
  8
SLD-0
100
AcDbDimension
  2
_D_6
 10
348.021406086
 20
271.3086044071
 30
0.0
 11
338.021406086
 21
271.3086044071
 31
0.0
 70
   160
  1
<>
 71
     2
 42
-1.0
  3
SLDDIMSTYLE1
100
AcDbAlignedDimension
 13
328.021406086
 23
291.3086044071
 33
0.0
 14
348.021406086
 24
321.8652801691
 34
0.0
100
AcDbRotatedDimension
  0
DIMENSION
  5
1FB
330
1F
100
AcDbEntity
  8
SLD-0
100
AcDbDimension
  2
_D_7
 10
388.021406086
 20
334.8652801691
 30
0.0
 11
388.021406086
 21
313.0869422881
 31
0.0
 70
   160
  1
<>
 71
     2
 42
-1.0
  3
SLDDIMSTYLE1
100
AcDbAlignedDimension
 13
368.021406086
 23
291.3086044071
 33
0.0
 14
361.021406086
 24
334.8652801691
 34
0.0
 50
90.0
100
AcDbRotatedDimension
  0
DIMENSION
  5
207
330
1F
100
AcDbEntity
  8
SLD-0
100
AcDbDimension
  2
_D_8
 10
354.805584286
 20
342.8793257237
 30
0.0
 11
413.3964346777
 21
377.3984439358
 31
0.0
 70
   163
  1
<> Durchbohren
 71
     1
 42
-1.0
  3
SLDDIMSTYLE3
100
AcDbDiametricDimension
 15
341.2372278861
 25
326.8512346145
 35
0.0
 40
0.0
  0
INSERT
  5
220
330
1F
100
AcDbEntity
  8
SLD-0
100
AcDbBlockReference
  2
SW_CENTERMARKSYMBOL_0
 10
348.021406086
 20
334.8652801691
 30
0.0
  0
LINE
  5
221
330
1F
100
AcDbEntity
  8
0
  6
HIDDEN
 62
     7
370
    18
100
AcDbLine
 10
332.021406086
 20
291.3086044071
 30
0.0
 11
332.021406086
 21
301.3086044071
 31
0.0
  0
LINE
  5
222
330
1F
100
AcDbEntity
  8
0
  6
HIDDEN
 62
     7
370
    18
100
AcDbLine
 10
338.021406086
 20
291.3086044071
 30
0.0
 11
338.021406086
 21
301.3086044071
 31
0.0
  0
LINE
  5
223
330
1F
100
AcDbEntity
  8
0
  6
HIDDEN
 62
     7
370
    18
100
AcDbLine
 10
358.021406086
 20
291.3086044071
 30
0.0
 11
358.021406086
 21
301.3086044071
 31
0.0
  0
LINE
  5
224
330
1F
100
AcDbEntity
  8
0
  6
HIDDEN
 62
     7
370
    18
100
AcDbLine
 10
364.021406086
 20
291.3086044071
 30
0.0
 11
364.021406086
 21
301.3086044071
 31
0.0
  0
LINE
  5
225
330
1F
100
AcDbEntity
  8
0
  6
HIDDEN
 62
     7
370
    18
100
AcDbLine
 10
332.021406086
 20
291.3086044071
 30
0.0
 11
332.021406086
 21
301.3086044071
 31
0.0
  0
LINE
  5
226
330
1F
100
AcDbEntity
  8
0
  6
HIDDEN
 62
     7
370
    18
100
AcDbLine
 10
338.021406086
 20
291.3086044071
 30
0.0
 11
338.021406086
 21
301.3086044071
 31
0.0
  0
LINE
  5
227
330
1F
100
AcDbEntity
  8
0
  6
HIDDEN
 62
     7
370
    18
100
AcDbLine
 10
358.021406086
 20
291.3086044071
 30
0.0
 11
358.021406086
 21
301.3086044071
 31
0.0
  0
LINE
  5
228
330
1F
100
AcDbEntity
  8
0
  6
HIDDEN
 62
     7
370
    18
100
AcDbLine
 10
364.021406086
 20
291.3086044071
 30
0.0
 11
364.021406086
 21
301.3086044071
 31
0.0
  0
LINE
  5
229
330
1F
100
AcDbEntity
  8
0
  6
Continuous
 62
     7
370
    25
100
AcDbLine
 10
126.0966421826
 20
226.8433441761
 30
0.0
 11
141.0966421826
 21
226.8433441761
 31
0.0
  0
LINE
  5
22A
330
1F
100
AcDbEntity
  8
0
  6
Continuous
 62
     7
370
    25
100
AcDbLine
 10
141.0966421826
 20
226.8433441761
 30
0.0
 11
141.0966421826
 21
211.8433441761
 31
0.0
  0
LINE
  5
22B
330
1F
100
AcDbEntity
  8
0
  6
Continuous
 62
     7
370
    25
100
AcDbLine
 10
126.0966421826
 20
211.8433441761
 30
0.0
 11
126.0966421826
 21
226.8433441761
 31
0.0
  0
LINE
  5
22C
330
1F
100
AcDbEntity
  8
0
  6
Continuous
 62
     7
370
    25
100
AcDbLine
 10
141.0966421826
 20
201.8433441761
 30
0.0
 11
141.0966421826
 21
211.8433441761
 31
0.0
  0
LINE
  5
22D
330
1F
100
AcDbEntity
  8
0
  6
Continuous
 62
     7
370
    25
100
AcDbLine
 10
126.0966421826
 20
201.8433441761
 30
0.0
 11
126.0966421826
 21
211.8433441761
 31
0.0
  0
LINE
  5
22E
330
1F
100
AcDbEntity
  8
0
  6
Continuous
 62
     7
370
    25
100
AcDbLine
 10
141.0966421826
 20
186.8433441761
 30
0.0
 11
126.0966421826
 21
186.8433441761
 31
0.0
  0
LINE
  5
22F
330
1F
100
AcDbEntity
  8
0
  6
Continuous
 62
     7
370
    25
100
AcDbLine
 10
141.0966421826
 20
201.8433441761
 30
0.0
 11
141.0966421826
 21
186.8433441761
 31
0.0
  0
LINE
  5
230
330
1F
100
AcDbEntity
  8
0
  6
Continuous
 62
     7
370
    25
100
AcDbLine
 10
126.0966421826
 20
186.8433441761
 30
0.0
 11
126.0966421826
 21
201.8433441761
 31
0.0
  0
LINE
  5
231
330
1F
100
AcDbEntity
  8
0
  6
Continuous
 62
     7
370
    25
100
AcDbLine
 10
113.5966421826
 20
186.8433441761
 30
0.0
 11
113.5966421826
 21
226.8433441761
 31
0.0
  0
CIRCLE
  5
232
330
1F
100
AcDbEntity
  8
0
  6
Continuous
 62
     7
370
    25
100
AcDbCircle
 10
120.5966421826
 20
219.8433441761
 30
0.0
 40
2.499999999999986
  0
CIRCLE
  5
233
330
1F
100
AcDbEntity
  8
0
  6
Continuous
 62
     7
370
    25
100
AcDbCircle
 10
120.5966421826
 20
193.8433441761
 30
0.0
 40
2.499999999999986
  0
LINE
  5
234
330
1F
100
AcDbEntity
  8
0
  6
Continuous
 62
     7
370
    25
100
AcDbLine
 10
126.0966421826
 20
186.8433441761
 30
0.0
 11
113.5966421826
 21
186.8433441761
 31
0.0
  0
LINE
  5
235
330
1F
100
AcDbEntity
  8
0
  6
Continuous
 62
     7
370
    25
100
AcDbLine
 10
113.5966421826
 20
226.8433441761
 30
0.0
 11
126.0966421826
 21
226.8433441761
 31
0.0
  0
CIRCLE
  5
236
330
1F
100
AcDbEntity
  8
0
  6
Continuous
 62
     7
370
    25
100
AcDbCircle
 10
146.5966421826
 20
219.8433441761
 30
0.0
 40
2.499999999999972
  0
CIRCLE
  5
237
330
1F
100
AcDbEntity
  8
0
  6
Continuous
 62
     7
370
    25
100
AcDbCircle
 10
146.5966421826
 20
193.8433441761
 30
0.0
 40
2.499999999999972
  0
LINE
  5
238
330
1F
100
AcDbEntity
  8
0
  6
Continuous
 62
     7
370
    25
100
AcDbLine
 10
153.5966421826
 20
226.8433441761
 30
0.0
 11
153.5966421826
 21
186.8433441761
 31
0.0
  0
LINE
  5
239
330
1F
100
AcDbEntity
  8
0
  6
Continuous
 62
     7
370
    25
100
AcDbLine
 10
153.5966421826
 20
186.8433441761
 30
0.0
 11
141.0966421826
 21
186.8433441761
 31
0.0
  0
LINE
  5
23A
330
1F
100
AcDbEntity
  8
0
  6
Continuous
 62
     7
370
    25
100
AcDbLine
 10
141.0966421826
 20
226.8433441761
 30
0.0
 11
153.5966421826
 21
226.8433441761
 31
0.0
  0
LINE
  5
23B
330
1F
100
AcDbEntity
  8
0
  6
Continuous
 62
     8
370
    18
100
AcDbLine
 10
141.0966421826
 20
211.8433441761
 30
0.0
 11
126.0966421826
 21
211.8433441761
 31
0.0
  0
LINE
  5
23C
330
1F
100
AcDbEntity
  8
0
  6
Continuous
 62
     8
370
    18
100
AcDbLine
 10
126.0966421826
 20
201.8433441761
 30
0.0
 11
141.0966421826
 21
201.8433441761
 31
0.0
  0
LINE
  5
23D
330
1F
100
AcDbEntity
  8
0
  6
HIDDEN
 62
     7
370
    18
100
AcDbLine
 10
141.0966421826
 20
217.3433441761
 30
0.0
 11
126.0966421826
 21
217.3433441761
 31
0.0
  0
LINE
  5
23E
330
1F
100
AcDbEntity
  8
0
  6
HIDDEN
 62
     7
370
    18
100
AcDbLine
 10
126.0966421826
 20
196.3433441761
 30
0.0
 11
141.0966421826
 21
196.3433441761
 31
0.0
  0
DIMENSION
  5
23F
330
1F
100
AcDbEntity
  8
SLD-0
100
AcDbDimension
  2
_D_9
 10
120.5966421826
 20
166.8433441761
 30
0.0
 11
117.0966421826
 21
166.8433441761
 31
0.0
 70
   160
  1
<>
 71
     2
 42
-1.0
  3
SLDDIMSTYLE1
100
AcDbAlignedDimension
 13
113.5966421826
 23
186.8433441761
 33
0.0
 14
120.5966421826
 24
188.8433441761
 34
0.0
100
AcDbRotatedDimension
  0
DIMENSION
  5
24B
330
1F
100
AcDbEntity
  8
SLD-0
100
AcDbDimension
  2
_D_10
 10
146.5966421826
 20
154.8433441761
 30
0.0
 11
130.0966421826
 21
154.8433441761
 31
0.0
 70
   160
  1
<>
 71
     2
 42
-1.0
  3
SLDDIMSTYLE1
100
AcDbAlignedDimension
 13
113.5966421826
 23
186.8433441761
 33
0.0
 14
146.5966421826
 24
188.8433441761
 34
0.0
100
AcDbRotatedDimension
  0
DIMENSION
  5
255
330
1F
100
AcDbEntity
  8
SLD-0
100
AcDbDimension
  2
_D_11
 10
153.5966421826
 20
142.8433441761
 30
0.0
 11
133.5966421826
 21
142.8433441761
 31
0.0
 70
   160
  1
<>
 71
     2
 42
-1.0
  3
SLDDIMSTYLE0
100
AcDbAlignedDimension
 13
113.5966421826
 23
186.8433441761
 33
0.0
 14
153.5966421826
 24
186.8433441761
 34
0.0
100
AcDbRotatedDimension
  0
DIMENSION
  5
25F
330
1F
100
AcDbEntity
  8
SLD-0
100
AcDbDimension
  2
_D_12
 10
173.5966421826
 20
193.8433441761
 30
0.0
 11
173.5966421826
 21
190.3433441761
 31
0.0
 70
   160
  1
<>
 71
     2
 42
-1.0
  3
SLDDIMSTYLE1
100
AcDbAlignedDimension
 13
153.5966421826
 23
186.8433441761
 33
0.0
 14
151.5966421826
 24
193.8433441761
 34
0.0
 50
90.0
100
AcDbRotatedDimension
  0
DIMENSION
  5
26B
330
1F
100
AcDbEntity
  8
SLD-0
100
AcDbDimension
  2
_D_13
 10
185.5966421826
 20
219.8433441761
 30
0.0
 11
185.5966421826
 21
203.3433441761
 31
0.0
 70
   160
  1
<>
 71
     2
 42
-1.0
  3
SLDDIMSTYLE1
100
AcDbAlignedDimension
 13
153.5966421826
 23
186.8433441761
 33
0.0
 14
151.5966421826
 24
219.8433441761
 34
0.0
 50
90.0
100
AcDbRotatedDimension
  0
DIMENSION
  5
275
330
1F
100
AcDbEntity
  8
SLD-0
100
AcDbDimension
  2
_D_14
 10
197.5966421826
 20
226.8433441761
 30
0.0
 11
197.5966421826
 21
206.8433441761
 31
0.0
 70
   160
  1
<>
 71
     2
 42
-1.0
  3
SLDDIMSTYLE0
100
AcDbAlignedDimension
 13
153.5966421826
 23
186.8433441761
 33
0.0
 14
153.5966421826
 24
226.8433441761
 34
0.0
 50
90.0
100
AcDbRotatedDimension
  0
DIMENSION
  5
27F
330
1F
100
AcDbEntity
  8
SLD-0
100
AcDbDimension
  2
_D_15
 10
118.4273049688
 20
221.0859125052
 30
0.0
 11
64.9508757217
 21
245.8242131044
 31
0.0
 70
   163
  1
4 x <> {\fGDT;x} 17\PM6 - 6H {\fGDT;x} 12\P
 71
     1
 42
-1.0
  3
SLDDIMSTYLE4
100
AcDbDiametricDimension
 15
122.7659793964
 25
218.6007758469
 35
0.0
 40
0.0
  0
INSERT
  5
2A4
330
1F
100
AcDbEntity
  8
SLD-0
100
AcDbBlockReference
  2
SW_CENTERMARKSYMBOL_1
 10
146.5966421826
 20
219.8433441761
 30
0.0
  0
INSERT
  5
2B0
330
1F
100
AcDbEntity
  8
SLD-0
100
AcDbBlockReference
  2
SW_CENTERMARKSYMBOL_2
 10
146.5966421826
 20
193.8433441761
 30
0.0
  0
INSERT
  5
2BC
330
1F
100
AcDbEntity
  8
SLD-0
100
AcDbBlockReference
  2
SW_CENTERMARKSYMBOL_3
 10
120.5966421826
 20
219.8433441761
 30
0.0
  0
INSERT
  5
2C8
330
1F
100
AcDbEntity
  8
SLD-0
100
AcDbBlockReference
  2
SW_CENTERMARKSYMBOL_4
 10
120.5966421826
 20
193.8433441761
 30
0.0
  0
ARC
  5
2C9
330
1F
100
AcDbEntity
  8
0
  6
HIDDEN
 62
     7
370
    18
100
AcDbCircle
 10
146.5966421826
 20
219.8433441761
 30
0.0
 40
2.999999999999987
100
AcDbArc
 50
255.0
 51
195.0
  0
ARC
  5
2CA
330
1F
100
AcDbEntity
  8
0
  6
HIDDEN
 62
     7
370
    18
100
AcDbCircle
 10
146.5966421826
 20
193.8433441761
 30
0.0
 40
2.999999999999994
100
AcDbArc
 50
255.0
 51
195.0
  0
ARC
  5
2CB
330
1F
100
AcDbEntity
  8
0
  6
HIDDEN
 62
     7
370
    18
100
AcDbCircle
 10
120.5966421826
 20
219.8433441761
 30
0.0
 40
2.999999999999973
100
AcDbArc
 50
255.0
 51
195.0
  0
ARC
  5
2CC
330
1F
100
AcDbEntity
  8
0
  6
HIDDEN
 62
     7
370
    18
100
AcDbCircle
 10
120.5966421826
 20
193.8433441761
 30
0.0
 40
2.999999999999994
100
AcDbArc
 50
255.0
 51
195.0
  0
LINE
  5
2CD
330
1F
100
AcDbEntity
  8
0
  6
Continuous
 62
     7
370
    25
100
AcDbLine
 10
540.1250038535
 20
230.8881338233
 30
0.0
 11
529.5184021357
 21
237.0111946619
 31
0.0
  0
ARC
  5
2CE
330
1F
100
AcDbEntity
  8
0
  6
Continuous
 62
     7
370
    25
100
AcDbCircle
 10
537.9443434298
 20
206.6627706469
 30
0.0
 40
23.01943362106443
100
AcDbArc
 50
122.5633705023
 51
177.4366293521
  0
ARC
  5
2CF
330
1F
100
AcDbEntity
  8
0
  6
Continuous
 62
     7
370
    25
100
AcDbCircle
 10
527.3377161891
 20
212.7858462212
 30
0.0
 40
23.01940746467264
100
AcDbArc
 50
122.5633367028
 51
177.4366631515
  0
LINE
  5
2D0
330
1F
100
AcDbEntity
  8
0
  6
Continuous
 62
     7
370
    25
100
AcDbLine
 10
525.5545455469
 20
226.0634725067
 30
0.0
 11
532.6256133587
 21
230.1455130658
 31
0.0
  0
LWPOLYLINE
  5
2D1
330
1F
100
AcDbEntity
  8
0
  6
Continuous
 62
     7
370
    25
100
AcDbPolyline
 90
       26
 70
   128
 43
0.0
 10
543.2322150765
 20
224.0204617262
 10
543.2112853709
 20
224.7774445913
 10
543.148578854
 20
225.507275067
 10
543.0443429997
 20
226.207072846
 10
542.8989891794
 20
226.8740761461
 10
542.7130910382
 20
227.5056526099
 10
542.4873822311
 20
228.0993096939
 10
542.2227535277
 20
228.6527045046
 10
541.9202492966
 20
229.1636530455
 10
541.5810633838
 20
229.6301388362
 10
541.206534401
 20
230.0503208704
 10
540.7981404432
 20
230.4225408816
 10
540.3574932546
 20
230.7453298875
 10
539.8863318684
 20
231.0174139872
 10
539.3865157434
 20
231.2377193892
 10
538.8600174254
 20
231.4053766487
 10
538.3089147628
 20
231.519724099
 10
537.735382706
 20
231.5803104631
 10
537.1416847241
 20
231.5868966342
 10
536.5301638716
 20
231.5394566197
 10
535.9032335421
 20
231.4381776438
 10
535.2633679431
 20
231.2834594081
 10
534.6130923319
 20
231.075912515
 10
533.9549730492
 20
230.8163560572
 10
533.291607391
 20
230.5058143854
 10
532.6256133587
 20
230.1455130658
  0
LINE
  5
2D2
330
1F
100
AcDbEntity
  8
0
  6
Continuous
 62
     7
370
    25
100
AcDbLine
 10
543.2322150765
 20
224.0204617262
 30
0.0
 11
543.2322150765
 21
196.2580741221
 31
0.0
  0
LINE
  5
2D3
330
1F
100
AcDbEntity
  8
0
  6
Continuous
 62
     7
370
    25
100
AcDbLine
 10
514.9479438291
 20
179.9299118856
 30
0.0
 11
543.2322150765
 21
196.2580741221
 31
0.0
  0
LINE
  5
2D4
330
1F
100
AcDbEntity
  8
0
  6
Continuous
 62
     7
370
    25
100
AcDbLine
 10
514.9479438291
 20
179.9299118856
 30
0.0
 11
514.9479438291
 21
207.6922994898
 31
0.0
  0
LWPOLYLINE
  5
2D5
330
1F
100
AcDbEntity
  8
0
  6
Continuous
 62
     7
370
    25
100
AcDbPolyline
 90
       87
 70
   128
 43
0.0
 10
536.5147006553
 20
219.7805308618
 10
536.494893872
 20
220.3949350109
 10
536.4355791999
 20
220.9831926229
 10
536.3370731085
 20
221.5421650888
 10
536.1999011704
 20
222.0688700486
 10
536.0247952571
 20
222.5604973037
 10
535.8126896346
 20
223.0144238097
 10
535.5647159781
 20
223.4282276724
 10
535.2821973343
 20
223.7997010692
 10
534.9666410625
 20
224.1268620288
 10
534.6197307918
 20
224.4079650058
 10
534.2433174387
 20
224.6415101943
 10
533.8394093313
 20
224.8262515297
 10
533.4101614941
 20
224.961203337
 10
532.95786415
 20
225.0456455898
 10
532.4849305011
 20
225.0791277523
 10
531.9938838529
 20
225.0614711827
 10
531.4873441519
 20
224.9927700863
 10
530.9680140065
 20
224.8733910132
 10
530.4386642677
 20
224.7039709026
 10
529.9021192455
 20
224.4854136838
 10
529.3612416396
 20
224.2188854543
 10
528.8189172661
 20
223.9058082575
 10
528.2780396602
 20
223.5478524957
 10
527.7414946379
 20
223.1469280178
 10
527.2121448991
 20
222.7051739293
 10
526.6928147537
 20
222.2249471794
 10
526.1862750527
 20
221.7088099857
 10
525.6952284045
 20
221.1595161633
 10
525.2222947556
 20
220.5799964324
 10
524.7699974115
 20
219.9733427817
 10
524.3407495743
 20
219.3427919707
 10
523.9368414669
 20
218.6917082609
 10
523.5604281138
 20
218.0235654656
 10
523.2135178431
 20
217.3419284156
 10
522.8979615713
 20
216.6504339397
 10
522.6154429275
 20
215.9527714599
 10
522.367469271
 20
215.2526633075
 10
522.1553636485
 20
214.5538448624
 10
521.9802577352
 20
213.8600446233
 10
521.8430857971
 20
213.1749643148
 10
521.7445797057
 20
212.5022591366
 10
521.6852650336
 20
211.845518262
 10
521.6654582504
 20
211.2082456877
 10
521.6852650336
 20
210.5938415385
 10
521.7445797057
 20
210.0055839266
 10
521.8430857971
 20
209.4466114607
 10
521.9802577352
 20
208.9199065008
 10
522.1553636485
 20
208.4282792458
 10
522.367469271
 20
207.9743527398
 10
522.6154429275
 20
207.560548877
 10
522.8979615713
 20
207.1890754802
 10
523.2135178431
 20
206.8619145207
 10
523.5604281138
 20
206.5808115436
 10
523.9368414669
 20
206.3472663551
 10
524.3407495743
 20
206.1625250198
 10
524.7699974115
 20
206.0275732125
 10
525.2222947556
 20
205.9431309596
 10
525.6952284045
 20
205.9096487971
 10
526.1862750527
 20
205.9273053668
 10
526.6928147537
 20
205.9960064632
 10
527.2121448991
 20
206.1153855362
 10
527.7414946379
 20
206.2848056469
 10
528.2780396602
 20
206.5033628657
 10
528.8189172661
 20
206.7698910951
 10
529.3612416396
 20
207.0829682919
 10
529.9021192455
 20
207.4409240537
 10
530.4386642677
 20
207.8418485316
 10
530.9680140065
 20
208.2836026201
 10
531.4873441519
 20
208.76382937
 10
531.9938838529
 20
209.2799665638
 10
532.4849305011
 20
209.8292603862
 10
532.95786415
 20
210.408780117
 10
533.4101614941
 20
211.0154337678
 10
533.8394093313
 20
211.6459845788
 10
534.2433174387
 20
212.2970682886
 10
534.6197307918
 20
212.9652110839
 10
534.9666410625
 20
213.6468481338
 10
535.2821973343
 20
214.3383426098
 10
535.5647159781
 20
215.0360050896
 10
535.8126896346
 20
215.736113242
 10
536.0247952571
 20
216.4349316871
 10
536.1999011704
 20
217.1287319262
 10
536.3370731085
 20
217.8138122347
 10
536.4355791999
 20
218.4865174129
 10
536.494893872
 20
219.1432582875
 10
536.5147006553
 20
219.7805308618
  0
LINE
  5
2D6
330
1F
100
AcDbEntity
  8
0
  6
Continuous
 62
     7
370
    25
100
AcDbLine
 10
495.5025073465
 20
191.1555234232
 30
0.0
 11
495.5025073465
 21
182.9901153044
 31
0.0
  0
LINE
  5
2D7
330
1F
100
AcDbEntity
  8
0
  6
Continuous
 62
     7
370
    25
100
AcDbLine
 10
504.3413421113
 20
186.0529727243
 30
0.0
 11
495.5025073465
 21
191.1555234232
 31
0.0
  0
LINE
  5
2D8
330
1F
100
AcDbEntity
  8
0
  6
Continuous
 62
     7
370
    25
100
AcDbLine
 10
504.3413421113
 20
186.0529727243
 30
0.0
 11
504.3413421113
 21
213.8153603284
 31
0.0
  0
LINE
  5
2D9
330
1F
100
AcDbEntity
  8
0
  6
Continuous
 62
     7
370
    25
100
AcDbLine
 10
523.7867785939
 20
174.8273611868
 30
0.0
 11
514.9479438291
 21
179.9299118856
 31
0.0
  0
LINE
  5
2DA
330
1F
100
AcDbEntity
  8
0
  6
Continuous
 62
     7
370
    25
100
AcDbLine
 10
523.7867785939
 20
174.8273611868
 30
0.0
 11
523.7867785939
 21
166.6619530679
 31
0.0
  0
LINE
  5
2DB
330
1F
100
AcDbEntity
  8
0
  6
Continuous
 62
     7
370
    25
100
AcDbLine
 10
523.7867785939
 20
166.6619530679
 30
0.0
 11
495.5025073465
 21
182.9901153044
 31
0.0
  0
LINE
  5
2DC
330
1F
100
AcDbEntity
  8
0
  6
Continuous
 62
     7
370
    25
100
AcDbLine
 10
514.9479438291
 20
232.1865333454
 30
0.0
 11
522.0190116409
 21
236.2685739045
 31
0.0
  0
ARC
  5
2DD
330
1F
100
AcDbEntity
  8
0
  6
Continuous
 62
     7
370
    25
100
AcDbCircle
 10
526.4040101112
 20
230.224244937
 30
0.0
 40
7.467404117280591
100
AcDbArc
 50
65.3505805281
 51
125.959877901
  0
LINE
  5
2DE
330
1F
100
AcDbEntity
  8
0
  6
Continuous
 62
     7
370
    25
100
AcDbLine
 10
552.0710498414
 20
191.1555234232
 30
0.0
 11
523.7867785939
 21
174.8273611868
 31
0.0
  0
LINE
  5
2DF
330
1F
100
AcDbEntity
  8
0
  6
Continuous
 62
     7
370
    25
100
AcDbLine
 10
552.0710498414
 20
191.1555234232
 30
0.0
 11
552.0710498414
 21
182.9901153044
 31
0.0
  0
LINE
  5
2E0
330
1F
100
AcDbEntity
  8
0
  6
Continuous
 62
     7
370
    25
100
AcDbLine
 10
552.0710498414
 20
182.9901153044
 30
0.0
 11
523.7867785939
 21
166.6619530679
 31
0.0
  0
LINE
  5
2E1
330
1F
100
AcDbEntity
  8
0
  6
Continuous
 62
     7
370
    25
100
AcDbLine
 10
543.2322150765
 20
196.2580741221
 30
0.0
 11
552.0710498414
 21
191.1555234232
 31
0.0
  0
LWPOLYLINE
  5
2E2
330
1F
100
AcDbEntity
  8
0
  6
Continuous
 62
     7
370
    25
100
AcDbPolyline
 90
       43
 70
   128
 43
0.0
 10
543.9393218577
 20
190.1350132834
 10
543.6561053687
 20
189.9943123946
 10
543.3397264754
 20
189.8795510414
 10
542.9972525597
 20
189.7932928026
 10
542.6363339227
 20
189.737464545
 10
542.2650328905
 20
189.7133133793
 10
541.8916437145
 20
189.7213788029
 10
541.524507292
 20
189.7614806475
 10
541.171824844
 20
189.832723104
 10
540.8414747135
 20
189.9335147339
 10
540.5408363766
 20
190.0616040185
 10
540.2766255969
 20
190.214129655
 10
540.0547444067
 20
190.3876844727
 10
539.8801492651
 20
190.5783915437
 10
539.756740339
 20
190.7819907872
 10
539.68727438
 20
190.9939341326
 10
539.6733031428
 20
191.2094871157
 10
539.7151387217
 20
191.4238346391
 10
539.811846579
 20
191.6321885333
 10
539.961266421
 20
191.8298945166
 10
540.1600604553
 20
192.012536164
 10
540.4037879518
 20
192.176033563
 10
540.6870044408
 20
192.3167344518
 10
541.0033833341
 20
192.4314958051
 10
541.3458572499
 20
192.5177540438
 10
541.7067758869
 20
192.5735823015
 10
542.0780769191
 20
192.5977334671
 10
542.451466095
 20
192.5896680435
 10
542.8186025175
 20
192.549566199
 10
543.1712849656
 20
192.4783237424
 10
543.5016350961
 20
192.3775321126
 10
543.802273433
 20
192.2494428279
 10
544.0664842126
 20
192.0969171914
 10
544.2883654028
 20
191.9233623737
 10
544.4629605444
 20
191.7326553027
 10
544.5863694705
 20
191.5290560592
 10
544.6558354295
 20
191.3171127138
 10
544.6698066667
 20
191.1015597307
 10
544.6279710878
 20
190.8872122073
 10
544.5312632305
 20
190.6788583131
 10
544.3818433885
 20
190.4811523298
 10
544.1830493542
 20
190.2985106824
 10
543.9393218577
 20
190.1350132834
  0
LWPOLYLINE
  5
2E3
330
1F
100
AcDbEntity
  8
0
  6
Continuous
 62
     7
370
    25
100
AcDbPolyline
 90
       43
 70
   128
 43
0.0
 10
525.5545455469
 20
179.5217078297
 10
525.2713290578
 20
179.3810069409
 10
524.9549501646
 20
179.2662455877
 10
524.6124762488
 20
179.1799873489
 10
524.2515576118
 20
179.1241590913
 10
523.8802565796
 20
179.1000079256
 10
523.5068674037
 20
179.1080733492
 10
523.1397309812
 20
179.1481751938
 10
522.7870485331
 20
179.2194176503
 10
522.4566984026
 20
179.3202092802
 10
522.1560600657
 20
179.4482985648
 10
521.8918492861
 20
179.6008242013
 10
521.6699680958
 20
179.774379019
 10
521.4953729542
 20
179.96508609
 10
521.3719640282
 20
180.1686853335
 10
521.3024980692
 20
180.3806286789
 10
521.2885268319
 20
180.596181662
 10
521.3303624108
 20
180.8105291854
 10
521.4270702681
 20
181.0188830796
 10
521.5764901102
 20
181.2165890629
 10
521.7752841445
 20
181.3992307103
 10
522.0190116409
 20
181.5627281093
 10
522.30222813
 20
181.7034289981
 10
522.6186070232
 20
181.8181903514
 10
522.961080939
 20
181.9044485901
 10
523.321999576
 20
181.9602768478
 10
523.6933006082
 20
181.9844280134
 10
524.0666897842
 20
181.9763625898
 10
524.4338262067
 20
181.9362607453
 10
524.7865086547
 20
181.8650182887
 10
525.1168587852
 20
181.7642266589
 10
525.4174971221
 20
181.6361373742
 10
525.6817079018
 20
181.4836117377
 10
525.903589092
 20
181.31005692
 10
526.0781842336
 20
181.119349849
 10
526.2015931596
 20
180.9157506055
 10
526.2710591186
 20
180.7038072601
 10
526.2850303559
 20
180.488254277
 10
526.243194777
 20
180.2739067536
 10
526.1464869197
 20
180.0655528595
 10
525.9970670777
 20
179.8678468762
 10
525.7982730433
 20
179.6852052287
 10
525.5545455469
 20
179.5217078297
  0
LINE
  5
2E4
330
1F
100
AcDbEntity
  8
0
  6
Continuous
 62
     7
370
    25
100
AcDbLine
 10
495.5025073465
 20
191.1555234232
 30
0.0
 11
504.3413421113
 21
196.2580741221
 31
0.0
  0
LWPOLYLINE
  5
2E5
330
1F
100
AcDbEntity
  8
0
  6
Continuous
 62
     7
370
    25
100
AcDbPolyline
 90
       17
 70
   128
 43
0.0
 10
504.3413421113
 20
189.8486327811
 10
504.0719220918
 20
189.9335147339
 10
503.7712837549
 20
190.0616040185
 10
503.5070729752
 20
190.214129655
 10
503.285191785
 20
190.3876844727
 10
503.1105966434
 20
190.5783915437
 10
502.9871877173
 20
190.7819907872
 10
502.9177217583
 20
190.9939341326
 10
502.9037505211
 20
191.2094871157
 10
502.9455861
 20
191.4238346391
 10
503.0422939573
 20
191.6321885333
 10
503.1917137993
 20
191.8298945166
 10
503.3905078336
 20
192.012536164
 10
503.6342353301
 20
192.176033563
 10
503.9174518191
 20
192.3167344518
 10
504.2338307124
 20
192.4314958051
 10
504.3413421113
 20
192.4624140653
  0
LINE
  5
2E6
330
1F
100
AcDbEntity
  8
0
  6
Continuous
 62
     8
370
    18
100
AcDbLine
 10
514.9479438291
 20
232.1865333454
 30
0.0
 11
525.5545455469
 21
226.0634725067
 31
0.0
  0
LINE
  5
2E7
330
1F
100
AcDbEntity
  8
0
  6
Continuous
 62
     8
370
    18
100
AcDbLine
 10
514.9479438291
 20
207.6922994898
 30
0.0
 11
504.3413421113
 21
213.8153603284
 31
0.0
  0
LINE
  5
2E8
330
1F
100
AcDbEntity
  8
0
  6
Continuous
 62
     8
370
    18
100
AcDbLine
 10
532.6256133587
 20
230.1455130658
 30
0.0
 11
522.0190116409
 21
236.2685739045
 31
0.0
  0
INSERT
  5
2EE
330
1F
100
AcDbEntity
  8
0
  6
Continuous
 62
     7
370
     0
100
AcDbBlockReference
  2
SW_NOTE_0_6
 10
496.3642384106
 20
161.5894039735
 30
0.0
  0
LEADER
  5
2F5
330
1F
100
AcDbEntity
  8
0
  6
Continuous
 62
     7
370
     0
100
AcDbLeader
  3
SLDDIMSTYLE5
 76
     2
 10
508.9523609654
 20
194.4912906541
 30
0.0
 10
496.3642384106
 20
161.5894039735
 30
0.0
  0
LWPOLYLINE
  5
2F6
330
1F
100
AcDbEntity
  8
0
  6
HIDDEN
 62
     7
370
    18
100
AcDbPolyline
 90
       17
 70
   128
 43
0.0
 10
544.2928752483
 20
181.7655031366
 10
544.9431935023
 20
182.327359975
 10
545.1715549048
 20
182.9901153044
 10
544.9431935023
 20
183.6528706337
 10
544.2928752483
 20
184.2147274721
 10
543.3196052019
 20
184.5901482091
 10
542.1715549048
 20
184.7219784406
 10
541.0235046077
 20
184.5901482091
 10
540.0502345612
 20
184.2147274721
 10
539.3999163072
 20
183.6528706337
 10
539.1715549048
 20
182.9901153044
 10
539.3999163072
 20
182.327359975
 10
540.0502345612
 20
181.7655031366
 10
541.0235046077
 20
181.3900823997
 10
542.1715549048
 20
181.2582521681
 10
543.3196052019
 20
181.3900823997
 10
544.2928752483
 20
181.7655031366
  0
LWPOLYLINE
  5
2F7
330
1F
100
AcDbEntity
  8
0
  6
HIDDEN
 62
     7
370
    18
100
AcDbPolyline
 90
       17
 70
   128
 43
0.0
 10
525.9080989375
 20
171.1521976829
 10
526.5584171914
 20
171.7140545213
 10
526.7867785939
 20
172.3768098507
 10
526.5584171914
 20
173.03956518
 10
525.9080989375
 20
173.6014220184
 10
524.934828891
 20
173.9768427554
 10
523.7867785939
 20
174.1086729869
 10
522.6387282968
 20
173.9768427554
 10
521.6654582504
 20
173.6014220184
 10
521.0151399964
 20
173.03956518
 10
520.7867785939
 20
172.3768098507
 10
521.0151399964
 20
171.7140545213
 10
521.6654582504
 20
171.1521976829
 10
522.6387282968
 20
170.776776946
 10
523.7867785939
 20
170.6449467144
 10
524.934828891
 20
170.776776946
 10
525.9080989375
 20
171.1521976829
  0
LWPOLYLINE
  5
2F8
330
1F
100
AcDbEntity
  8
0
  6
HIDDEN
 62
     7
370
    18
100
AcDbPolyline
 90
       17
 70
   128
 43
0.0
 10
525.9080989375
 20
192.3788085903
 10
526.5584171914
 20
192.9406654287
 10
526.7867785939
 20
193.603420758
 10
526.5584171914
 20
194.2661760874
 10
525.9080989375
 20
194.8280329258
 10
524.934828891
 20
195.2034536627
 10
523.7867785939
 20
195.3352838943
 10
522.6387282968
 20
195.2034536627
 10
521.6654582504
 20
194.8280329258
 10
521.0151399964
 20
194.2661760874
 10
520.7867785939
 20
193.603420758
 10
521.0151399964
 20
192.9406654287
 10
521.6654582504
 20
192.3788085903
 10
522.6387282968
 20
192.0033878534
 10
523.7867785939
 20
191.8715576218
 10
524.934828891
 20
192.0033878534
 10
525.9080989375
 20
192.3788085903
  0
LWPOLYLINE
  5
2F9
330
1F
100
AcDbEntity
  8
0
  6
HIDDEN
 62
     7
370
    18
100
AcDbPolyline
 90
       17
 70
   128
 43
0.0
 10
507.5233226266
 20
181.7655031366
 10
508.1736408806
 20
182.327359975
 10
508.4020022831
 20
182.9901153044
 10
508.1736408806
 20
183.6528706337
 10
507.5233226266
 20
184.2147274721
 10
506.5500525802
 20
184.5901482091
 10
505.4020022831
 20
184.7219784406
 10
504.253951986
 20
184.5901482091
 10
503.2806819395
 20
184.2147274721
 10
502.6303636855
 20
183.6528706337
 10
502.4020022831
 20
182.9901153044
 10
502.6303636855
 20
182.327359975
 10
503.2806819395
 20
181.7655031366
 10
504.253951986
 20
181.3900823997
 10
505.4020022831
 20
181.2582521681
 10
506.5500525802
 20
181.3900823997
 10
507.5233226266
 20
181.7655031366
  0
ENDSEC
  0
SECTION
  2
OBJECTS
  0
DICTIONARY
  5
C
330
0
100
AcDbDictionary
281
     1
  3
ACAD_DETAILVIEWSTYLE
350
303
  3
ACAD_GROUP
350
D
  3
ACAD_LAYOUT
350
1A
  3
ACAD_MATERIAL
350
43
  3
ACAD_MLEADERSTYLE
350
5B
  3
ACAD_MLINESTYLE
350
17
  3
ACAD_PLOTSETTINGS
350
19
  3
ACAD_PLOTSTYLENAME
350
E
  3
ACAD_SCALELIST
350
47
  3
ACAD_SECTIONVIEWSTYLE
350
304
  3
ACAD_TABLESTYLE
350
59
  3
ACDB_RECOMPOSE_DATA
350
300
  3
AcDbVariableDictionary
350
2FA
  0
DICTIONARY
  5
303
102
{ACAD_REACTORS
330
C
102
}
330
C
100
AcDbDictionary
281
     1
  0
DICTIONARY
  5
D
102
{ACAD_REACTORS
330
C
102
}
330
C
100
AcDbDictionary
281
     1
  0
DICTIONARY
  5
1A
102
{ACAD_REACTORS
330
C
102
}
330
C
100
AcDbDictionary
281
     1
  3
Layout1
350
1E
  3
Layout2
350
26
  3
Model
350
22
  0
DICTIONARY
  5
43
102
{ACAD_REACTORS
330
C
102
}
330
C
100
AcDbDictionary
281
     1
  3
ByBlock
350
45
  3
ByLayer
350
44
  3
Global
350
46
  0
DICTIONARY
  5
5B
102
{ACAD_REACTORS
330
C
102
}
330
C
100
AcDbDictionary
281
     1
  3
Standard
350
5C
  0
DICTIONARY
  5
17
102
{ACAD_REACTORS
330
C
102
}
330
C
100
AcDbDictionary
281
     1
  3
Standard
350
18
  0
DICTIONARY
  5
19
102
{ACAD_REACTORS
330
C
102
}
330
C
100
AcDbDictionary
281
     1
  0
ACDBDICTIONARYWDFLT
  5
E
102
{ACAD_REACTORS
330
C
102
}
330
C
100
AcDbDictionary
281
     1
  3
Normal
350
F
100
AcDbDictionaryWithDefault
340
F
  0
DICTIONARY
  5
47
102
{ACAD_REACTORS
330
C
102
}
330
C
100
AcDbDictionary
281
     1
  3
A0
350
48
  3
A1
350
49
  3
A2
350
4A
  3
A3
350
4B
  3
A4
350
4C
  3
A5
350
4D
  3
A6
350
4E
  3
A7
350
4F
  3
A8
350
50
  3
A9
350
51
  3
B0
350
52
  3
B1
350
53
  3
B2
350
54
  3
B3
350
55
  3
B4
350
56
  3
B5
350
57
  3
B6
350
58
  0
DICTIONARY
  5
304
102
{ACAD_REACTORS
330
C
102
}
330
C
100
AcDbDictionary
281
     1
  0
DICTIONARY
  5
59
102
{ACAD_REACTORS
330
C
102
}
330
C
100
AcDbDictionary
281
     1
  3
Standard
350
5A
  0
XRECORD
  5
300
102
{ACAD_REACTORS
330
C
102
}
330
C
100
AcDbXrecord
280
     1
 90
        1
330
5A
  0
DICTIONARY
  5
2FA
102
{ACAD_REACTORS
330
C
102
}
330
C
100
AcDbDictionary
281
     1
  3
CANNOSCALE
350
2FB
  3
CENTEREXE
350
305
  3
CENTERLTYPEFILE
350
306
  3
CMLEADERSTYLE
350
302
  3
CTABLESTYLE
350
301
  0
LAYOUT
  5
1E
102
{ACAD_REACTORS
330
1A
102
}
330
1A
100
AcDbPlotSettings
  1

  2
none_device
  4

  6

 40
0.0
 41
0.0
 42
0.0
 43
0.0
 44
0.0
 45
0.0
 46
0.0
 47
0.0
 48
0.0
 49
0.0
140
0.0
141
0.0
142
1.0
143
1.0
 70
   688
 72
     1
 73
     0
 74
     5
  7

 75
    16
 76
     0
 77
     2
 78
   300
147
1.0
148
0.0
149
0.0
100
AcDbLayout
  1
Layout1
 70
     1
 71
     1
 10
0.0
 20
0.0
 11
420.0
 21
297.0
 12
0.0
 22
0.0
 32
0.0
 14
1.0000000000E+20
 24
1.0000000000E+20
 34
1.0000000000E+20
 15
-1.0000000000E+20
 25
-1.0000000000E+20
 35
-1.0000000000E+20
146
0.0
 13
0.0
 23
0.0
 33
0.0
 16
1.0
 26
0.0
 36
0.0
 17
0.0
 27
1.0
 37
0.0
 76
     0
330
1B
  0
LAYOUT
  5
26
102
{ACAD_REACTORS
330
1A
102
}
330
1A
100
AcDbPlotSettings
  1

  2
none_device
  4

  6

 40
0.0
 41
0.0
 42
0.0
 43
0.0
 44
0.0
 45
0.0
 46
0.0
 47
0.0
 48
0.0
 49
0.0
140
0.0
141
0.0
142
1.0
143
1.0
 70
   688
 72
     1
 73
     0
 74
     5
  7

 75
    16
 76
     0
 77
     2
 78
   300
147
1.0
148
0.0
149
0.0
100
AcDbLayout
  1
Layout2
 70
     1
 71
     2
 10
0.0
 20
0.0
 11
0.0
 21
0.0
 12
0.0
 22
0.0
 32
0.0
 14
0.0
 24
0.0
 34
0.0
 15
0.0
 25
0.0
 35
0.0
146
0.0
 13
0.0
 23
0.0
 33
0.0
 16
1.0
 26
0.0
 36
0.0
 17
0.0
 27
1.0
 37
0.0
 76
     0
330
23
  0
LAYOUT
  5
22
102
{ACAD_REACTORS
330
1A
102
}
330
1A
100
AcDbPlotSettings
  1

  2
none_device
  4
Letter_(8.50_x_11.00_Inches)
  6

 40
6.35
 41
6.35
 42
6.35000508
 43
6.35000508
 44
215.9
 45
279.4
 46
0.0
 47
0.0
 48
0.0
 49
0.0
140
0.0
141
0.0
142
1.0
143
1.0
 70
  1712
 72
     1
 73
     0
 74
     0
  7

 75
     0
 76
     0
 77
     2
 78
   300
147
1.0
148
0.0
149
0.0
100
AcDbLayout
  1
Model
 70
     1
 71
     0
 10
0.0
 20
0.0
 11
594.0
 21
420.0
 12
0.0
 22
0.0
 32
0.0
 14
0.0
 24
0.0
 34
0.0
 15
594.0
 25
420.0
 35
0.0
146
0.0
 13
0.0
 23
0.0
 33
0.0
 16
1.0
 26
0.0
 36
0.0
 17
0.0
 27
1.0
 37
0.0
 76
     0
330
1F
331
29
  0
MATERIAL
  5
45
102
{ACAD_REACTORS
330
43
102
}
330
43
100
AcDbMaterial
  1
ByBlock
  0
MATERIAL
  5
44
102
{ACAD_REACTORS
330
43
102
}
330
43
100
AcDbMaterial
  1
ByLayer
  0
MATERIAL
  5
46
102
{ACAD_REACTORS
330
43
102
}
330
43
100
AcDbMaterial
  1
Global
  0
MLEADERSTYLE
  5
5C
102
{ACAD_REACTORS
330
5B
102
}
330
5B
100
AcDbMLeaderStyle
170
     2
171
     1
172
     0
 90
        2
 40
0.0
 41
0.0
173
     1
 91
-1056964608
340
14
 92
       -2
290
     1
 42
2.0
291
     1
 43
8.0
  3
Standard
341
0
 44
4.0
300

342
11
174
     1
178
     6
175
     1
176
     0
 93
-1056964608
 45
4.0
292
     0
297
     0
 46
4.0
343
0
 94
-1056964608
 47
1.0
 49
1.0
140
1.0
293
     1
141
0.0
294
     1
177
     0
142
1.0
295
     0
296
     0
143
3.75
1001
ACAD_MLEADERVER
1070
     2
  0
MLINESTYLE
  5
18
102
{ACAD_REACTORS
330
17
102
}
330
17
100
AcDbMlineStyle
  2
Standard
 70
     0
  3

 62
   256
 51
90.0
 52
90.0
 71
     2
 49
0.5
 62
   256
  6
BYLAYER
 49
-0.5
 62
   256
  6
BYLAYER
  0
ACDBPLACEHOLDER
  5
F
102
{ACAD_REACTORS
330
E
102
}
330
E
  0
SCALE
  5
48
102
{ACAD_REACTORS
330
47
102
}
330
47
100
AcDbScale
 70
     0
300
1:1
140
1.0
141
1.0
290
     1
  0
SCALE
  5
49
102
{ACAD_REACTORS
330
47
102
}
330
47
100
AcDbScale
 70
     0
300
1:2
140
1.0
141
2.0
290
     0
  0
SCALE
  5
4A
102
{ACAD_REACTORS
330
47
102
}
330
47
100
AcDbScale
 70
     0
300
1:4
140
1.0
141
4.0
290
     0
  0
SCALE
  5
4B
102
{ACAD_REACTORS
330
47
102
}
330
47
100
AcDbScale
 70
     0
300
1:5
140
1.0
141
5.0
290
     0
  0
SCALE
  5
4C
102
{ACAD_REACTORS
330
47
102
}
330
47
100
AcDbScale
 70
     0
300
1:8
140
1.0
141
8.0
290
     0
  0
SCALE
  5
4D
102
{ACAD_REACTORS
330
47
102
}
330
47
100
AcDbScale
 70
     0
300
1:10
140
1.0
141
10.0
290
     0
  0
SCALE
  5
4E
102
{ACAD_REACTORS
330
47
102
}
330
47
100
AcDbScale
 70
     0
300
1:16
140
1.0
141
16.0
290
     0
  0
SCALE
  5
4F
102
{ACAD_REACTORS
330
47
102
}
330
47
100
AcDbScale
 70
     0
300
1:20
140
1.0
141
20.0
290
     0
  0
SCALE
  5
50
102
{ACAD_REACTORS
330
47
102
}
330
47
100
AcDbScale
 70
     0
300
1:30
140
1.0
141
30.0
290
     0
  0
SCALE
  5
51
102
{ACAD_REACTORS
330
47
102
}
330
47
100
AcDbScale
 70
     0
300
1:40
140
1.0
141
40.0
290
     0
  0
SCALE
  5
52
102
{ACAD_REACTORS
330
47
102
}
330
47
100
AcDbScale
 70
     0
300
1:50
140
1.0
141
50.0
290
     0
  0
SCALE
  5
53
102
{ACAD_REACTORS
330
47
102
}
330
47
100
AcDbScale
 70
     0
300
1:100
140
1.0
141
100.0
290
     0
  0
SCALE
  5
54
102
{ACAD_REACTORS
330
47
102
}
330
47
100
AcDbScale
 70
     0
300
2:1
140
2.0
141
1.0
290
     0
  0
SCALE
  5
55
102
{ACAD_REACTORS
330
47
102
}
330
47
100
AcDbScale
 70
     0
300
4:1
140
4.0
141
1.0
290
     0
  0
SCALE
  5
56
102
{ACAD_REACTORS
330
47
102
}
330
47
100
AcDbScale
 70
     0
300
8:1
140
8.0
141
1.0
290
     0
  0
SCALE
  5
57
102
{ACAD_REACTORS
330
47
102
}
330
47
100
AcDbScale
 70
     0
300
10:1
140
10.0
141
1.0
290
     0
  0
SCALE
  5
58
102
{ACAD_REACTORS
330
47
102
}
330
47
100
AcDbScale
 70
     0
300
100:1
140
100.0
141
1.0
290
     0
  0
TABLESTYLE
  5
5A
102
{ACAD_REACTORS
330
59
102
}
102
{ACAD_XDICTIONARY
360
2FC
102
}
330
59
100
AcDbTableStyle
  3
Standard
 70
     0
 71
     0
 40
0.06
 41
0.06
280
     0
281
     0
  7
Standard
140
4.5
170
     2
 62
     0
 63
   257
283
     0
274
    -2
284
     1
 64
     0
275
    -2
285
     1
 65
     0
276
    -2
286
     1
 66
     0
277
    -2
287
     1
 67
     0
278
    -2
288
     1
 68
     0
279
    -2
289
     1
 69
     0
  7
Standard
140
6.0
170
     5
 62
     0
 63
   257
283
     0
274
    -2
284
     1
 64
     0
275
    -2
285
     1
 65
     0
276
    -2
286
     1
 66
     0
277
    -2
287
     1
 67
     0
278
    -2
288
     1
 68
     0
279
    -2
289
     1
 69
     0
  7
Standard
140
4.5
170
     5
 62
     0
 63
   257
283
     0
274
    -2
284
     1
 64
     0
275
    -2
285
     1
 65
     0
276
    -2
286
     1
 66
     0
277
    -2
287
     1
 67
     0
278
    -2
288
     1
 68
     0
279
    -2
289
     1
 69
     0
  0
DICTIONARYVAR
  5
2FB
102
{ACAD_REACTORS
330
2FA
102
}
330
2FA
100
DictionaryVariables
280
     0
  1
1:1
  0
DICTIONARYVAR
  5
305
102
{ACAD_REACTORS
330
2FA
102
}
330
2FA
100
DictionaryVariables
280
     0
  1
3.500000
  0
DICTIONARYVAR
  5
306
102
{ACAD_REACTORS
330
2FA
102
}
330
2FA
100
DictionaryVariables
280
     0
  1
acadiso.lin
  0
DICTIONARYVAR
  5
302
102
{ACAD_REACTORS
330
2FA
102
}
330
2FA
100
DictionaryVariables
280
     0
  1
Standard
  0
DICTIONARYVAR
  5
301
102
{ACAD_REACTORS
330
2FA
102
}
330
2FA
100
DictionaryVariables
280
     0
  1
Standard
  0
DICTIONARY
  5
2FC
330
5A
100
AcDbDictionary
280
     1
281
     1
  3
ACAD_ROUNDTRIP_2008_TABLESTYLE_CELLSTYLEMAP
360
2FE
  3
ACAD_XREC_ROUNDTRIP
360
2FD
  0
CELLSTYLEMAP
  5
2FE
102
{ACAD_REACTORS
330
2FC
102
}
330
2FC
100
AcDbCellStyleMap
 90
        3
300
CELLSTYLE
  1
TABLEFORMAT_BEGIN
 90
        5
170
     1
 91
        0
 92
    32768
 62
   257
 93
        1
300
CONTENTFORMAT
  1
CONTENTFORMAT_BEGIN
 90
        0
 91
        0
 92
        4
 93
        0
300

 40
0.0
140
1.0
 94
        5
 62
     0
340
11
144
6.0
309
CONTENTFORMAT_END
171
     1
301
MARGIN
  1
CELLMARGIN_BEGIN
 40
1.5
 40
1.5
 40
1.5
 40
1.5
 40
1.5
 40
1.5
309
CELLMARGIN_END
 94
        6
 95
        1
302
GRIDFORMAT
  1
GRIDFORMAT_BEGIN
 90
        0
 91
        1
 62
     0
 92
       -2
340
14
 93
        0
 40
0.045
309
GRIDFORMAT_END
 95
        2
302
GRIDFORMAT
  1
GRIDFORMAT_BEGIN
 90
        0
 91
        1
 62
     0
 92
       -2
340
14
 93
        0
 40
0.045
309
GRIDFORMAT_END
 95
        4
302
GRIDFORMAT
  1
GRIDFORMAT_BEGIN
 90
        0
 91
        1
 62
     0
 92
       -2
340
14
 93
        0
 40
0.045
309
GRIDFORMAT_END
 95
        8
302
GRIDFORMAT
  1
GRIDFORMAT_BEGIN
 90
        0
 91
        1
 62
     0
 92
       -2
340
14
 93
        0
 40
0.045
309
GRIDFORMAT_END
 95
       16
302
GRIDFORMAT
  1
GRIDFORMAT_BEGIN
 90
        0
 91
        1
 62
     0
 92
       -2
340
14
 93
        0
 40
0.045
309
GRIDFORMAT_END
 95
       32
302
GRIDFORMAT
  1
GRIDFORMAT_BEGIN
 90
        0
 91
        1
 62
     0
 92
       -2
340
14
 93
        0
 40
0.045
309
GRIDFORMAT_END
309
TABLEFORMAT_END
  1
CELLSTYLE_BEGIN
 90
        1
 91
        1
300
_TITLE
309
CELLSTYLE_END
300
CELLSTYLE
  1
TABLEFORMAT_BEGIN
 90
        5
170
     1
 91
        0
 92
        0
 62
   257
 93
        1
300
CONTENTFORMAT
  1
CONTENTFORMAT_BEGIN
 90
        0
 91
        0
 92
        4
 93
        0
300

 40
0.0
140
1.0
 94
        5
 62
     0
340
11
144
4.5
309
CONTENTFORMAT_END
171
     1
301
MARGIN
  1
CELLMARGIN_BEGIN
 40
1.5
 40
1.5
 40
1.5
 40
1.5
 40
1.5
 40
1.5
309
CELLMARGIN_END
 94
        6
 95
        1
302
GRIDFORMAT
  1
GRIDFORMAT_BEGIN
 90
        0
 91
        1
 62
     0
 92
       -2
340
14
 93
        0
 40
0.045
309
GRIDFORMAT_END
 95
        2
302
GRIDFORMAT
  1
GRIDFORMAT_BEGIN
 90
        0
 91
        1
 62
     0
 92
       -2
340
14
 93
        0
 40
0.045
309
GRIDFORMAT_END
 95
        4
302
GRIDFORMAT
  1
GRIDFORMAT_BEGIN
 90
        0
 91
        1
 62
     0
 92
       -2
340
14
 93
        0
 40
0.045
309
GRIDFORMAT_END
 95
        8
302
GRIDFORMAT
  1
GRIDFORMAT_BEGIN
 90
        0
 91
        1
 62
     0
 92
       -2
340
14
 93
        0
 40
0.045
309
GRIDFORMAT_END
 95
       16
302
GRIDFORMAT
  1
GRIDFORMAT_BEGIN
 90
        0
 91
        1
 62
     0
 92
       -2
340
14
 93
        0
 40
0.045
309
GRIDFORMAT_END
 95
       32
302
GRIDFORMAT
  1
GRIDFORMAT_BEGIN
 90
        0
 91
        1
 62
     0
 92
       -2
340
14
 93
        0
 40
0.045
309
GRIDFORMAT_END
309
TABLEFORMAT_END
  1
CELLSTYLE_BEGIN
 90
        2
 91
        1
300
_HEADER
309
CELLSTYLE_END
300
CELLSTYLE
  1
TABLEFORMAT_BEGIN
 90
        5
170
     1
 91
        0
 92
        0
 62
   257
 93
        1
300
CONTENTFORMAT
  1
CONTENTFORMAT_BEGIN
 90
        0
 91
        0
 92
        4
 93
        0
300

 40
0.0
140
1.0
 94
        2
 62
     0
340
11
144
4.5
309
CONTENTFORMAT_END
171
     1
301
MARGIN
  1
CELLMARGIN_BEGIN
 40
1.5
 40
1.5
 40
1.5
 40
1.5
 40
1.5
 40
1.5
309
CELLMARGIN_END
 94
        6
 95
        1
302
GRIDFORMAT
  1
GRIDFORMAT_BEGIN
 90
        0
 91
        1
 62
     0
 92
       -2
340
14
 93
        0
 40
0.045
309
GRIDFORMAT_END
 95
        2
302
GRIDFORMAT
  1
GRIDFORMAT_BEGIN
 90
        0
 91
        1
 62
     0
 92
       -2
340
14
 93
        0
 40
0.045
309
GRIDFORMAT_END
 95
        4
302
GRIDFORMAT
  1
GRIDFORMAT_BEGIN
 90
        0
 91
        1
 62
     0
 92
       -2
340
14
 93
        0
 40
0.045
309
GRIDFORMAT_END
 95
        8
302
GRIDFORMAT
  1
GRIDFORMAT_BEGIN
 90
        0
 91
        1
 62
     0
 92
       -2
340
14
 93
        0
 40
0.045
309
GRIDFORMAT_END
 95
       16
302
GRIDFORMAT
  1
GRIDFORMAT_BEGIN
 90
        0
 91
        1
 62
     0
 92
       -2
340
14
 93
        0
 40
0.045
309
GRIDFORMAT_END
 95
       32
302
GRIDFORMAT
  1
GRIDFORMAT_BEGIN
 90
        0
 91
        1
 62
     0
 92
       -2
340
14
 93
        0
 40
0.045
309
GRIDFORMAT_END
309
TABLEFORMAT_END
  1
CELLSTYLE_BEGIN
 90
        3
 91
        2
300
_DATA
309
CELLSTYLE_END
  0
XRECORD
  5
2FD
102
{ACAD_REACTORS
330
2FC
102
}
330
2FC
100
AcDbXrecord
280
     1
102
ACAD_ROUNDTRIP_PRE2007_TABLESTYLE
 90
        4
 91
        0
  1

 92
        4
 93
        0
  2

 94
        4
 95
        0
  3

  0
ENDSEC
  0
EOF
